<mxfile host="Electron" agent="Mozilla/5.0 (Windows NT 10.0; Win64; x64) AppleWebKit/537.36 (KHTML, like Gecko) draw.io/27.0.9 Chrome/134.0.6998.205 Electron/35.4.0 Safari/537.36" version="27.0.9">
  <diagram name="PÃ¡gina-1" id="IKVGy_DopQR0RWY-qbrC">
    <mxGraphModel dx="946" dy="1830" grid="1" gridSize="10" guides="1" tooltips="1" connect="1" arrows="1" fold="1" page="1" pageScale="1" pageWidth="827" pageHeight="1169" math="0" shadow="0">
      <root>
        <mxCell id="0" />
        <mxCell id="1" parent="0" />
        <mxCell id="UnPfejbTvI9zTR89ufpQ-1" value="" style="shape=image;verticalLabelPosition=bottom;labelBackgroundColor=default;verticalAlign=top;aspect=fixed;imageAspect=0;image=data:image/png,iVBORw0KGgoAAAANSUhEUgAAAswAAADJCAYAAAA3g2SAAAAAAXNSR0IArs4c6QAAAARnQU1BAACxjwv8YQUAAAAJcEhZcwAADsMAAA7DAcdvqGQAAP+lSURBVHhe7J13WBTX18e/W+iCYCEiURRxjcYCYhcrUWLsMYqxYkQlBbuJJTbUEM1rTDSJohE1tkhi/FnBFopIs4A0wQBSpJcFYak7c94/lrrszoItJpnP8/A8unPnzrmn3TMzd2YERETg4eHh4eHh4eHh4VGJUPkHHh4eHh4eHh4eHp46+IKZh4eHh4eHh4eHhwO+YObh4eHh4eHh4eHhgC+YeXh4eHh4eHh4eDjgC2YeHh4eHh4eHh4eDviCmYeHh4eHh4eHh4cDvmDm4eHh4eHh4eHh4YAvmHl4eHh4eHh4eHg44AtmHh4eHh4eHh4eHg74gpmHh4eHh4eHh4eHA+6CWZ6OO/87gJVTh8Nu6FAMHTYJC9esxdrPV+EzpykYbWeH4bN/Qqy8un1pIDYPeQMtLabgQByj1NkLhE3Drwu6waS1DVZ4FyhvVYJF2q8L0M2kNWxWeENTa9WwyPL9P8yzs0JrA120tBgKZ88olNZvUnABq+3tMHTo0Nq/YVN3IqSifqOmwKAg+jz2rFmMhc5L8NnylVi36zRCHj/AsWO+aHZ3r4RKJF38GitXuOH4nVywYJAeHo6MWhcowv8+7oPu43YgpLjhni8GBo9+mIJufefhWGKNM/Lw8PDw8PDwvBi4C2axOfpPWYBJHdIREhSEoDtyDF7/Nb7etRs/HP0VPy9/C9LYVBSz1e3L0xGfkIfizHgk5r/MglmKv2LSUCRNQuzjp+A+EgvpXzFIK5IiKfYxnnI3Vklx4HfY4aOD95Z9Cdexb6IiLQieny7B3oc1nbHIOncIP/veRlBQUPVfKFLfsEYvHaXOuGCzcP3Ld9DvwzMQT9yIn372wA/ffYsv32+Bywsd8PGpeBQp7/MawOaex4k/5dBOPQPXYX0w9MNF+PxsGvRF1Q1KfPG/W2Zw2bUKgwyVdn4RsGnwvpiIoRvcMbeLWHkrDw8PDw8PD89zISAiUv6xIZW4vaoXRn77CHKdcTiUeQXOJhXIzpKhrakcp778GZIt6zFAW9G6NC0CD4rbo38PU7zM0oWVxiMsQQtv97eExhqMlSI+LAFab/eHpcbGyjDISEiBkZUlWgBA0Rk4dp4Fr+K38EVgOL4eqA2waTgwcymyZy3GgJoCWaAFsz6jYG1WUzVqQo7Y7xxgt7EMa4L8sK5XtUKrYXPPw+WzeKw69Tm6NbXLVwSbm4AkoSWsWlch9ZYXzkcZYMSHU9DbRHE+Vhl2GAeKJ+Ez+7YaztCeEekV/PCbOT5a3Af6ytt4eHh4eHh4eJ4T0ZYtW7Yo/9gQBmnX9uNocD5YcVdMWj0bfUUhOHAwDf3seqFrDyu0NTKEDhUh/rYfIp4Uo/zpU7CtOqCtnqC6j2I8vHIMh3+9gdiSVrCStIUuSpEc+ieCo/5CQmIGKk06wCDtCg4euo6nFrawbCkEUIR4n5PwPHkevlEFMLR6C2b6LDLuXcft+AKUl0oh0+kA85bVpXlRPHxOeuLkeV9EFRjC6i0z6GTew/Xb8SgoL4VUpoMO5i2rC3kW+Q/O49iRM/AOSUJZGytYttFBjcR1CGHYygQ15SubfwuH9/pBZ/YefL+kN1oKAeaxJ9ZuvYqU3FwUVBmg8+BxGDf0bbQ3rCsP2dwQ/PLDSTwQd0PvNw0aH0d6Ditm/R/ih7nh6DJbGChtFhhYoauhDAJLK7Sp7paRJuH+3SiklunBtI0B6tfRpWmRSChvi7Z6RUi6fx/J8lYwa6kNoBLZsaGIyBDBtJ1h3UkNW4zHsekQtzFCaWIY7vxVjpZmraBbr8KV5z/CndAIJOQBxu1MarcJDHRQkpgMeds30FpPDOi0RUdLUxhUbxeZ90UfnSQklLVF2xY1I5cj/9EdhEYkIA/GaGeiy1FMa2hLBtBj0pGUK0CrdsbQqTlEaSqiEivRpkURou6nQ7tdG+gJAaAUGVFhuBefC0GrdjCu3QGAPB+P7oQiQjFImNRXAA8PDw8PD89/E9JIBQWulJAYIOiMo0P5csr63YkGu3hTuVLLsrhdNEJXQBBZkqtv9VZ5Mp356C1qM2QLhab+ScvfNqZerpcomyEqi/8/GqUnIIg60EffudPotiISQIt6f3mfiHlCZxf1oNYDN9HtyD1kbyAk3beW0rVCInnO7zTPXESANo3el04METFPztKiHq1p4KbbFLnHngyEuvTW0mtUKM+h3+eZkwgg7dH7KJ0hIqqieM8PyELPguZ5JVPq+YXURd+Cph6IbjSmOiooO+J32jimPYm13iC71ecpRU5EJKeHXw0iHQEIUPwJxK1pwKdelFhVs2853fi4I4kAEr25hK6pOIjsf/OorVCL+m+LIbnyxkZIKXjPfJq22J08Txykde9JqMvYrfRnDkNM/h06vtKezHWMacZeL9rk6EDDerUjHf2etNL7Dv3y8RgaPKAntdM1on6bgkhGckr130sLbU1It/dy2r9pNHVq1YK0BGJqO3wrBRYSEckp8fg8sh3xCXl4naAdU62o7aAtFCRjKCf0KC0b2Y50zOfTvoOLaKRtb7I01iLT8QfoLzkRU3CfTq0ZQ+Y6JjTr9zKF+PJEOj7PlkZ84kFeJ3bQVKu2NGhLEMmURkmkqS1DGd5u5Oyyifb9tIs+GfEmtRu6nq7nZFLw4aU00kyH3nB0ox3jO5O+0JAmHckjJsOb3JxdaNO+n2jXJyPozXZDaf31PGKISJ54nObZjqBPPLzoxI6pZNV2EG0JUikVDw8PDw8Pz3+I5hXMYisaO3cMddEXk/mixgUzyU7TBy3qF8wM5ZyeQaZCbRqxJ5kYKqPLC81IpD2AtkfLicrO0dzWQoJAjyze30d37p+k5VMdyf3WU5Kem0/mouoCUv6Qdg7VI4H2ANoRKyeqiqQttlr1CmYpnZtvTiKt/rQtRk7yhztpqJ6AtAfsoFh5FUVusSWtegUzk3mMprYWkqDlDDpTQgo52ghJ0HIceaQyyqNSIE+hm3uX03uSFiQECMKW9M6+BCIqppCf19PKzxbSjDF9yExXoCicBfpkuzG0WkdySj4xlyQtW5JkznF63KgiZij1u1GkDR0aeyBHeWMjpFeWkKT7cvKvrj9JFkirumuT2cxfKYshYjJ+IHsdfRq0zp8y5URUcZ82WmtRy8Ff0LUnVURUReEbrUnH0pUU5zUVFLS6G2mZjabNPk+oimQUe2gqmYu0yXbLA6qSP6SvBuqT7dYoqiKiqrB11FPXmjaFVymK6W+GkrZRP1p2PokqiKjw99lkqmNH3yQqBspk/kj29Qpm+cOvaKC+LW2NUsgStq4n6VpvovDaE4w6uNoy2adp9qi1FFKhaMuk7KER2lpksymcqpgU2jNSm/R6LaNrOVKKueFDD3Iz6fTsUbS2bgfaM0KbtGw2UXiVnB5+NZD0bbeS4lBhtK6nLllvCicVYvHw8PDw8PD8h2je/WZRV0z/7gr+9JiG9ir3JDRcEF2OWxdvII9lkem7D+vXbsLpyDJQVTTu3Kv/jgkRrCfNRj+bWdjzx69YayeC3x+XkckIYGDYAgLRW1h17i5uh/6BVd1VLOAt9cMflzPBCAxg2EIA0VurcO7ubYT+sQqqmhf/eR43C1gIW7ZGKzEAgRGMWghAT2/B2++pcnMFoo4Y7boHl8OuY9PQlhCyTxF4+SaAFhi4cAd27/sZZ65FIPnRdXw9xRI6KEXEkcPwqwAAESxm/4L4wkLEH5+DTo1kEkJfXwdCAaGqvBw1z1CqpgAXD/2KNKs+sNGt/kl/IBynSJB36RS8CwFhCwPoC7TRuW8/tBMB0JbAykIMdOiLoeZiAGJ0smgPQZEUUgIAIfT0dCFqOwST7c0hhj66O23FImtClL8/sgUSuBwLwEnXTkjz88TOIyGQshUoK2cBiNCihQFEhtZwcOgMbQAGkq7oICxCYYHCG4SGhmhRz19EEhccCzgJ105p8PPciSMhUrAVZShXMXCutqV+5+CT/giXdrvD3d0dO0+WwWGLG+bZ6gFCPehpC2HUzx7D2hqjh70DeusG4JxPOh5d2g13d3e47zyJMoctcJtnCz2IIHE5hoCTruiU5gfPnUcQImVRUabJHjw8PDw8PDz/dlSWvZwIxOg441NMt6xZ/VqK5KRMpUY1lCAnrwQsBGg9ZDF2fL0Lx8OkYFgZ/jev3tN3wpZ4o139x7VkyM4uBgsWuVlZkAMQte2BwdbmUPnSCVk2sotZgM1FVpYcgAhtewyGtbmq1iye5hagnACBtja0BQBqVhRTJQrzn3IXSC0HYa37AliJAWq8EhnaHezxxZnz2DKkBdjcJ3hSptxCNS372kIiZvAoOhqVyhvrw2Qj9Ukp2MpKlNf+KEYnC3MIKwshfcoCAoGSZAIIBYr1IrW/CIUA1/Oe4i54u6sBUFWBChJCXBaBvYtc4JnRBx+5jIaZsG5fgUDpaCIRBCCwNU2U5RGKURaxF4tcPJHR5yO4jDZDve4aorYti+LcfJTpdMeUNeuwbl3N31osn9RNsTZbyTxscS7yy3TQfcqaeu3XYe3ySegmBoTiMkTsXQQXzwz0+cgFo82ESieAPDw8PDw8PP9Fml8wA4D2AMyb1xdaANiMszhyPlu5RTUGaNvaAEIwiLt7l+OVaEIIG1x1NUC7dkYQgkFCgB+SNb0KzqAd2hkJASYBAX7JGl4zJ0Srjm+ipRAglq0u6spRUQVAaIj2HVo3VApbgNBfvsWR29m1hbSWRIKOQjF6DhxYv2Ud2j0w/8OB0DXrDEu96t/YQiSEhSGxSHU5LrZ2gvMIQ2Rf9MTZTFVtKvHoymVEVrVH1y5GYGLuou4iPYvKikoI3+wDG7NnMykAgKjeyUIVSstZmHbvifZlV7Bi8nrkT/8B22bZwrTmXOkZq8mSKysweX0+pv+wDbNs696moqo79W2FMGpvBv04Lxy+Ka3bgUmC9+VIqHobs9CoPcz04+B1+Cbq9mCQ5H0ZkfISXFkxGevzp+OHbbNg+7yD5OHh4eHh4fnX0KTqimWryyiSo6qSBaCDN9q1grAkCgc+ccMDE4vqlspXNvUwfNIYtBGyKLy8G+5++WDBIuPKXhwLrwRQU7CykFfV308fox2noIMIqAj9Cdv+SAcDoPThZXjHVAIg1IrEMoD+aDhO6QARKhD60zb8kc4AKMXDy96IqVQUxtWNwQAwGDMf0zuLQQXZyK4CUJ6H/CIWojen4MN3Gr6fgs31wqYlq7FwzDBM/+Y6kvIzELj/V0SYz8J6l54AinBpiQRturyLTVczawtOltWB9bwFGKoDAHLc2ToavQcNQm97N9xVVc2JrPCxxz7MaHEJy2esw/8eldRtY6W4e+wrnCcb9NRtiQlLXdBLehZ7POMVV6PZLFz3S8PQpZ9gmA4AhgVbT0eoeRqx3hVlIgJYhT5qYHNTkFx9WDbjAi5E9oTLJ6OhXZSIpOwSpMY/Rkl5GvwvBiOTKUVRZgRCo5+CYeQgtt4VZSKA2Dq/YRmFPMQCYFGUmITsklTEPy5BeZo/LgZngiktQmZEKKLrDVtT28eDF2BW52R4OI7EbLef4XX2GNydv0CQgaWisCZAXlVP2QZjsGBWZyR7OGLkbDf87HUWx9yd8UWQASyFRUhMykZJajwel5Qjzf8igjMZlBZlIiI0up5MPDw8PDw8PP85lBc1N6DqCYX9bz8t7KVLguoH3Xq/v5Q+/2I1LV04lQZ3NCCBuAst9at+iEp2hma0VH5LRgr9/rE1GYsEJNBtS90GjKGP9oXRU5JR/O/O9LaWgCDQoV7OJygiv94Dd0wO3dg4gtppCUigZUJdbEfR9E2XKJWRU/L1dTTCREiAiNpP2EW3Mxlicm7QxhHtSEsgIC2TLmQ7ajptupRKlcnXad0IExICJGo/gXbdziQihgpu7aCxHc1o+OdH6MjqYdSuowNt98+nRo/8VUXSd2PakVbNWzAEOmRu9wkdj6l5e4KMgrfZURuxgAR6VjRlkyedOfUjbd1+mh7WPhVZQaEb+pCuQEB6NhspjOMpMnn2bdq/dBL1l3SlXoNG0bipM2n+os9p/+2cerJVUfKFDTTJ1oZGzlxEH380l1y+9adshohKYunC5nFkLhKT5bSddDEqhSL+2EaTOopIbDmV3P/3gB7f9aJN75mTSNyZprp7U0JFFYVv7EPaZoNohvOntGLlpzRnqiN9eTFF8cYOJp3OLR1A7QxNqMtwZ9rv+ws5WRiT5YRddP32WVpvb0oiLQnN3H2FYuJvkefSIWQs1Ccb50MU+Fc0Xdw8jtqLxNR56ld0Jb6cmPRztHRAOzI06ULDnfeT7y9OZGFsSRN2BVNhfWUQaWwriz1BrqOtyERHm4w6DqXFR6NJxuTT/dPr6B0zEYnMHWjD6buUV6M8WSydcB1NViY6pG3UkYYuPkrRMiIihtLPLaUB7QzJpMtwct7vS784WZCx5QTaFawsFQ8PDw8PD89/iSZ8uKQZlP+BOebTcfKpJZb/GYM9w2reXsyg6HE4HqTKYdrdBm+ZqlpbrBpZWgTuJ8pgIrFBz/aaPkshQ1rEfSTKTCCx6QmNzSuyEXsvFtmCdnjbtjtMG34rpA62BKmR9/FXgQDGnXvBurNxg3ceAyxkaVG4/ygf1OINWPXsjvY1LyGubSLFozuPIOzWH1bGTbqw/wqRI2JTPww+PxFB97bB5mV+cYaHh4eHh4eH5x/GiymYS8Pw7eIfoLV0Fh7OmID9GTZwCw/BxrcbvQ6C57WkrmAOvLcNtnzBzMPDw8PDw8NTC2fBrPz2A55ng0PFrwnl+POzHnj30ru4EvsT3tF0ZZ6Hh4eHh4eH5z8EXzC/AjhU/BpQgYTrR/FbQDKK5GIYdxqJGQvsYalueQoPDw8PDw8Pz38MzoKZh4eHh4eHh4eH57/O6/b0GQ8PDw8PDw8PD89rBV8w8/Dw8PDw8PDw8HDAF8w8PDw8PDw8PDw8HPAFMw8PDw8PDw8PDw8HfMHMw8PDw8PDw8PDwwFfMPPw8PDw8PDw8PBwwBfMPDw8PDw8PDw8PBzwBTMPDw8PDw8PDw8PB3zBzMPDw8PDw8PDw8MBXzDz8PDw8PDw8PDwcMAXzDw8PDw8PDw8PDwc8AUzDw8PDw8PDw8PDwd8wczDw8PDw8PDw8PDAV8w8/Dw8PDw8PDw8HDAF8w8PDw8PDw8PDw8HPAFMw8PDw8PDw8PDw8HfMHMw8PDw8PDw8PDwwFfMPPw8PDw8PDw8PBwwBfMPDw8PDw8PDw8PBzwBTMPDw8PDw8PDw8PB3zBzPOvQZYSjgdp5co//wNgIH0Uhccy5d//RthiJEUloJBV3vAMvMi+eGp5Lf29PB1RD7PxTKaWpSD8QRqeZURsUTLuBgYjOutZ9n61vHq7sShOikLCfzEAn8cfeXiU4CyY2cwQnPl+Od4fYQe7YRPxyf+dwK0UpnprBRL+9MR253cxzH42vjx0EwkVSh38l6hMwsWvV2KF23HcyWUBJh3h4Rmo0RaK/oeP+3THuB0hKG6454uBeYQfpnRD33nHkChX3vgfgE3GwXmDMWTRMWT9g7Ijk/Inds/ri869F+JkbWz9nTBI+3M3nAZ0xtuOBxH3XL70IvviacDr5u9sIcJPrIS9lRVGbg9EpfJ2jbBIPjgPg4cswrFmDYjBY6/P4bLzIoLPfwkHSS/MOf5YudHrA5fdKm5hw5BuGL7aBznK254RJu1P7HYagM5vO+LgfykAn9sfeXhUQJqQx9D2/loklqykwArljURll5ypr/Mlkilv+E/BUI7XVlq+7Qt6v0dL0jEbRDMXzKIN56W1LYrPzae3Hb6jyLIGO74wmMff0dieC+j3J4zypv8MJcn3KSK1noKZHLp7J4Hk9Ru9hpT/+Sl10ulH22JeF0krKHClhHTeWkPBKmK+eTSzr3+IzV4HGvm7WhjKuXuHEl62UplU+n6UDpnM+p2aIlUjSpLpfkRqs/Zlsn6hqe3fo4P5RMTk0Q23OeTi+VC52WuFOrtV3F5N/QZvoIBC5S3PR0XgSpLovEVrmhSA/yKe1x95eJTgvMIMABC0QWsTAQSGxjBW0VrY0gRvtmkNsfKG/xo2s/Dl+q9x9n4kru+chWETvsCqCcbVGysRm98X3x93RS9dpf1eEEWxIkw78QOmmasw0n8EAwsb9OlQp2BZ6PfYdPQRXvfrKiIDQxi8VmYTwdjYCALln5+J5vX1T7HZ64Cyv6tFForvNx3Fo5etVKERDA2aamkVGFjApk8HNGFEtVSG3ECgzABGugCErWG/8Tj2L3hLudlrhWq7MUhNeROfn9qKYS2VNj0nImNjGD2HWf6xPK8/8vAo8RKmaRlSo+KRzwKV2TEICopFjlKiluc/QqjvTfjdSUKhxrvQlciJC4afXygSpMqNGUiT7uJWQAjicpRvupQiLfIhslmAKUzC3aBwpNasEa3MRmxQIB5k1F9HxqL4cQySilkw0gSEBIQiQVk4eT4ehfript8dJDXYJkRbM21k/JUPVqcdJH1tYf1WOxjWalcbAxYuxltZ8ciud6utOXrQ1FbHegTelt7FvZTiBuu1SlOjEJfLoDzjAcLiCuqWiJRmIOq2HwLupaC4we0/OfIfhcL3ph/uJBXWtVeFLBVR8flgUYnsmCAExeY0LnTUHgcabFuKjKjb8Au4h5QGO7IoTAyF/60IpBblIyOz3sLf8nRExmaBBYvckL2YP2c3wpIjcM3HF9G51X2otWEdbGYErvt4w9vnFuIKWYDJwL2r3vD2voqQx6W17WSpUYhXODpigoIQ29jRNR4LACAQVBeUBHnuQ4SExKDRUkyOvtjCRIT630JEahHyMzLRYCk0p/6VkBcgIcwfAeFpKFPehhfZlyof47AZAEaahLu3AhASl9Po9irn+GtpQnyrlKua0lRExeWCKc/Ag7A4FFRv1BSXdZQiNSoOuUw5Mh6EIa6mAwClGVG47RfQKHYBoDwzGrf9AxGRUtRoW52/V8MWIjHUH7ciUlGUn4FMGcDmhmDv/DnYHZaMiGs+8I3OVbRv9njUy1+HEIJG9QmHThtRjvTI2HpLFbjmkgqkhl3FtZBEFDF5iL3hjatBCXXL3Rgpku7eQkBIHBpPDSrGXpqGyIfZYMGgMOkugsJTa/2oMjsWQYEP0GC6AHdMAkBlThyC/fwQmiBtOG5lu1XTeuBQtEu9o2Iu49KDOuQoSAiDf0A40hoHIEd+VUY53xYjM+I6fLy94XMrDor0eA9Xvb3hfTUEdelReb/GUckWPESAjze8vb3h7ROI+CIWQDESbl+Ft7cPAm7dalIehtoYUuWP0FA3aJab57/LCyyYWeSGHcPyUVaQjHPH6cOL4TB+FuaOt0avKR5IYACAQdKJ+Rg07Xs8yMtCkLsDJHZbEdzQ92thc/2wY54T/u9GCnIi92GSpB9cz2cqAqIwBN85OWKtVxRS4y9g1bAecHDzRS7LouDuCax6R4KuI7bA6+xmzJ7phI+mDUb3Qavgc/c4PpkwFQuWTMeg7sOwObgUTFoA9jkPgEWPWdh3civG9h2IMe8MRnfJaLjdLgIAMEknMH/QNHz/IA9ZQe5wkNhha3ApwOYi7NhyjLKSYJz7aRxe7IDxs+ZivHUvTPFIAAMW0vDT+HysFbqM2I7ASjRTDxraspnw2bYIqzz8EXnnDFbZSTB8ww3kZoXAc9koWEnGYMuBnfjAbggGD1iA4/ksMn22YdEqD/hH3sGZVXaQDN+AG/kswCThxPxBmPb9A+RlBcHdQQK7rcFoJJbGMQMAx3E02JbN9MG2Ravg4R+JO2dWwU4yHBtuKArzyL1OcD2VBnl5LDxnD8IHPydDzkoRfvpzjLXqguFbA1DOFiIjXw8mLViwFTIUFhahVM5hQyWErTrizexfsHjyIhyOlQOiVuhgGo+9sydhpVcGqnLDcGz5KFhJxsH99GEsdhiPWXPHw7rXFHgoHL3Jx6qDkH3ZFUNshsDerhc6dZ+M7++WABr6qozcCyfXU0iTlyPWczYGffAzkuXQqH9lSqMOYq6DMw5HpCPh4nq4ejyqN8m/wL7U+ZgamwGFCPnOCY5rvRCVGo8Lq4ahh4MbfKuLafXjr6Mp8a1erhyEeC7DKCsJxmw5gJ0f2GHI4AFYcDyHOy5rYZET4ollo6wgGbMFB3Z+ALshgzFgwXHkq4ldhVqLELxrCiZuDkGVThEufzoI3fuPwtjx07D9ZnpDfweAykjsdXLFqTQ5ymM9MXvQB/g5uRKFGfnQM2kBlq2ArLAQRSVZzRwPh/zKQ1VGnU6V29XPkcO3IqC8KXMJoVJWhEJZFUBVkBUVovBpORgWKAz5Dk6Oa+EVlYr4C6swrIcD3Hxzwaqy5aD+mPrxJ3hH0hUjtnjh7ObZmOn0EaYN7o5Bq3xw9/gnmDB1AZZMH4TuwzbX2pcrJsHmwm/HPDj93w2k5ERi3yQJ+rmeR6ZcKU/VDJ9jLtOsBxWURuHgXAc4H45AesJFrHf1wKN6bdXnV2VU5dtUGHV8E9m/LMbkRYehSI8dYBq/F7MnrYRXBqNmv+RGF1OEBq2hE/cTFk6cjB33jdHeQAhAH2+0CMOe3Xeh3bkrZx5moH7+U5OaOHSNJsvN8x9GeY1GI5hs2j9Wm7Rs3Si6SnkjUcWtNTRpbTApVkfJKfGboaRt1I+WnU+iCiIq/H02merY0TeJciL5Q/pqoD7Zbo2iKiKqCltHPXWtaVO4io6ZTDrlaEUOP6YQQ0RUFU3fjGhF7eefoxKS0pUlEuq+3L92bZIscBV11zajmb9mEUMMZfxgTzr6g2idfybJiaji/kay1mpJg7+4Rk+qiKgqnDZa65Clqy+VE1FF0GrqpmVGozf70JMqIlnsIZpqLiJt2y30oEpOD78aSPq2WylKITit66lL1pvCqYqISJ5I3wzVJqN+y+h8UgURFdLvs01Jx+4bSpQTETGU+aM96ZjMot/LqHl64GzLUPbp2TRqbUi1/hlK2TOCtLVsaFN4FTEpe2ikth71WnaNcqQxdMPnAeVmnqbZo9ZSSPVyNiZlD43Q1iKbTeFU/vArGqhvS1sVg6SwdT1J13oTqRJL05iZbPXHqeKyLZNNp2ePorV1O9KeEdqkZbOJwmVBtLqnNX0RorA6k3WStu+LUdiAyaQf7XXIaMYZxXp6JoN+sNclc+crVK4QmNuGSshjt9MA3W60+na1HBW3aXU3PRr89V8kJyJ54jc0VNuI+i07T4rh/06zTXXI7ptEkjfzWFVh66intjlN2htG+XKikqhDNL2TFun0c6NITt+roKDVPcn6ixBFHDBZdHL7Poqp0qB/peOTLJDW9LakBbVr7kvo0kJz0qped/wi+5Jz+VgjmxFJrywhSffl5F8X6LSquzaZzfyVshj141eGO741yZVCe0Zqk16vZXQtR0oxN3zoQU4MR1wqw1DKnpGkrdeLll3LIWnMDfJ5kEuZHLFbFbWN+reoW9dedf9L6q3ThZb61Rihob9XBK2mntZfkCI0GMo6uZ32xVQRVedCXXNnulKj1GaPR5X8+YrYbcBTOjJRt3bNKKdOG1GdI41m0BkZaZ5LqpH9Mpl0jR3Jq+YhGukVWiLpTsvrHIYCV3UnbbOZ9GsWo3rsuU/oB3sd0h+0jvwz5URUQfc3WpNWy8H0xbUnCn2EbyRrHUty9S3XkEsYyjzlSFYOP1KKIrlR9DcjqFX7+XSupLHdSONc1jQ91CGjwDW9yXLBeaqNwEsLyVyreg0zV35VtkuFunwrp9jtA0i322qqS4+rqZveYPr6LznHfiqoiqJt/fXIfMF5UizdZijjyKe0xruYSGMe5p7/lP1Ro66bIzfPfxLNV5iFAggEAgAEUt4GACwDiGq6EaFFCwOIDK3h4NAZ2gAMJF3RQViEwgICRBK4HAvASddOSPPzxM4jIZCyFSgrV3E6KPXGaR8d2PRrp7gMLn4bq/3ykX50CgwKLuLQr2mw6mNTu95Nf6AjpkjycOmUNwohRAsDfQi0O6Nvv3YQAdCWWMFCDHToOxTmYgDiTrBoL0CRVAoCINTTg66oLYZMtoe5GNDv7oSti6xBUf7wzxZA4nIMASdd0SnND547jyBEyqKirFxxVi5qgRYGIhhaO8ChszYAA0i6doCwqBAFBABCGBq2qLuc3xw9cLYthd85H6Q/uoTd7u5wd9+Jk2UO2OI2D7Z6ijFpC43Qz34Y2hr3gL1Db+gGnINP+iNc2u0Od3d37DxZBoctbphnqweRxAXHAk7CtVMa/Dx34kiIFGxFGVSJpWnMpX7qj8Np21I/nPNJx6NLu+Hu7g73nSdR5rAFbvNsoSc2h8QiBd9OGo75X51FjJYjNnzWQ7F+XmgIwxYq779VI+K2YTMRtWgBA5EhrB0coBi+BF07CFFUWAB6lmOJzNDfvi9aiQCDnh9h90o7CKICcCuPy/fEMJdYIOXbSRg+/yucjdGC44bP0EOsQf9KlPjsx9GkXhg5qmbNvS46dzKDqPp/L7KvZvkYCnDx0K9Is+oDm7pAh+MUCfIunYJ3ofrxK8Md3yy3XEI96GkLYdTPHsPaGqOHvQN6t32LIy6VEUJPTxtCo36wH9YWxj3s4dBbFwEcsStPTkJaZd0tZXHnzuiADCQnV99fV/J3sbkEFinfYtLw+fjqbAy0HDfgM1WKwLOMR5X8rTTenuTUaSMUObJuRBrmEjUUXDyEX9Os0KfOYTDQcQokeZdwyrtQ9djbGMFAXwDtzn3Rr50IgDYkVhYQowP6DjWHYrqwQHtBEaRS0pBLpPA+7QMdm35op0hueHu1H/LTj2KKQWO7QeNc1kw9lPhg/9Ek9Bo5CrUR2LkTzOqCWX1+rdcNAIAr33LRnP3EPbDQ5R2UnvOAVzoLMI9wOvQNzBjdQrmlCrjnv0Zo0nVz5Ob5T6Ip5wHQg76uEFQqg0xFomOLSwADw9oJUVFc1yEQiSAAga0uHMVlEdi7yAWeGX3wkctomAlVBD0AJj8HeeWFKJA23s5kp+JJKYvKynqLysSdYGEuRGWhFE/ZxnJAIISgQckvgFAIUOPuqxGjy9tdYYAqVFQQhOIyROxdBBfPDPT5yAWjzYT1ehMorZUSQCQSAMTWtmkoT9P1wNmWLUZufhl0uk/BmnXrsK7mb+1yTOqmCPOGWmBRnJuPMp3umLKmXvt1a7F8UjeIhWKURezFIhdPZPT5CC6jzaBWLM4xcx9HwGFbtjgX+WU66D5lTb391mHt8knopt0RC49fxwFHQ/jvmIG+3YZg2bnU6tv9NSd26uG2YTOpXXdc838RFMNX9Ph8xxKirWVnGAsYyKu4+hKi48LjuH7AEYb+OzCjbzcMWXYOqQy3/htOAAzS4v5CIUQQq8wGL7IvAM3xMSYbqU9KwVZW1ns3rxidLMwhrCyE9CnUjL9BL2poGN8a5WrkWhxxqRKlDjTErvbACRj7RjxuXn0MBkDFwzikmNhj4oiaQqKhvws7LsTx6wfgaOiPHTP6otuQZTjHpYhmj6fRDprRpFMlBEoxpRzPDecSVTDITn2CUrYSDacGC5gLK1Eofao4YW00FOVcBgiEAjScLoQQ1rtopDYmmXzk5JWjsEBxIaYxDe32LHMZlx6YtDj8VQiI1AQgZ35VrgyFXPmWg2btJ4TZDBdMM/SFx+FoyMJ+RWLP2bDRVm6nAg0xpIxGXaM5cvP8F1EdVQ3QRmfLDhCkP0K8YkllPRgkRz5Bq24dawtmTkquYMXk9cif/gO2zbKFaY1Pqwh80RsdYa6XDe8zV1FQ8yObD2+Pk0h4oyu6GDGIuXuvbj0cW4mKSiHe7GMDsyaMSjUEqndSUFVaDta0O3q2L8OVFZOxPn86ftg2C7ZcgjeFZuiBs63QCO3N9BHndRg3pXW7MEneuBypauWVEEbtzaAf54XDDXeA9+VIFF5Zgcnr8zH9h22YZWtaWwypEosb7uMQh23/MmgPM/04eB2+ibo9GSR5X0ZkRRqin3SA096biIu5iPW9U7HfdQduNOn93yXNs6FIDJGKSYmoKemzmcdSQWluHso6WqPvG6UcfTFIi36CDk57cTMuBhfX90bqflfsuFHFqf+GniFAqzatIC6Pxr0IJUUSC1aDLZvXF1DSHB8TtUfXLkZgYu7iXr2HiSorKiF8sw9szEjN+NU5hLr4FjVPLmiIy6agIXaFbadgz34n6Nz8Dtv27MZX5/TwufdxOHdSnWmZtGg86eCEvTfjEHNxPXqn7ofrjhtQp4lGPO94VNBsnT43IrTv2gVGTAzu1jkM2MoKVArfRB8bs6ZMeE2AI75Fb6CjuR6yvc/gal1yQ763B07GN84dovYvdi4TtGqDVuJyRN+LULI9gWUBoRFHflWeMhj1+VYkFjW4IKSAQAz3fippMRYuThLEHPkWbqeLMGKmZV09wZWHNcSQMhp1Tc2Um+c/RxPCURuDFi7BUOEN7P3qJrJrY74SGb7u+PxmTziNNaj+jQXDyEFsPQcnUkyWLAu2KBFJ2SVIjX+MkvI0+F8MRiZTiqLMCIRGK1XjLcdhwYwOyDq+BO8v/wlef5zE7k+d4CUeAqtWE7DUpRekZ/fAM17xlCubdR1+aUOx9JNh0AHAsGztJK2AFAFdG3iKf7Ns/achcpGSXC0Hm4ELFyLR0+UTjNYuQmJSNkpS4/G4pBxp/hcRnMmgtCgTEaHRAMuAkRPYeglEMWwWbLUALKOQh1g0Sw/cbQljFsxC52QPOI6cDbefvXD2mDucvwiCgaUiiRPkqKqXOwzGLMCszsnwcByJ2W4/w+vsMbg7f4Egg06QJSYhuyQV8Y9LUJ7mj4vBmWBKi5AZEQpl82gas/rjWELMZVujMVgwqzOSPRwxcrYbfvY6i2PuzvgiyACWgjR47fLA/VJAt9N7WL9xOjrp60BXAIXvsQSqUbhQF7o6wNPMDBTkhiIwIovbhkqITM3RTjsdIdfuIzvnIS7vP4rb+XLkpj1GXnE5WIaBnNjaK8oAgUAKP2c1+IsqqBRFhdWZuTwKh08k4t2NyzBYzNVXJNK8dsFDoRC8t34jpnfSh46ugFv/DQ4sRNuJczGhTRIOr1iPS6mVQEUK7kfngJGmIyWrCIIX1pcUWVw+Vqpks0gtTFjqgl7Ss9jjGa94Owabhet+aRi69BMM02HUjl8l6uJbl0URl1wlivQhrxdI3HGpHCyo6aDeCYYBd+xKr2Dd5jRM/W4H1rquwNZdWzHXuuYmOxr5O5PmhV0e91EKXXR6bz02Tu8EfR1dCCCErkKpyCjIRWhgpKJYaPZ4lOVXBQOGqc4BaIJOlWAZFlSbs7nnkhoqK6tAlZWoqP6p5YSlcOklxdk9nlBMDSyyrvshbehSfDJMp7qfhmMHGCimi3pnU6Q4Xt10QSCwYBkAnPGdhnELZqBD1nEseX85fvL6Ayd3fwonLzGGWIka2Q0tNc1lTdNDDcK2EzF3QhskHV6B9ZdSUYkKpNyPRg4jRXpKFooEHPm1YTADjLp8K4KpeTtop4fg2v1s5Dy8jP1HbyNfnou0x3kolqnbT6n/WsSwWbgYw/JP4SxNxITWdVu487CIO4Ya+GMTdK12vCzyr2+F44fb4VuvMOf5D6K8qFk1DOXd/oEWv9OHulsPJfuxY8h+xDB6Z+5XdC21bkl8YeRZWm9vSiItCc3cfYVi4m+R59IhZCzUJxvnQxSYlkbnlg6gdoYm1GW4M+33/YWcLIzJcsIuClb1snZZLJ10HU2StobU0rwfzdp9i3JqnjSpSqYLGyaRrc1ImrnoY/porgt9659NDBGVxF6gzePMSSS2pGk7L1JUSgT9sW0SdRSJyXKqO/3vwWO667WJ3jMXkbjzVHL3TiBZ+Ebqo21Gg2Y406crVtKnc6aS45cXKaX6ob30c0tpQDtDMukynJz3+9IvThZkbDmBdgWnUOTZ9WRvKiItyUzafSWG4m950tIhxiTUtyHnQ4H0V/RF2jyuPYnEnWnqV1covjS96XpgNLWVUewJVxptZUI62kbUcehiOhotIyb/Pp1e9w6ZiURk7rCBTt/Nq31IRxZ7glxHW5GJjjYZdRxKi49Gk4yImPRztHRAOzI06ULDnfeT7y9OZGFsSRN2BVc/kFFDocYxpzPqj1MthHrbymLphOtosjLRIW2jjjR08VGKlike+Fg/pAtZv+NEn29xo7WLF5P7zSxiqIRiL26mce1FJO40hXZcjiciOSUc+ZAkJq1JMmU3hRRz2VBZ6URETylw+xjqaGRE5jbTaZfvFVpj25VGzN9CJ3wD6Ox6ezIVaZFk5m66EhNPtzyX0hBjIenbONOhwLTmHUv2F13YPodG9B9Ok50+paWLPqFtFxOrH0zhkjuHbq8fQl2s3yGnz7eQ29rFtNj9JmVV65FT/w1gSBr2IzkNsiAT407Ub+JntGXhIOo8eBZ9eSSYMjXZsgHcfaWncfmYss2IiKoo+cIGmmRrQyNnLqKPP5pLLt/6UzZDRFTBOf76VHHGN4fvf+1D/qfX0TtmIhKZO9CG03cpj2lKXNbAUP7907TuHTMSiczJYcNpuptX6+gqY1chzymaY6FDAoAgEJBQS5eMTLvSCJfj9LCisb9X3F5PQ7pY0ztOn9MWt7W0eLE73axWhDzhCH0oMaHWkim0OyiF7jdrPF+Tj786+etTRnGXNpFDOxGJLKbQjvPR6nXaKJ8QlcTW5MhONGXHZbp7V8Nckl5BSTd/oqV2rUkoNKVRazzot+AnJCeiquQLtGGSLdmMnEmLPv6I5rp8S/7ZDBGTr2LsJRR7YTONMxeR2HIa7bwYRSkRf9C2SR1JJLakqe7/oweP75LXpvfIXCSmzlPdyTuhjCMmCxV2PelKoyVtybClOfWbtZtu5TBEKvMU91ymcU5Nb2wLRhpGPzoNIgsTY+rUbyJ9tmUhDeo8mGZ9eYSCFcGsOr8qozbfEtHTQNo+piMZGZmTzfRd5HtlDdl2HUHzt5ygOxm31O+nFin9sXACuT1QfsSOIw/fyeOIocb+SMSta/XjlVPCj+PojXYT6ECSqgctef4rCIjUr+L9LyGP2IR+g89jYtA9bLNRPtXm4eH5J/NPi282/QLcPIrxvpMN2DwpikpKUSLNwIMzx5C5yBv7xlRfLeXh4eHheSU0YUnGf4zGd7l4eHj+LfwT4ptNx3HX5Xhg+S56W/aA9YChGDF6DMZPmw6Hfv3xdqN75zw8PDw8Lxu+YK5GXlCAp0wR8qXKX/7h4eH5p/PPim8xjNvp4c9lAzF6zjJscNuB7Zs/x5K5H+MPy8Vw7qL6wT8eHh4enpcHvyQDQEXCdRz9LQDJRXKIjTth5IwFsLdsyntteHh4Xnf+mfFdgfTQS7jgF4WMUhFMLPpizOR30as1Xyzz8PDw/B3wBTMPDw8PDw8PDw8PB/ySDB4eHh4eHh4eHh4O/tMFc3l6FB5mv+qngGRICX+AtHofG/pvoXn8bHESohIKX9LzWeqPzxYl425gMKKzygFZCsIfpNX7wtyL4+WO7/mRpYTjgSoF/SthIH0Uhccy5d9ff/4uP3qh/vES4+xfBVuE5LuBCI7Oeg5dyZASGYfcV+0wzeTv8uvXCxbFSVFIKHy9tfBSa6jXMDdwF8yVSfA9+hUWvTcMQ+2GY9LHX+PwlRgUK7f7h8EWhuPESntYWY3E9sBX+xAQm3wQ8wYPwaJjWf/JhMA5fiYNf+52woDOb8PxYJyGjyQ8G6qPz+Cx1+dw2XkRwee/hIOkJ6Ysno7BQxbhWFYjKZ+dVzC+WtgUHJzeDX1mHkRcc1ycTcbBeYMxZNExvMihv44wKX9i97y+6Nx7IU6mNP4K22vLq/QjZV6of7BIPjhPdZxV3MKGId0wfLUPcp77OP9smMde+NxlJy4Gn8eXDhL0mnMcj5vlrixyQg7DdYQVuo3dhZDm5IPnphJ3fvoWV5rywY9X5teVCNo8DN3sluOSst+9BjBpf2K30wB0ftsRB+Nenhaeh5dfQ3Hkhr8T5RczN6acbn5iQSLt4bT7Mferx/9JMKnf0ygdE5r1u+LzEC8NJofu3kmgutedl1Dy/QhKfcmHfX3RMP6KQFop0aG31gRThfK2Z6EJ+meyfqGp7d+jg/lExOTRDbc55LL/Bt2PSK3+eMgL5EWPTw1M+n4a32MWnUxu/ov2S5LvU4RaA/27KP/zU+qk04+2xTRfT38rr8iPVPFC/aMkWWWcVdxeTf0Gb6AA5S+c/NdgsuiXqe3pPUVyorwbbjTHxZMeNttd5ZSwayjpvLGALigr+2UiPUtz2xuR/b7H9XIwB6/CrytC6Iv+A2mtX4HylteGisCVJNF5i9YEvzQtPDcvtoZiKOfuHUqo7yRqcsPfCfcVZgCACEYmRhAKjNCqdROa/0MQGhnCQO2nOl8cstDvsenoowafxLWw6YMOug2a/YfQMH6RMYyNXpxhmqL/ypAbCJQZwEgXgLA17Dcex34Xe9j06QB1Yj4zL3h86iiNYTH+qAdmWTT/rQoGFjboo9ZA/y5EBoYw+CemtVfkR6p4of5hYKEizhikpryJz09txbCWDTb896gMwY1AGQwUyQmt7Tfi+P4FeKvZYS2CoaEBXq3HsEg5fRTXikoRcPgIIptysfQV+DXz5DHarzqN7SNMlDe9NoiMjfGS1fDcvNAaShaK7zcdxaP6PqIyN/y9NGOqaJpmGGkS7t4KQEhcDpQv1LOFiQj1v4WI1CLkZ2RC/bJBFgUPA+Dj7Q1vb2/4BMajiAVQnIDbV73h7ROAW7euwsfbGz634lDIAkzGPVz19ob31RA8Lq3fVykyom7DL+AeUorrXdoXClSPiJEi6e4tBITEIafxAJAY6o9bEakoys9ApvoBAGCRG7IX8+fsRlhyBK75+CK6evFYeXokYpVuM5RmROG2XwDupRQ3XKogS0VUfD5YVCI7JghBsTmNb1WVZiDqth8C7qWg/hCbtK8SbGYErvt4w9vnFuIUisW9q97w9r6KkHqKlaVGIT6fBSqzERMUhNgcTT3XoWr88oIEhPkHIDytrMHvtTR7jE3RfwVSw67iWkgiipg8xN7wxtWghOolR+VIj4xtdNu5MicOwX5+CE2QosFdUXk+HoX64qbfHSQVNr5fqml8XHFTmhqFuFwG5RkPEBZX0PC49ahvuyf9XfBx36fPZrvydETGKi2ZqcxBXLAf/EITIFUWgCtmmgKbiYjrPvD29sGtuEKwYJBx7yq8vb1xNeQxaiVXa+sa5Mh/FArfm364k1SoVk8NENTkAYI89yFCQmKQpbRoTq3+lX2SLcDDAB94e3vD29sHgfFFUKSt27hancdqlyQq79tENPmR2n45c1clcuKC4ecXioQGxi1FalQccplyZDwIQ1xB9TYl/2CLHyMmqRgsI0VCSABCE1ToXq3/qI6z1gOHol3qHcQ1cigZUqPioXDfGAQFxULZfRvDIj/Gr3Y+uRqarPCp0mSEXvWGt48fYvLVGOFv9M2K1DBcvRaCxCIGebE34H01CAm16yHVzGuAWnsKBHUzXmVWNG6r0J08/xFCfW/C704SVKSx5iF/AM+LbbB121joR/8CD1/1E6Ymv1Y3P5amRSrW0DKFSLobhPDUmmNUIjs2CIEPMpTWwMpRKO+MXm1ScF/ZDpwx0hxU6x8a9StHQUIY/APCoUoN3PsqoSkXBdzCratN8GtAva+pqaG45jJVsLkh2Dt/DnaHJSPimg98o3OrbawqN6iRpUl5Qd2+TacZBbMmChHynRMc13ohKjUeF1YNQw8HN/hWFymVkXvh5HoKafJyxHrOxqAPfkZyowHVIIRBax3E/bQQEyfvwH3j9oqrQPpvoEXYHuy+q43OXTsi+5fFmLzoMGLlgKhVB5jG78XsSSvhlaHwJjbTB9sWrYKHfyTunFkFO8lwbLiR33jtbDWFId/ByXEtvKJSEX9hFYb1cICbb7XxKiOx18kVp9LkKI/1xOxBH+Bn9QMA2EJk5OvBpAULtkKGwsIilOSF4/TnY2HVZTi2BlSHMZsJn22LsMrDH5F3zmCVnQTDN9xAvjwXYceWY5SVBOPcT+PwYgeMnzUX4617YYpHQnWgs8j02YZFqzzgH3kHZ1bZQTJ8A27kZjdhX9UIW3XEm9m/YPHkRTisUCw6mMZj7+xJWOmVgarcMBxbPgpWknFwP30Yix3GY9bc8bDuNQUeCVw9A6xUxfhRiqiDc+HgfBgR6Qm4uN4VHo/q9/OMY2yS/gmVsiIUyqoAqoKsqBCFT0uRf+80Ph9rhS7Dt6JWTDYXfjvmwen/biAlJxL7JknQz/U8MlmASTqB+YOm4fsHecgKcoeDxA5bg2tSjqbxqY8bNicEnstGwUoyBlsO7MQHdkMweMACHM+vt3s9ntt2rBThpz/HWKsuGL41oHqiYZHrtwPznP4PN1JyELlvEiT9XHE+UxFFnDHTVISt0PHNbPyyeDIWHY6FHCK06mCK+L2zMWmlFzKqmhALTBJOzB+Ead8/QF5WENwdJLDbGqyU+NVByL7siiE2Q2Bv1wuduk/G93dLOPSvxielemitE4efFk7E5B33YdzeAIq01QJhe3bjrrgV9IVq9lVXsNWiyY84+uXIXWyuH3bMc8L/3UhBTuQ+TJL0g+v5dGSFeGLZKCtIxmzBgZ0fwG7IYAxwOgDf+v7BpCFgnzMGWPTArH0nsXVsXwwc8w4Gd5dgtNttFFXLpdp/5JCGq4izwhB85+SItV5RSI2/gFXDesDBzRe5LIvcsGNYPsoKknHuOH14MRzGz8Lc8dboNcUD3KlHCL0WMlzfOAMTZu1HsmlbxVUr3dYQ3d6O9ZdkMG6hZir8G32TKmUoKpShCoQqWREKC5+inGE55zXV9sysF4+VePzrCsyY7YLFk23Qa+ohJCqERNKJ+Rg07Xs8yMtCkLsDJHZbUZvGnoGSawcR3MsZTgucMantE/x+4JyK9ega/FrN/JibdxcnVr0DSdcR2OJ1Fptnz4TTR9MwuPsgrPK5i+OfTMDUBUswfVB3DNtcrWsuO3DESHNQr38N+i2NwsG5DnA+HIH0hItY7+qBOjVo2FcVQgPuXKTdGV07cvh19bG5fK0x6ucy9bAozMiHnkkLsGwFZIWFKCqtVJkbVMuSi+wm5AXV+6obBwfKazQaU0V3NvQiLZ2JdOSp8rY6pFeWkKT7cvKvWXAiC6RV3bXJbOavlMVUUNDqnmT9RYhiPQqTRSe376OYqoZ9KFMVtY3665nTgvPVC9mYDDry6RryLiYiklPs9gGk22013a5e5lNxezV10xtMX/8lJ2Ky6fTsUbQ2pHojk0J7RmiTls0mCq8ioqdHaKJuvfU30iu0RNKdltcNgAJXdSdts5n0axZDFUGrqaf1FxSiGABlndxO+zQNgMmgH+x1ydz5CpXX/JT5I9nrGNGMMzIiYij79GwatTaker0WQyl7RpC2lg1tCq8ikifSN0O1yajfMjqfVEFEhfT7bFPSsfuGEuVETPZpmj1qLdUNcQ+N0NYim03hVKVhXy7ksdtpgG43Wl2nWFrdTY8Gf/0XyYlInvgNDdU2on7LzpOi699ptqkO2X2TqHGdWsPxE8kC11BvywV0XlrdoOQSLTTXql3D9lxj1Kh/BbJfJpOusSN51f7EUOaP9qRjNIMUzRjKPOVIVg4/UgpDRFRF0d+MoFbt59O5Ejk9/Gog6dtupagqIqoKo3U9dcl6UzhVNWF83HGjGO9IbT3qtewa5Uhj6IbPA8rneJTguW3HZNKP9jpkNOMMyYiIyTxFjlYO9KNi4FQV/Q2NaNWe5p8r0RgzzUIeS9sH6FK31berY6GCbq/uRnqDv6a/FIJz2lr+8CsaqG9LWxVGoLB1PUnXujrWOagKW0c9tc1p0t4wypcTlUQdoumdtEinnxtFVqnWf24mh09SFUVt60965guoLm0doU/XeFOxJn+uE6sRmvyIq1+ZutzFZNIpRyty+DGFFG4dTd+MaEXt55+jEmIoZc9I0tbrRcuu5ZA05gb5PMgnRsk/qCKIVnfTIrPRm8nnSRWRLJYOTTUnkbYtbXlQxe0/jeJMSleWSKj7cv/adYuywFXUXduMZv6aRQzJKfGboaRt1I+WnU8ihfvOJlMdO/pGU1IjIpn/cpLodKc1QdXZgMmiY3Nn0oFUDb76N/kmERHJfqHJusbkWJOcuOa1Ci57EuUccCBdw8G0wT+HGCIq/t98MtMdQd8mM0Tyh/TVQH2y3RpFijS2jnrqWivmoWeBySDPGRPomzg5EZVTwAoJifWH0+6/GtqJ26+550cm4wey19GnQev8KVNORBX3aaO1FrUc/AVde6LQdfhGa9KxdCXfcm47PNP8rgxXPHHqV0aBa3qT5YLzVKeGhWSuVb2GmXNfLrhzkUa/5vK1qsY1lKa5TD0MZfxgT7rmznSlZqJWzg2csmjIC5z71hyvaag5rW4uBbh46FekWfWBTc2CE/2BcJwiQd6lU/AuFMNcYoGUbydh+PyvcDZGC44bPkMPsVI3Soh7LITLO6U45+GFdBZgHp1G6BszMLqFcksVlPrhnE86Hl3aDXd3d7jvPIkyhy1wm2cLPeW2AAouHsKvaVboUzcADHScAkneJZzyLoTYXAKLlG8xafh8fHU2BlqOG/CZpgGoQGhoiBa19zFK4XfOB+mPLmG3uzvc3XfiZJkDtrjNg60eAFELtDAQwdDaAQ6dtQEYQNK1A4RFhSggoNTvHHzSH+HSbne4u7tj58kyOGxxwzxbPY37Pg+iFi1gIDKEtYMDFF1L0LWDEEWFBdDUdcPxl8Bn/1Ek9RqJUcbVP+l2RiezugV6L3qMDY+vDiEMDVvUu90khfdpH+jY9EM7IQCI8fZqP+SnH8UUAxEkLscQcNIVndL84LnzCEKkLCrKysFqHJ+muAGEenrQFhqhn/0wtDXuAXuH3mj1HFGr0XZCQxjWU5DU+zR8dGzQTzFwiN9eDb/8dBydYqAxZl4oGmwtkrjgWMBJuHZKg5/nThwJkYKtKEN5Uy4hiMzQ374vWokAg54fYfdKOwiiAnArj1Wpf90ADp+EGD0WuuCd0nPw8EoHCwaPTofijRmj0UKTP6tFkx9x96s2d0m9cdpHBzb92iluNYrfxmq/fKQfnQIDCKGnpw2hUT/YD2sL4x72cOjdCkIl/4BQD3q6IrQdMhn25mJAvzucti6CNUXB3z8b+Rz+0yjOCi7i0K9psOpjU7tuUX+gI6ZI8nDplDcKIUKLFgYQGVrDwaEzFO7bFR2ERShUF/D10B/qis/s0nHs27PIZgEmxQuXtaZieofnCCi8ZN9Uhmte47RnNfpvYeCAthAC0O3YEaYohFTKAiIJXI4F4KRrJ6T5eWLnkRBI2QqUPZOQAPPwKLwE0zG3qwiADgYvnIe+TDA8f75b7za9Jr/mnh+FLQygL9BG57790E4EQFsCKwsx0KEvhpqLAYjRyaI9BEVSSDXYQW2MNAcu/XPpt8QH+48modfIUahTQyfUqoFrX064c5FGuHxNuW0T5rLmoZQbOGXRkBc4920ez5kpqmGykfqkFGxlZb31QmJ0sjCHsLIQ0qdAx4XHcf2AIwz9d2BG324YsuwcUjlvowEQmmGGyzQY+nrgcLQMYb8moudsGzTlo7ZscS7yy3TQfcoarFu3rvZv7fJJ6NYoDhhkpz5BKVuJynoLnsSdLGAurEShYgA4fv0AHA39sWNGX3QbsgznNA5ABQIBapeSscXIzS+DTvcpWFNPxnVrl2NSNzGAem0VO0MkEgDEgsCiODcfZTrdMWVNvX3XrcXySd0g5tz3Oald91nzfxEUXTeh5/rjZ9IQ91chIBKrccSXMMb6x+dAUH+MTD5y8spRWCBV2a9QXIaIvYvg4pmBPh+5YLSZUNFO0/g0xo0iITZB3Kaj0XaCemsdGeTn5KG8sADSRgPXHDOa0nnzULabkq2FYpRF7MUiF09k9PkILqPNIGwkc1MQoq1lZxgLGMirFL801L8mnwSEZjPgMs0Qvh6HES0Lw6+JPTHbRrtJ+6pEkx9p6FdbTe5i8nOQV16IgsbGrUaV59X3D9WIu7yNrgZAVUUp8tT6j4L6ccZkp+JJKYvKhg4FC3MhKguleMo2XIcLAAKRCAIQmpJ6ILLEvBXToXv5WxyIKkfMCV+8MXMCWim3azavyje55zWrIk32VEIkhAg1fi6EuCwCexe5wDOjDz5yGQ2zZxUSpbh16BKKhbex+RMXuLi44LN9KTDtooX4EwdxtWYdtia/1jQ/KucyCCAUoEGOFgiFQM3HjDnsIFQTI82BO57U65dJi4NCDSq1wLmvJtTnIs1w+VqjGqqJc1lzqJ8bNMnClRc07dsc1FmoiTBIPHUUN8rbo2sXIzAxd3Gvdl0Ni8qKSgjf7AMbM0Ja9BN0cNqLm3ExuLi+N1L3u2LHjYqG3amgxVgXOElicORbN5wuGoGZlnVXVURikYriiEAMIDRqDzP9OHgdvom6V0AySPK+rOJpXRHad+0CIyYGd+sGALayApXCN9HHxgyUFo0nHZyw92YcYi6uR+/U/XDdcQOaR8CB0AjtzfQR53UYN+u9p5JJ8sblxkIqIYRRezPox3nhcMOd4X05UuPDfZyIxBCpmISImpdANCJohTatxCiPvocIJUUSy77cMTYH0RvoaK6HbO8zuFpQ8yOLfG8PnIwvwpUVk7E+fzp+2DYLtqY1EUiaxyfSFDfPEJ4v1HYivNHRHHrZ3jhTN3Cw+d7wOJmANzTETPOkF0ERzo0E51xzX0PJlRWYvD4f03/Yhlm2prXFZ9OmlYaU5uahrKM1+r6hagRN8ckWGOviBEnMEXzrdhpFI2ZCkbaasq8KNPmRhn4r1OQu+RsdYa6XDe8zV1Hn1vnw9jiJ+KYovR5E9SbEqlKUs6bo3rMD2qv1n/hGdhW174ouRgxi7t6rW9/LVqKiUog3+9jgWcJBmZYOy7Gk90Mc+toNP95/G3NG6Ss3UcHr45tc81pM6+ewZ8kVrJi8HvnTf8C2Wbaon8aaC5t7Hj8/dMCPv3jgwIED1X8HcXz7NLTN/gOHfqteU63Jr59rfmwMlx0YNTHSnPldxBVPRer1K2jVBq3E5Yi+F6F0PALLPq9t1OUiaPRrLl9rpP6XMZfVo1myKPE8+yrThFGwqCyvBFEZykobniWURh/AlmA92Bq0xISlLuglPYs9nvGKWy5sFq77pWHo0k8wTIdBmtcueNwvBXQ74b31GzG9kz50dLmvVAAAxDZYuHgY8k+dBU2cgNa1G0QwNW8H7fQQXLufjZyHl7H/6G3ky3OR9jgPxaIxWDCrM5I9HDFytht+9jqLY+7O+CLIAJZiAAwDBgSWVYyp5YSlcOklxdk9nohXDABZ1/2QNnQpPhmmAybNC7s87qMUuuj03npsnN4J+jq6Kq/B1CLUha4O8DQzAwW5oQiMLAVYBixVBwIMMGbBLHRO9oDjyNlw+9kLZ4+5w/mLIBhYigGWASMnsPVOCogUyYRlAYMxCzCrczI8HEdittvP8Dp7DO7OXyDIwBJiDftyITI1RzvtdIRcu4/snIe4vP8obufLkZv2GHnF5WAZBnJi6wUagap1qaHrhuMXtsXEuRPQJukwVqy/hNRKoCLlPqJzGEjTU5BVVPp8Y9SofwWVlVWgykpU1PuNZVgQ1YynJcYtmIEOWcex5P3l+MnrD5zc/SmcvMQYYlmCxKRslKTG43FJOdL8LyI4k0FpUSYi7mRrGJ+WhrhRyEKQo6qJgf38tmPBsFRdiAEtxy3AjA5ZOL7kfSz/yQt/nNyNT528IB5ihVYaYgald7Bv/gR86HYV1c8IqkdkCvN22kgPuYb72Tl4eHk/jt7Ohzw3DY/zilHOaWsWRYlJyC5JRfzjEpSn+eNicCaY0iJkRoQiukTpWMpQKYoKq6eq8igcPpGIdzcuw+DqCzHK+uf0yeo2YpuFWDwsH6fOEiZOqMtaTdm3Ec8ZJwJ1uavlOCyY0QFZx5fg/eU/weuPk9j9qRO8xENgJYJiRpZXKRXyDf2j5rfclGQo1Mwi48IFRPZ0wSejdTn9R6QcZy0nYKlLL0jP7oGnwqHAZl2HX9pQLP1kGHTAgmHkILbeCaHCCWrzuEbEPbBo+QRU/fYdYgbPga1apdfj7/TNykpUUSUqa5KTAce81prLntU6anSBSfE7W5SIpOwSpMY/Rkl5GvwvBiOTKUVRZgRCo58i//pWOH64Hb4aP0AiR8zBQ3g6eQF6KenW+L0FmNaxBNd+8kBkZVP8WsA9PzIs2JqishoCQDVXlGv+zbJgwG2HyHg1MYJS3Nk3HxM+dMNVTUmMI54sS9Tr9072aMyd0AZJh1dg/aVUVKICKfejkcNIkZ6SBWmW+n1DNTqQ+lyk0a+5fK1RDaWpBqwnUCOE0FVM1MgoyEVoYCRKlXMDpywa8gLnvg0l0YjyouYGVCSS7zF3mi7RIoFAm8z6jCKHceNo3DgHsrfrTe31jWnK0ZzqxlWUfGEDTbK1oZEzF9HHH80ll2/9KZshxWLy9UOoi/U75PT5FnJbu5gWu9/UsBC8HtI/aOEEN3qgvED7aSBtH9ORjIzMyWb6LvK9soZsu46g+VtO0J08hkgWSydcR5OViQ5pG3WkoYuPUrSMiMri6NImB2onEpHFlB10PlrxNGNV8gXaMMmWbEbOpEUff0RzXb4lf8UAqOL2ehrSxZrecfqctritpcWL3emmxgHIKeHIhyQxaU2SKbspJCuWLm4eR+1FYuo0ZQddji8nIhnFnnCl0VYmpKNtRB2HLqaj0TIiKqTIs+vJ3lREWpKZtPtKDMXf8qSlQ4xJqG9DzocCKZ0hksWeINfRVmSio01GHYfS4qPRJGvivup5SoHbx1BHIyMyt5lOu3yv0BrbrjRi/hY64RtAZ9fbk6lIiyQzd9OVmHi65bmUhhgLSd/GmQ4Fpit3VkeJivEzUgr70YkGWZiQcad+NPGzLbRwUGcaPOtLOhKcSUTPM0ZN+i+hpJs/0VK71iQUmtKoNR70W/ATKoq9SJvHtSeRuBNN2XGZ4stJYaeTrjRa0pYMW5pTv1m76VYOQ0QMpZ9bSgPaGZJJl+HkvN+XfnGyIGPLCbQruLAJ41MfN0z+fTq97h0yE4nI3GEDnb6bp3iYhJPnsd1fFHtxM41rLyJxpym043I8ERHJYk+S62gJtTVsSeb9ZtHuW4qHhkhDzDDpR2hqO2NqYzqU3KKUg7cxTwO305iORmRkbkPTd/nSlTW21HXEfNpywpcCfuO2dVraOVo6oB0ZmnSh4c77yfcXJ7IwtqQJu4KJ89sXsr/owvY5NKL/cJrs9CktXfQJbbuYSGXErX/VPtkQ6R8LaYLbg0YP8zVl30Zo9CP1/XLmLlksnXQdTZK2htTSvB/N2n2LchiG8u+fpnXvmJFIZE4OG07T3TyGiEoa+0dVOG3so01mg2aQ86craOWnc2iq45d0MaXu4S51/lOiKs6qkunChklkazOSZi76mD6a60Lf+mcTQ0SFkWdpvb0pibQkNHP3FYqJv0WeS4eQsVCfbJwPUSB3Uquj3J+W206kg01t/zf5ZlXSTfppqR21FgrJdNQa8vgtmJ7IFTZTOa+ROnsSFT74jb4YpdCd4zeXKDougA4vG0rGIgOyXeJJIRlpdG7pAGpnaEJdhjvTft9fyMnCmCwn7KLgQjkl/DiO3mg3gQ4kcTxcyWTSrZ8Wkm1LPXp79i46F1lvdEwBhZ9ZT2PMRARBC+r54Vd0Mb6iCX6tZn4siaULm8eRuUhMltN20sWoFIr4YxtN6igiseVUcv/fA3p814s2vWdOInFnmuruTY8eq7dDjroYYdLpyNR2ZNzGlIa6RdUfrWrU6J+YdA79EjHSMPrRaRBZmBhTp34T6bMtC2lQ58E068sjFJzOZRtlAVSjLhep9+s7lMdw+JrKGkr9XKYJecIR+lBiQq0lU2h3SLHq3KBGliblBTX7NhcB1T8d4+Hh4XmhVCJw/Se45+yBZfWWU/H8S5BHYFO/wTg/MQj3ttmov0r+GsGmHoDTjrb43mMaXt9PV/C8TlQGrscn95zx8zJL5U08/yGasCSDh4eH51lgkR90EJdaz8E8vlj+l6PhdvXfDoOSAinK2RIE7b8Osznj+WKZp0mw+UE4eKk15szji+X/OnzBzMPD81JgpVGIYCdgy6qRfHHyb0VegIKnDIrypU36qtffhTxyB0aamcK03VtYWjAPK4a+Th/c5XltYaWIimAxYcsqjOST2H8efkkGDw8PD0/zqUjA9aO/ISC5CHKxMTqNnIEF9pZNeu3nK0eegqsHTiK6zVjMm9EPbflLRTw8PM2EL5h5eHh4eHh4eHh4OODPs3l4eHh4eHh4eHg44AtmHh4eHh4eHh4eHg5eXsEsS0H4g7R6n0l8tbDFSYhKKHztn93maQ4sipOikFD46q0qSwnHg7S/y5v/DbwM272MPv+m3MUUQlr0gsfB85ogQ0pkHHL/zeYtT0fUw+xnnm/ZIikKNX2NkIfnb+YlFcwskg/Ow+Ahi3As61lD6Blh0vDnbicM6Pw2HA/Gqf/cLM8/CibtT+x2GoDObzviYNwrtiqbjIPzBmPIomN41e78b+Bl2O5l9Kng1eeuioRz+Pabi/jrRQ6D5zWARU7IYbiOsEK3sbsQ8jq/RuRZYQsRfmIl7K2sMHJ74LO/KaU8Cqc27cDZxOZ8jFpBZZIvjn61CO8NGwq74ZPw8deHcSWmWLkZz3+ByiBsHtYNdssvvZS5+iUVzEJ0WvwLgoMOYX67l3QIdYg6YLTrIoxoTU371DrPi4fNxb27iXiRFwxEHUbDddEItP47nlEVdsLiX4IRdGg+XrU7/xt4GbZ7kX2yufdwN7HGW19t7mKST+GzzY8wevlcDGj98o/H8yoRwnSQE5ZP6KK84d+D0Bg2s1ZgsuT55lvhG8PxyZohuLPqU5xJbd7MoW05Ck6rPkTntFDcEYzEF58vxHtvGyo343kmWOTeu4va9Pi6oKbGqAy/AO+q97Fj84SXMle/hC6rMbCATZ8O+FvedikyhrGRQPlXnleELPR7bDr66IVf3RcZG+PvMquBhQ36dPhbvPlfwcuw3YvpU4bQ7zfh6KN63vqqcheThEOu3wAfusD6pR+M5+9BBENDAzy3m77OCI1gaPACRmg8Cp/PqcC2zw7jsXIlpAmREUyMhBAYtQJ/3vkCkYXi+01HUT89vg6orjEYPHncHqtOb8eIl/TObNGWLVu2KP/YCHk+Ht0JRURCHmDcDia6dR7JFiYiLDQGeUJjaMmkIEPD6vdwliM98hFK27ZFi9pYKkdmdCjuPyqAoKUpjHXrB5kMqVGPIW/bBuKcGIRG5kHHrC0M6jm/PP8R7oRGQCGGCeqJodhekIC7YdHIEQjw6LcjiOrshI/HvImab4wx0iTcvxuF1DI9mLYxqP29MSwyI27gdvgjJGQxaNOhDbQy7+F64AP8lZQPcfs3YaKFJsmsGjnyH91BaEQC8mCMdia6SmcupciICsO9+FwIWrWDsU6NnkqRGpWIyjYtUBR1H+na7dBGT7Gn+rGxKH4ci3RxGxiVJiLszl8ob2mGVrpCsJkRuHE7HI8SssC06YA2Wpm4dz0QD/5KQr64Pd5UDFJx5IwohN2LR66gFdoZ69ROAKWpUUisbIMWRVG4ny6GKOFnLJ7jhiCtbujZSo6qlhYwNRAAYCBNuo+7Uako0zNFGwP12m+IHAUJdxEWnQOB4BF+OxKFzk4fY8ybNfur0xUXXLKo0XF5OiIflaJt2xZ1k195JqJD7+NRgQAtTY3RwJ0BoDQDUWH3EJ8rQKt2xqgVTZaKqMdytG0jRk5MKCLzdGDW1kD92Subjxj/ANx7+BcSEpJQoNUebxproTQ5FH8GRyEhvRImHU2hr3T8ptpXlhqFx/K2aCPOQUxoJPJ0zNBWyYnV+xcXL8N2z9oni8LEMITG5EForAWZlGBoUISQfc6Y4xYErW490UpehZYWpjAQNM5dL0NHJdfXYe7Bdljx7QxI6kKNI6dy+JRaOHINW4jEsFDE5AlhrCWDlClBYsBthD9KQBbTBh3aaCHz3nUEPvgLSflitH/TBFoAUJqGyIRytG2rh6Kk+7ifLEcrs5bQBlCZHYvQiAyITNvBUOk72epyCCeydESGRSBJpgfTliVITSO0LHvYJL9Gs4/ZlHzOlTtUU3rvJPb4GWL68snonBeNkMg86Gqc21jkx/gj4N5D/JWQgKQCLbR/0xhapckI/TMYUQnpqDTpCFPloG9AM2LBsO7t2ZU5cQi7E40MeUuYtdKr8xe1dUAVHvz6Da7qvI9V03pUfx69GX5Hhqg5vJ6FECHrNuOuzUKMt2zGG73ZDPzpcRhBJhPx+YfW0FHe3gAuG3LrRhWNbVd/qzobqJlnOPPIy53LUZqKqMRKtGlRhKj76RCLEvDz4jlwC9JCt56tIK9qCQtTxcmfehk15C91qMtrjXzFAOX398FZVY0hlyK3DJDn5TeqU5uSv5uCxj2YpBOYP2gavn+Qh6wgdzhI7LA1uBQAUBm5F06up5AmL0es52wM+uBnJMtZSMNP4/OxVugyfCsCap6cKQrGrikTsTmkCjpFl/HpoO7oP2osxk9zw7mAY1g+ygqSce44fXgxHMbPwtzx1ug1xQMJDAAwSDoxH4OmfY8HeVkIcneAxG4rqsUAUIqog3Ph4HwYEekJuLjeFR6P6p+iFiLkOyc4rvVCVGo8Lqwahh4ObvBV+xSGEK06vonsXxZj8qLDiJUDolYdYBq/F7MnrYRXRhVywzTJrAYmCSfmD8K07x8gLysI7g4S2G0NRs1Q2EwfbFu0Ch7+kbhzZhXsJMOx4UYuskI8sWyUFSRjtuDAzg9gN2QwBiw4jnyOsTFpAdjnPAAWPWZh38mtGNt3IMa8MxjdJaPhdrsIwlYd8Wb2L1g8eREOKwaJDqbx2Dt7ElZ6ZShud7CZ8Nm2CKs8/BF55wxW2UkwfMMN5GaFwHPZKFhJxmDLgZ34wG4IBvefi4OP9WDSggVbIUNhYRFK5QAKQ/CdkyPWekUhNf4CVg3rAQc3X80PwZRG4eBcBzgfjkB6wkWsd/VAfbOq1lU+94MnamVhkaNKx04H4Hv6c4y16oLhWwNqHwQrCt6FKRM3I6RKB0WXP8Wg7v0xaux4TNvui1KwyPTZhkWrPOAfeQdnVtlBMnwDbuRmI+zYcoyykmCc+2kcXuyA8bPmYrx1L0zxSGh0e6kWoR5ayK5j44wJmLU/GaZtFZcjdVuLcHv7elySGaOFikjWZN+q3DAcWz4KVpJxcD99GIsdxmPW3PGw7jUFHrVOrN6/OHkZtnvmPisRudcJrqfSIC+PhefsQfjg52RUFmYgX88ELVgWFbJCFBaVIE8pd7EvTUfFuH7yf8h8uz/617u6rDqnAlDnU/kcx+DKNZWR2OvkilNpcpTHemL2oA/wc6oROr6ZjV8WT8aiw7GQQ4RWHUwRv3c2Jq30QkZVAe6eWIV3JF0xYosXzm6ejZlOH2Ha4O4YtMoHd49/gglTF2DJ9EHoPmxzXX5Wk0O4RAdKEXPUBePn7sTVmDgEfDsTNp17YOrBOLAa/Jorb6k+Jtu0fK42dyh1p5JKPP51BWbMdsHiyTboNfVQ9W1udXObEHotZLi+cQYmzNqPZNO2ijseuq0hur0d6y/JYKwq6KtpbiwoXCwXfjvmwen/biAlJxL7JknQz/U8MlnuOqARzfU7hYMr0LOF7VvpOHfyJmT1unxhcNqQQzcqUWc7xVbVNnj95vJ8eQ5CPJdhlJUEY7YcwM4P7DBkcH/MPfgYeiYtwLIVkBUWokgxmauVEZz5Sx0ceU2VryTlISO/cY2hzj+blr+bAXEip4dfDSR9260UVUVEVWG0rqcuWW8KpyqqoKDVPcn6ixAqIyJisujk9n0UU0VExFDmj/akYzSDzsiIiKooalt/atFvG8XIFf+//2Vv0umylPwqFMdJ/GYoaRv1o2Xnk6iCiAp/n02mOnb0TaKcSP6QvhqoT7Zbo0ghxjrqqWtNm8KriIhIFriGelsuoPPSarFLLtFCcy16a00wVRCR9MoSknRfTv5l1dtlgbSquzaZzfyVspjq3xohp9jtA0i322q6XaH4peL2auqmN5i+/kuuWWY1yB9+RQP1bWmrQqEUtq4n6VpvovAqImKy6fTsUbQ2pPqATArtGaFNWjabKLyKoZQ9I0lbrxctu5ZD0pgb5PMgn/I1jK0iaDV10zKj0Zt96EkVkSz2EE01F5G27RZ6UEUkj91OA3S70eq6QdLqbno0+Ou/SE4MZZ+eTaPWhpBiK0Mpe0aQtpYNbQqvIiZlD43U1qNey65RjjSGbvg8oPyqDPrBXpfMna9QORERSenKEgl1X+6v8BMikgWuou7aZjTz1yxSq36SUeCa3mS54DzVmXUhmWu9RWuCKzToqn4/9dEki2odM0wm/WivQ0YzzpDCnaNoW/8W1G9bDCnc+T592VuHuiz1owoiYrJP0+xRa6lOtD00QluLbDaFU5U8kb4Zqk1G/ZbR+aQKIiqk32ebko7dN8ThNkQkI//lEtLpvoaCFIolJusYzZ15gFLVK1GDfYnkid/QUG0j6rfsPCnE+Z1mm+qQ3TeJJH/m2HkZtnuOPmVBtLqnNX0RohgEk3WStu+LoSoiYjJ+IHtdc3K+Uq3URrnrJemo4jat6qZFby72qY4TIuLIqZw+Vbt/Q7hyTUXQaupp/QUpVMJQ1snttC+mikgeS9sH6FK31berY76Cbq/uRnqDv6a/5ETEZNAP9jqkP2gd+WfKiaiC7m+0Jq2Wg+mLa08U+Tl8I1nrWJKrbzmRhhyijuI/l1NPmzV0u9oGVBFEq9/SoZ7rwqhKo18/yzE15XNNuUM9OQccSNdwMG3wzyGGiIr/N5/MdEfQt8mM5rnNfzlJdLrTmrqgp2NzZ9IBrqB/plhgKPOUI1k5/EgpDBFRFUV/M4JatZ9P50q46gAioqd0ZKIumcz6ncqe1e9qKaNzc9uQ1ltrKKha/CZRdYc29NIinYlH6Knytlo02LBCnW7UwGU7Lhu8hnM5MSm0Z6Q26fVaRtdypBRzw4ce5FdRxg/2pGvuTDXpkTvXqc9f6uDKazJ1vsIo1xjc/qkpfzcH9aeoAAARJC7HEHDSFZ3S/OC58whCpCwqysrBQgxziQVSvp2E4fO/wtkYLThu+Aw9xAAghKFhvVvXkCM5KQ2VQkH1b2J07twByEhGcpniOC1aGEBkaA0Hh87QBmAg6YoOwiIUFhAgksDlWABOunZCmp8ndh4JgZStQFk5C6AEPvuPIqnXSIwyrj6cbmd0Mqu5SVCAi4d+RZpVH9jUXMnRHwjHKRLkXToF78Lq35qNBpnVIJK44FjASbh2SoOf504cCZGCrShDOQug1A/nfNLx6NJuuLu7w33nSZQ5bIHbPFvoQQg9PW0IjfrBflhbGPewh0Nv4LKGsQn19KAraoshk+1hLgb0uzth6yJrUJQ//LM1XRophd85H6Q/uoTd7u5wd9+Jk2UO2OI2D7Z6ir61hUboZz8MbY17wN6hN1ope1TBRRz6NQ1WfWxq14TqD3TEFEkeLp3yhlr1l/hg/9Ek9Bo5CnVm7YRas3LqSg0aZVGl41YQCg1hWLeuCJAnIymtEkJB9W/izlC4czLKAJT6nYNP+iNc2u0Od3d37DxZBoctbphnqweIWqCFgQiG1g5w6KwNwACSrh0gLCoEh9sA0MdQ189gl34M357NBgsGKV6XoTV1Ojoo67wZiFq0gIHIENYODlCII0HXDkIUFRaAnjV2XobtnqdPsTkkFin4dtJwzP/qLGK0HLHhs5pbx8oo566XpCN5GtIygRYtW9Y7lvqcyulTauDKNWJzCSxSvsWk4fPx1dkYaDluwGeK5M2NsAUM9AXQ7twX/dqJAGhDYmUBMTqg71BziAGIO1mgvaAIUilpzCGqKcLlAydQPHAsbPWrfxK1REuOK6oNeZZjasjnGnOHBvTfwsABbSEEoNuxI0xRCKmU1TC3AfpDXfGZXTqOfXsW2SzApHjhstZUTOcK+meKBSm8T/tAx6Zf9cNSYry92g/56UcxxYCrDmjM8/mdAMYtDUEZyUjlvDL5DGiyoVrdqIHLdlw2UDnP/L1zOYR60NMWwqifPYa1NUYPewf0bjyZa8h16vOXOrjymmZfqYHbP7nzd/NQ1kgjhOIyROxdBBfPDPT5yAWjzYTVBxGi48LjuH7AEYb+OzCjbzcMWXYONQ+4CgQ1xTEAaGPghLF4I/4mrj5mAFTgYVwKTOwnYkSLuvb1EYhEEIDAEgAIIS6LwN5FLvDM6IOPXEbDTFg9VCYNcX8VAiKx6sEw2Uh9Ugq2srLee1XF6GRhDmFlIaRPNTmaerhlVoNQjLKIvVjk4omMPh/BZbQZaobCFuciv0wH3aeswbp162r/1i6fhG5iAMor8J5pbGJ0ebsrDFCFigouQQGwxcjNL4NO9ylYU0+edWuXY5JCIGWJGsFkp+JJKYvKynpvtRV3goW5EJWFUqgUEQCTFgeFWVVatQm6akzTZFE1IkFDW2sPxISxbyD+5lXFwykVDxGXYgL7iSPQAiyKc/NRptMdU9bU09m6tVg+qRvEEKCh2wggEgkAYjUGr8hyHlZM18Xlbw8gqjwGJ3zfwMwJrZSbNY8GcQpAIIJCHHpG/3pJtnuePrU7YuHx6zjgaAj/HTPQt9sQLDuXqnYJTMPc9XJ0BKpCVRUBDayuLqdq8ik1cOQaYceFOH79ABwN/bFjRl90G7IM55r0dgJl/wUEQkHDYQiEEKL6rQlNyCGNYDKQmFwCsbaWymjUyLMcs9ruDf5fL583LXc0EZEQIjCQV4F7bgMAkSXmrZgO3cvf4kBUOWJO+OKNmRPAFfXPFAtMPnLyylFYIFWZh9TXASp4Lr8TQEtbC2BZlcX486DRhlCjm/qdNEC97Tht8JrO5coiNUKjjFCTvxr0Ug/uvKat0Vfq4PRPrvzdTFTPPrWU4MqKyVifPx0/bJsFW9OaZEMAGKRFP0EHp724GReDi+t7I3W/K3bcUPUeRSHaTtmD/U46uPndNuzZ/RXO6X0O7+PO6KT5mQmg5ApWTF6P/Ok/YNssWzQQQ9AKbVqJUR59DxFKhyaWBUTt0bWLEZiYu7hXu+SKRWVFJYRv9oGNmXoViMQiFYUMgVTbrEmUXFmByevzMf2HbZhla1o72REAoVF7mOnHwevwTUhr92CQ5H0ZkarOtps8NgLVi7eq0nKwpt3Rs70IEIkhUlHkEzGA0AjtzfQR53UYN+sEApPkjcsqBWqMqH1XdDFiEHP3Xu06bbCVqKgU4s0+NlCnfkGrNmglLkf0vQg0NCuBZZ9BV88hSyOEbTFlz3446dzEd9v2YPdX56D3uTeOO3eCCEIYtTeDfpwXDjdUGrwvR3Ksh2sKLeGwfAl6PzyEr91+xP2352BUzRU4dXDZVxNN9q+GvAzbPVefFWmIftIBTntvIi7mItb3TsV+1x1QmaqayzPqCOJ2eKONALJiWb38oi6nVj2TT3HlGiYtGk86OGHvzTjEXFyP3qn74brjBioggiLtNXIYjsKBg2fJIQJjmLQEntwNUf+2BC6/fpZjauCF5Q5luOa2alo6LMeS3g9x6Gs3/Hj/bczREPTPFAvyN9DRXA/Z3mdwtaBmHxb53h44GV/EUQc05tn8rgZCqawUgtZvwLQptUFTYBJx6ugNlGuyIanRjbo8wWE7ThuocsEm55G/by7XLCOpyV/qFMg9V1Zo9JUauOrUFwt3mLNFSEzKRklqPB6XlCPN/yKCMxmUFmUiIjQSaV674HG/FNDthPfWb8T0TvrQqX5VAMuwIKo7S5ReWYfNaVPx3Y61cF2xFbu2zoV1zb1VsGAYOYitZ2wigFiwLAu2KBFJ2SVIjX+MkvI0+F8MRiZTiqLMCITG6mHi3Alok3QYK9ZfQmolUJFyH9E5DKTpKcgq0sKEpS7oJT2LPZ7xihers1m47peGoUs/wTC1j9OKYGreDtrpIbh2Pxs5Dy9j/9HbyJfnIu1xHorLuWVWDYuixCRkl6Qi/nEJytP8cTE4E0xpETIjQhFNY7BgVmckezhi5Gw3/Ox1FsfcnfFFkAEsxVA4gLyq3gTZsmljY3ORklxS/e8MXLgQiZ4un2C0LiAyNUc77XSEXLuP7JyHuLz/KG7ny5Gb9hh5xSKMWTALnZM94DhyNtx+9sLZY+5w/iIIBgqBQJCjqn68CXWhqwM8zcxAQW4oAlNGY6lLL0jP7oFnvOK19mzWdfilDcXST4apfZpZ2HYi5k5og6TDK7D+UioqUYGU+9HIYaRIT8lCkUCTrlTQckITZFHWMRT+yZLiBAwAIMWVdZuRNvU77FjrihVbd2HrXOvapQIGYxZgVudkeDiOxGy3n+F19hjcnb9AkIElxCwDRk5g652IKdyGhVq3qYe4xyIsn1CF376LweA5tuqvLlbDbd9ysAwDObH1CiQCgRRx11T/UuJl2O65+hSkwWuXBxSp6j2s3zgdnfR1oCsAhLq60MFTZGYUIDc0EJGljXPXy9ARtPqgv7Uu8tJS6z3cxKjNqZw+1aDjGrhzTWS8F3Z53EcpdNHpvfXYOL0T9HV0IRCZwrydNtJDruF+dg4eXt6Po7fzIc9Nw+O8YpSDActWX4yogRROXDs9EYHAgmUAwEBjDmmE0BTvvj8SeqFfY/Yn+3E17B7+PHoEf2bWVc/cfq05bzVGQz5vUu5QRfX+jS68NGFui67O2eIeWLR8Aqp++w4xg+fAVt0QajB4llhoiXELZqBD1nEseX85fvL6Ayd3fwonLzGGWJZw1AHRABgwTHUOe1a/qxW+FOkZUuj27ofeWgCbfx1bHT/Edt96BZUq2EqUVxKorAylDfJoKaIPbEGwni0MNNmQUaeb+v3VwWm7x4PV2+A1ncsVIjWYzKGrmMyRUZCL0MAUjOaUUX3+UgdXXhOkqfEV5RojIovTP7nzdzNRXtTcEIbSzy2lAe0MyaTLcHLe70u/OFmQseUE2hWcQ7fXD6Eu1u+Q0+dbyG3tYlrsfpOyGKKS2Iu0eVx7Eok70ZQdlym+nKH0U3PIQkdAAEggEJKWrhGZdh1BLscfUk7kWVpvb0oiLQnN3H2FYuJvkefSIWQs1Ccb50MUmJZG55YOoHaGJtRluDPt9/2FnCyMyXLCLgouJCJGSmE/OtEgCxMy7tSPJn62hRYO6kyDZ31JR4IziaiKki9soEm2NjRy5iL6+KO55PKtP2VzPDdBRERPA2n7mI5kZGRONtN3ke+VNWTbdQTN33KCfAN+45Y5XXXnTPo5WjqgHRmadKHhzvvJ9xcnsjC2pAm7gqmQiEgWSydcR5OViQ5pG3WkoYuPUrSMofz7p2ndO2YkEpmTw4bTdDevpn/usVWFb6Q+2mY0aIYzfbpiJX06Zyo5fnmRUmpXuz+lwO1jqKOREZnbTKddvldojW1XGjF/C524k0dEMoo94UqjrUxIR9uIOg5dTEejZcTk36fT694hM5GIzB020Om7edUPvsgp4ciHJDFpTZIpuymkmIiqkunChklkazOSZi76mD6a60Lf+mdzPihDRMRIw+hHp0FkYWJMnfpNpM+2LKRBnQfTrC+PUHAmo0ZXyr0ooVYWdTouodiLm2lcexGJO02hHZfjiZh0OjXHgnQEIEBAAqEW6RqZUtcRLnT8oeLpBVnsCXIdbUUmOtpk1HEoLT4aTTIqpMiz68neVERakpm0+0oMxd/ypKVDjEmob0POhwJJjds0oNx/OdlOPNiktpz29Q2gs+vtyVSkRZKZu+lKTDzd8lxKQ4yFpG/jTIcC0zX6lzpehu2euc+K27R+SBeyfseJPt/iRmsXLyb3m9UPaskT6MiHEjJpLaEpu0MoSzl3ZUe+JB0xlHlkMrWRLKeA2oebKtTmVFLrU+rhyjU5t9fTkC7W9I7T57TFbS0tXuxON6sP9DRwO43paERG5jY0fZcvXVljS11HzKctJwIo6H+baZy5iMSW02jnxShKifiDtk3qSCKxJU11/x89eHyXvDa9R+YiMXWe6k7eCRVqcwgn8gy6tnkidW/bgow6jaIVXt60uZ9e7UN/nH7NkbfUUahpDkpnOHKHegof/EZfjFL06/jNJYqOC6DDy4aSsciAbJd4UkiGhrmthnJ/Wm47kQ42LeifLRZIRrEnXWm0pC0ZtjSnfrN2060cRkMdkEVxlzaRQzsRiSym0I7z0c/sd0REVBFIKyWtafKRTGKISJ7wI417ox1NOJBU10aJikRfOuY+nSRaAhJom1GfUQ40btw4GudgT3a925O+8RQ6mlPdmMuGnLpRAZPObTuVNlA3z5DGPPKy5nJi8un+6XX0jpmIROYOtOH0XaoRSZ5whD6UmFBryRTarZjMOWTkzl/qUJfXKtT6inKNweGf1283IX83HQHRC/hUlkZYpF9wg0fx+3CyYZEnLUJJaQmkGQ9w5lgmFnnvwxj1p+g8z4E8YhP6DT6PiUH3sM1G06UJnibBpuOCmweK33eCDZsHaVEJSkukyHhwBscyF8F73xiOK07PC4vUA07Y0fZ7eEx7SW9n53k1lN7C6sEroHs4BNv78bHJCROL7YP64cwYf4R/1V/NVfV/L2zqATjtaIvvPabh3xz18ohNGDy/DHuCv4Ed98qT/xz8XP73w70k4wXBph+H6/IHsHy3Nyx7WGPA0BEYPWY8pk13QL/+b6u9DcvzAmn2vQce1bBIP+6K5Q8s8W5vS/SwHoChI0ZjzPhpmO7QD/3fVneL/DlhSlAgLQdbEoT9180wZ/y/edr8j6A/DBv3jsX9fb8ijY9PnkYwKCmQopwtQdD+6zCbM/5fXSyDzcH5/ffxzt4v+WKZCz5X/G28koIZYmO00/sTywaOxpxlG+C2Yzs2f74Ecz/+A5aLndHlRS3u52mEvKAAT5ki5EsVa7Z4nh+xcTvo/bkMA0fPwbINbtixfTM+XzIXH/9hicXOXTR+4a35yBG5YyTMTE3R7q2lKJi3AkP5Tyn/K2g5YhsOfJCMH366reajGjwAAHke8orkKCl8qvYhx38b8sgdGGlmCtN2b2FpwTys+DcHPStF2OG9iB//I7aPaKm8lYefy18LXtGSDAAV6Qi9dAF+URkoFZnAou8YTH63F1q/+OqCp5qKhOs4+lsAkovkEBt3wsgZC2DfnM+N8qilIj0Uly74ISqjFCITC/QdMxnv9mr9EoplBfKUqzhwMhptxs7DjH6K97ny/HuoSA1DFGzRr+PL8qB/MEw6bh8/havx+ajSMoHlaEcsGtlJudW/D3kKrh44ieg2YzFvRj+0/RcHPZN6F3epJwZa/ItPCp4Dfi5/PXh1BTMPDw8PDw8PDw/PP5B/8TkrDw8PDw8PDw8Pz/PTpIJZlhKOB2n1vo7TCBbFSVFIKHw5i/DUH59FUfJdBAZHI6ucq91zwhYjKSoBL2l4PDXIUhD+IK3eV4SaQHk6oh5mv4bPQciQEv4AL8Md/3n8/booT4/CQ42fj+VR5pXp7Vlin+cFUo70qId4FabmeTbY4iREJRRyz3Ua4+jl1moq+RfVT5oLZjYZB+cNxpBFx5ClYsBM2p/Y7TQAnd92xMG4l/A4hrrjM4/h9bkLdl4MxvkvHSDpOQWLpw9q3O65YJD25244DeiMtx0P4mUMj6cGFskH52HwkEU41hQDsoUIP7ES9lZWGLk9UPES9ZcAm3IQ07v1wcyDcc06Bpt8EPMGD8GiY1ncCe4/QH1dvGrYwnCcWGkPK6uR2B7YHAtyw+aE4MjnjhhtNxRDh72LBVvPIKLejMCk/Yk9LhMx3G40Zq47gxs3juKrRe9h2FA7DJ/0Mb4+fAUxxQ26VIJBQfR57FmzGAudl+Cz5SuxbtdphDx+gGPHfFV87aq5Mv2BeI589rL0pppmxr4mSuNx/ectWDDWDnbDxuD9hUuxes1KfOI0C/OW7sCJ0GyVDw4yBdE4v2cNFi90xpLPlmPlul04HfIYD44dw820O/h112eYOsoOw6duhZ/SdzQqk/xw9CtnjBsxEZ/+3wkEpqj6RGEp4q//jC0LxsLObhjGvL8QS1evwcpPnDBr3lLsOBGKbFWCvVRYFIafwEp7K1iN3I6XbuqmUP4INw5uwGx7O9iNWoITqep8Qga/LRMwzG4kPlj9A/64m6PcAKi8g5++vVLva3t1lMZfx+GtH8HBbiiG2g3HOxOmwdFxGt6fNhtLvvg/nA7J0Jjzyx/dwMENs2FvZ4dRS05Avah+2DJhGOxGfoDVP/yBuznqGqqAScOfu50woPPbcDwYp9J3FXDH0Qur1Th02pBXWD9VBmHzsG6wW37pBdZ/KlB+MbMqSpLvU0RqmfLPtVQEriSJzlu0Jrj2DfzPAUM5d+9QQu3LuFUdn6GsX6ZS+/cOUj4RMXk3yG2OC+2/cYdTzmejggJXSkjnrTX0QobHo56SZLofkUpNtiCTSt+P0iGTWb83fZ9mwVD6/vHUY9ZJSq7nj02jhJLvR9ALd8d/JH+vLpjU72mUjgnN+v0FC1AVR/833IAEeuPp53zljUQVgavIdvT/UaziSxtUfvMTshBp0/Ddj9V/DIGIiMmkaxtGUueeH9Je/1Qqr/655K8L9OWoN0hv7H7KVtqllmbKxMVL05sqmhv7GpHRuXmmJDJ2JK+a75XIc+j2rnfJTKcDTfNMoLqQZijz2gYa2bknfbjXn1LrFE4XvhxFb+iNpf3ZRERVlHh4CpmJxGQ+7RglKecE2f/ooyEr6n2IRjWyc/PIVGRMjnWCUc7tXfSumQ51mObZYO57NTCU+v0o0jGZRa/C1E3jKf06w5iEAi16+4sQUqVSJv1nmmAsJGgNoZ1/qVaa9Oxcam9kT/seq95OsvM031RELT84TcXVP5WlB9GRZXZkqmVMfT85qzn3P/2VZhgLSaD1Nn0RolJSSv95AhkLQVpDdpIaUbmpCKSVEh16a02wSl3UoiGOXkStplGnDXg19VNFyBfUf+Ba8itQ3vJi0XyFGYCBhQ36dFD/9KrI2BhG6r9+2Dxkofh+01E8qnc20vj4lQi5EQiZgRF0AQhb22Pj8f1wse/HKeezIYKxsVG9T3fyvDQMLGDTpwOabEGhEQwNXqZlShHDjsdRj1mwaPbLCwxgYdMHL9wd/5H8vboQGhnipbiJuBs+cp2CN6qCcPmi8rIgOWKvx8N2+WJ0r34xt8jIBEZCAYxatea4tSdH7N7ZcPy+AotOHYXr8A61H8ExsJqIrWc8MMf4KaSqLmCi+TJx8dL0pormxr5GxGhlbNgwb4vaYsjK77GsbxbOf/0TQqovH8pj92K24/eoWHQKR12Ho0OdwjFx6xl4zDHGUykDQIyOA23R9Y1WKPrfUszeEYrqjxRX998Sxm8YwVC9cQEA4lbGMGwoGNoOWYnvl/VF1vmv8VONYK8MIYwMDV6zOU4bxm1sMbh/S8Qf+x7n85W3yxH1828o6m4FLUELGKkqQNgUnD56DUWlATh8JFL1lVmxMVoaCiAQiWpjUrf9YDh954OLX76Fvzw+gtP3sVAXbgAAbWO0sR2M/i3jcez782gsahR+/q0I3a20IGhh9Gy1ksgYxk3ZUUMcPXet1hSdNuBV1E8Mnjxuj1Wnt2PES35RuYbQrqY8HZGxyreW5ShICIN/QDjSyhpsqKYUGVG34RdwDynF9feUITUqHvksUJkdg6CgWORUa53NDcHe+XOwOywZEdd84Budqzhm/eNXpCLs6jWEJBaByYvFDe+rCEqovrepSs7KHMQF+8EvNEFpkpEj/1EofG/64U5SYeOAkBcgIcwfAeFpUDk8Roqku7cQEBKHHOX8xhYiMdQftyJSUZSfgUyZ0vb6sMV4HJOEYpaBNCEEAaEJKGwkDANp0l3cCghBXKODlSI1Kg65TDkyHoQhrqDRzmAzI3DdxxvePrcQV8gCTAbuXfWGt/dVhDwurW0nS41CvMIwiAkKQmyNYWqQ5+NRqC9u+t1BkpKQbGEiQv1vISK1CPkZmeAasnr9lCM9MrbRLZXyzGjc9g9EREqRkg8KIWgUiRx2VXvc+rDIjLgOH29v+Nx6gv4uH6Pv03u46u0N76shqFOXej+uoTw9ErFKg6nMiUOwnx9CE6QNZXtRulWCLX6MmKRisIwUCSEBCE1Q4etcvlyaiqi4XDDlGXgQFgcV7lUPdTEPVGQ01gVKMxB12w8B91LQoHlpGiIfZoMFg8KkuwgKT60dc2V2LIICHyCj/iI9TTEkFKhO2FzjLk7CvegsjROCycRPMMeqBN4eRxFf/5ilt3D0bk84ORjW+1GBSllqkJ7HVzv9wdovgXOvxq+NErYdj5ULegMc7zZqrkzy/EcI9b0JvztJTdObOrvJUhEVnw8WlciOCUJQbE5j/anNx41jX61cz4PAAHq6ArDFRdVrKqU4/9VO+LP2WOLcC400LmyL8SsXoHetwgVoPfUb/DjDGHe3z8Gyc5kvaMmVAAZ6uhCwxSiqv9iTIy+UpkYhLpdBecYDhMUV1MW1Wh2rt52wcSLVMO9ozn9csjcJgRHGfDoXVvnnse9IfMO8VXwNB4J6YeE7jeOrBvkDT1xssxXbxuoj+hcP+DYnccIAA1Ztwaw3S3Dru+9xo26aVInAaAw+nWuF/PP7cKRB0AHF1w4gqNdCqBRVg47kBQkI8w9AuIoiS7X9G8eR5lqt6TRZp5rqJzV+2OzcDwDyQsg790KblPuNdPg8c6cquAtmVorw059jrFUXDN8aULeQvDQKB+c6wPlwBNITLmK9qwce1ZOTzfTBtkWr4OEfiTtnVsFOMhwbbuQiO+wYlo+ygmScO04fXgyH8bMwd7w1ek3xQALDojAjH3omLcCyFZAVFqKoJK/x8akSsqJCyKoAqpKhqLAQT0vzcU+5HVjk+u3APKf/w42UHETumwRJP1ecz2QBJgkn5g/CtO8fIC8rCO4OEthtDUZNTJRGHcRcB2ccjkhHwsX1cPV41CBYC0O+g5PjWnhFpSL+wioM6+EAN9/q4r4yEnudXHEqTY7yWE/MHvQBfk5WziRQrO8J2AfnARboMWsfTm4di74Dx+Cdwd0hGe2G20XVzQpD8J2TI9Z6RSE1/gJWDesBBzdf5LIsckI8sWyUFSRjtuDAzg9gN2QwBiw43ugMV9iqI97M/gWLJy/C4Vg5IGqFDqbx2Dt7ElZ6ZaAqNwzHlo+ClWQc3E8fxmKH8Zg1dzyse02BR4Ji5EzSCcwfNA3fP8hDVpA7HCR22Bqs0Fhl5F44uZ5CmrwcsZ6zMeiDn6FyyFCnn0pIw0/j87FW6DJ8KwJqHa0IwbumYOLmEFTpFOHyp4PQvf8ojB0/Ddt9VWQwLruqPK4qIYVo1fFNZP+yGJMXHYZCXR1gGr8XsyethFdGFXI5/RhgpeE4/flYWHUZjq01g2Fz4bdjHpz+7wZSciKxb5IE/VzPQ+GOL0i39WHSELDPGQMsemDWvpPYOrYvBo55B4O7SzDa7Tbq3EuNL7M5CPFchlFWEozZcgA7P7DDkMEDsOC4sncpUB3z+WALH+DMF++ia5ch2PhnjWFZZPpsw6JVHvCPvIMzq+wgGb4BN3LzcPfEKrwj6YoRW7xwdvNszHT6CNMGd8egVT64e/wTTJi6AEumD0L3YZsRXNrEGFKB2nEDACrh/+VYDBowFx7pGsohnYFYsngIRHcO40BgXSYvuHwcKSPmY0CjCoyb0oALuJYjhKRff7RS3ggAEOOtd99FN64rxE2WiUHSifkYNO17PMjLQpC7AyR2W1HteipQZ7dshB1bjlFWEoxzP43Dix0wftZcjLfuhSkeCdW5U10+lquI/ebK1VTkSLu8A4eChXhr5iwM1wVQGoAL13IglPRDf9UKh/itd/FufYUL22OGxymss8nBsUXzsDda1Yry5iFPu4wdh4IhfGsmZg1XXB9UlxfYnBB4LhsFK8kYbDmwEx/YDcHgAQtwPF+djln1tlP3tRyOeUdT/gOH7M1Fq68LPh4mRLDHj7hVuzuLtF+PInvCIthoNWxfRwmuHQxGL2cnLHCehLZPfseBcznNO7kxsMOYIS1BmYHwjVY+YVBGC31dPsYwYTA8frxVW0uATcOvR7MxYZENlEXl1lEpog7OhYPzYUSkJ+Dield4VBdZqu3vhAO+ynGkuVZrHk3TKXf9pMYPm537Fb1x6fCZ504ulNdoNILJpB/tdchoxhlSrLiSUeCa3mS54DxJq5uUXFpI5lrV62KYbDo9exStrVnLw6TQnhHapGWzicKr5JT4zVDSNupHy84nUQURFf4+m0x17OibRDkRMZTxgz3pmjvTlZp1ZI2OT0Qko18m65Kxo1fdb0rtmMxT5GjlQD+mKFYLVkV/QyNataf550pI/vArGqhvS1ujqoioisLW9SRd600UXkVEskBa09uSFpyvHR1dWmhOWjVrcKRXaImkOy33r1klJKPAVd1J22wm/ZrFUEXQaupp/QWFlBERMZR1cjvti1G3YLCCglZ3Iy2z0bTZ5wlVkYxiD00lc5E22W55QFUkpStLJNR9uX/tmiRZ4Crqrm1GM3/NIoYYStkzkrT1etGyazkkjblBPg/yVa6PlMdupwG63Wj17Wq7VNym1d30aPDXf5GciOSJ39BQbSPqt+w8JSkMQ7NNdcjum0SSk5wefjWQ9G23kkJlYbSupy5ZbwqnKqqgoNU9yfqLEIWMTBad3L6P1A1ZvX4YyvzRnnSMZtCZaqNWRW2j/i360bYYxVqpqvtfUm+dLrTUr2Yx1FM6MlG3dg0zl13VH1cVcordPoB0u62mOnWtpm56g+nrv+REpMmPiZjMH8lex4hmnJEpxnbKkawcfiSFO1ZR9DcjqFX7+XSu5MXpthEVQbS6mxaZjd5MPk+qiGSxdGiqOYm0bWnLgyqNvkxMCu0ZqU16vZbRtRwpxdzwoQf5KryLM+aJKM+D3tUxoPdPKgzLZJ+m2aPWUl3zPTRCW4tsNoVTFZNBP9jrkP6gdeSfKSeiCrq/0Zq0Wg6mL649oSoiqgrfSNY6luTqW96EGCKip0doom69tbiaxk1EJVG/0Z4Df1K6iuE2Iu9XcjQVU5vpJymHUYz/wIwP6WelnavubKBeWjo08cjTBr/XwVDqd//P3nmHRXGtf/zL7tIF0UQiEgUV12gsIMTeieEa+zWKwYYKhhQsUWNLLFiI5mdMNImiETW2hBvjtYItFAFRUZEmGESKdJZdpC7szPv7YynLltldS2Jy9/M8PI/uzJzznredd2bOzIwiE5jSO3uLlTfqhy4yye7T1gEW5LoxSa7Xm6upl5kzrbvb4GBKeuO0m+whfTXEhKzdFtNpeQKhX2fakunQr+ihjDsfq8S+Nrl0QkqRi7qSwNieBnvOJ58Fs2nigE5kyTcjx8nfUUJDjmFyvqFRJiDTd/aSLhqvT95MU/wvUy0RyTIP03uvC8i89xK6LGKIasPp0ynr5T7PgTRyEXUVGJP9YE+a77OAZk8cQJ0s+WTmOJm+axSMM+fKdT/SxJx6L75ExeIUuhJ2j0ryNOuY03ZE9OTgBDJrWsOsbd7Rlv+4ZdeNWgr7eAptSamnst/mUAdBW5pyuEA+t9XfofXvLqDfyuopOcCVjE3eoT1FLWONyQ+m6eO/ojQZEdVG0VKhgCyG71BdPyyNpEVdBS1rieaNFLWkGwl4drTgnKZVwURUG0YfT9lCKfVl9NucDiRoO4UOFzTY4M56enfBb1RWn0wBrsZk8s4ekovKraOq6BXUp8s8ai5DztECe+OmNczq7C9ilOdQLbWanuikUy31E6cf6p37uXT4jHOnBrivMAMAzwpWrRRu11SGYc+hTPQeOQo2DT+ZdXaEXeMaz+oInArLw4NzOxAYGIjAbcdQ47EBAXNcYQ4+WrWyBN/KGR4enWECwFLYDR155ZCUabjHqNy/JpT2E4eeQJipC9zay4coeHM5IkR5ODTZEnyhHw5HHYO/Yy4igrfhYJwYrLQGtSxQGbYHhzJ7Y+SoptGhs6Nd0xfcys7ux8+5Tujr0rhKyAIDPCdDWHoOx0MlENgL4ZD9NSYOn4utJ1Ng7LkWn/TUdDmIB3NzM/DbDcYkd3sIYIEe3hvh60xIioxEUelZ7P85F059XZrWJFkM8MRkYSnOHQ+FBDyYm5uAZ+0G92HtYNPTHR592mq5baAefqtWsORbwdnDA53lhkG3jjyUS8pA4EPodxhRx/zhmBuB4G0HESdmIa2pBQsB7IUOyP56IobP3YqTKcbwXPsJNA1Zs354sLJq1eIWsCwrE7l1zcsuBJ07oyPykZWl9iYPp1019/s0aPdjnpUVmt1RjNATYTB1cYPcHQV4c3kERHmHMNny+elWBZ45zM34aDd4EtztBYBFD3hv9IUzJSEysgilWnwZPHOYm/Bg7eaOYe1s0NPdA33aqvEuzpgHYN4KFgoyV0ecQljeA5zbEYjAwEBsO1YDjw0BmONqDvBawdLCCCad+8GtPR+ACYRODhCgI/oNsYcAgMDRAR2MyiEWk/YYUr78oUMMA4Blr/ew5INR6KBmuCq8Mgkfe3WB5Pxe/JTBQJZ6BKGtPfGeTgcrwoOFhSl4RoT62lqVKzctkSEv/iJCQ0Mb/i7idp7C5RNdZOIL4Xc4Csf8HZEbEYxtB+MgZqWoqVXfM6fd+K3QypIPK2cPeMgTCITdOoJXLkEZcedjldjXUy5OLIdiSfAB7P/xJ5yOScD1Iz54NXwJRrmvx7VygGdhAVOeEai+Fvo2z+88B/uPLUfPR9/B2+cwMltcudNiH1hi6JJgHNj/I346HYOE60fg82o4loxyx/pr5QBnzgV45uYw4VnDzX0Y2tn0hLtHHxhd1KxjTtspU6Zt3tGW/7hl1w8jtBn3Cbx7VuDC7v1IkQHlYXtxs98HGKdxvSqD+4dCYDRtNrrxAZgOwoI5/cBcD8aP8dquFCtCqKysBvGsYNOGB1levHxpXsPfxdt5LZccGbXBuE+80bPiAnbvT4EM5QjbexP9PhgHVVG5dFSJsD2HkNl7JJrLkM5wbCqy1Nu/LU8pjrTVanqhm0611U+cfqh37ufS4TPOnRrQIaMbwUhhfROTm4Y/JABfoP5QtqIEohpT9Ji8AqtXr276W7VkIroL0KItADDi82EEAquhXlbuXzOK+zEQFZeiVlIGsbp2eQLUJOyCr18w8vvOh99oO/AI8mUSaX9AAj7UD49BUc5jVLN1qFNYRyNwdIA9rw4S8ROg0wIcubwXnlaR2DK9H7oPXoxTOXrcAxF0xZvdLIF6KaoLc/C4mkVdy87gYM9DnUSMJyy0rYjUHSOl9YpGfPCNAGowDE9Qg4RdvvALzkff+X4YbcdrWNXHQ6cFR3B5ryesIrdger/uGLz4FDQNmcehHyMlGUwGjMc7r6Xj6sVHYABI76chu407JoxopbCXAhrtyt3v06Dskyp+bGTUvL6aEaG4tBaSMrHapafPS7e6IOj6JuTuVY1CLb6sq3tpi3l5bDbtjYoSEWpMe2DyiuZ9V69ehSUTu0PQYl85Rjyjlmt2jXjggdTqEmgZQ1KVnbTHsP6TuhkG+/lgIF3H/qAoRB6Og3DOv9BaeTcdaN3PFUIBgwfJyVpeaVWJq1/OwowZMxr+ZuPL3xUfQdNFJh4ENQnY5euH4Py+mO83GnaNAaOCvnYzAl+eQEDa8rFK7Osjlx7w26D3+zvww0dvoPLG19j2azHQuh9chQIwD5Kh9a67GmyGb8LPO8eBzi7G+5vvNN+K12ofRfho0/t97PjhI7xReQNfb/sVxSxXXpDTMky4dKzNdi1hirTPO9rynzbZ9cLEFR98OBpmCT9i18X7OPFTGSb6uKquN2+k+hr2n6sAL2Y9PvLzg5/fJ9idbYuuxuk4uu8iON/mqIgsA/F3i0Ft3DCotwkqr36JWU32nIHZX/7e8qFPACauH+DD0WZI+HEXLt4/gZ/KJsLHVb2kGnXE5CJNXmRxFmjqUrNiHGmr1fRCJ51qq5+0+aFyDtGe+zXq8AXMndCtYG6JUdtX0VZQi+TbCUrvAiWwLMCz7gA7izSEHLiq8J4+Bpmh55H4rOtHdIaP1zrZw7woFL9cLGv6lRWFIuhYOsovLMWkNSJM+24TvFxtmxIGwQhtX20LQW0ybicorUsjFiz46NCtK6yZFMTfbk6NbJ0UdbzX0dfFDpSbjMcdvbHrahpSzq5Bn5w98N9yRe17U5sgUpik61Fdy8K2Ry907NgNXa0ZpMTfVlgTVQdpHQ+v93WBnT7W4wvAV3NiQqSLB1XiwtJJWCOahu82ecHVtlljAIPc5Mfo6L0LV9NScHZNH+Ts8ceWK+pHzOihH167ydi5xxumV7/Bpp07sPWUOT4LPQIfR/WnyJUa7apfvwDAF/AbJntFCDqpSxn+a+hkb46i0F/Q7I4sRKFBOJZe/tx0qwkihRKwvhq1rC169OqIjlp8WVf30i/mebDuYAeLtBAcuKrwJk8mE6HndXnqWgMaYqiDiqtoj2Fdx60Iv9tc+L1rg4eHFmJx6hB4D2p81YJuMA+P49CVKgicveEzwgpFZ4NxskBd6V6HBxfOI7HWBnN+LUF5eXnDXzH+M7vxqo4crTJVXsDSSWsgmvYdNnm5ooXrqfAsduPOxyohpZdc+iKAfQdbGKEeNTX1gMAZ3j4jYFV0FsEn1T/AV/fgAs4nKj9p1IgATvODcWRRFyR/tRbHHjcKqd0+ygjsO8DWCKivqUE9Z85VB5eO/4ClHrbjd3jWeUdf2bXBQ6eZ/njPLh8/r/DCz23mYqaDJiFYlJz+Efc9vsdPQXuxd2/D374j2Dy1HYp+24//qI0rZViILn6DQ/f46LXgE4yzAmzm/IqSJnuWo/g/s5uu3DbB64SZ/u/BLv9nrPD6GW3mzoR6UTl0ZNQWr7YVoDb5NlTLEF1kl6OtVtMdXXWqrX56lhyiDg4dPqe5Uxm1pmwJC4alJkPx2k3A7PGvIvPAUqw5l4M6SJF9JxnFjBh52YUoNxqDeV6dkRXkiZEzA/BjyEkcDvTBylhLdBGwYBgZiFUo3IjkymRZADyYmZkCTwqQX1aCG9GJqFbqX04d6uoJdXVShQTXcr/WY+dhesdCHPng31jyQwh+O7YDH3uHQDC4CyofZqKoMgfpjypRmxuJs9cLwFSXoyDhFopGz8b4VzNxYOkanMupA6TZuJNcDEach+zCchiPXwS/3mKc3BmM9Dp5v4WXI5A7ZBE+GmYKJjcE24PuoBpmcHx3Db6Y5ggLUzO1Z4ONsCXZyGo4VWXzz+BMYi/4fTQaZq3HY5Ffb4hP7kSwvDOwhZcRkTsEiz4a1vC6KQJk9VqdjW9rj/YmeYi7dAdFxfdxfs8hxIhkKMl9hNKKWrAMAxmxTVeUAQKBwLIsWLYcDzOLUJmTjkeVtciNPIvrBQyqywuQcCMRuSHbEXSnGjBzxLtrvsA0RwuYmqkfMZd+WIYFEdtsU/EFrF6fiynfbMEq/6XYuH0jZjsrpigGDCNPIixYlGu06w0kpmvuVxU+bO3bwyQvDpfuFKH4/nnsORQDkawEuY9KUVGrzY8BsAxYakxMrTF23nR0LDyCD/69BD+E/IZjOz6Gd4gAg7tUPp1uq29h99zxeD/gIrjzP4uS7KyGKyEs8s+cQWIvP3w02gyttfgy0OheWrzLkivmlXcGLMfMg1fnLAR5jsTMgB8RcvIwAn1WItayCwRgwLJKEwPJ9ds03RKBwIJVqLQ0xhAAMAyYBl8GoMO4GeScXI73vHcjXlOdpAzPFlM+eR+OFcXoNGk23lAp1AG2rhZ1RKipqW5ZmFUnY++G6zB3tQT4TvgwaDemtzqHJdNX478PFK5hsWLEH96K0+SCXpreG6WIFpnY8ofILKpETvojVNbmIvLsdRQw1SgvSMCN5EoVvXHajWXAyAiswkmmPCRYsCxXPnYCXyn2tclVfWs35o5/HwEXC1qMpyUEqVT1kjFbFo1dh+LAvDYO3pPsAPDh9GEQdk9vhXNLpmP1fx8oXDVkIY4/jK2nCS6NCq+rQ7VU2rL047XF6MCf8X/vtIa0TntRSFKp6t0DtgzRuw4hjnkN47wnwQ5cOTdZ3g5kUAxNLh1bc9kOACNPpPJ8pXXe0ZL/OOeLZJ3tV19X3axPKw/4z++LuodGGPHhv9D4wom6ehmAekgb6yBZCvbtf4JJ83orXTm3wbvzpqJT5SX8EJTYrH+qQ52KMWQoCN+CGT5HUPv2Vhz6YpDG17QBAKgeddVSNIvqj/l96/DQaAQ+/FeTpHJb1UvlxSuXjm4VYcLs8Xg18wCWrjkHeRlyB8nFDMR52Sgsl5/GKNsfSnGktVarZiG6vBGe729GONdXSHTWKQ/tJnDXT0acfqhn7ufS4XOZO9WgvKi5JZWUenY9je3AJ4HjZNpyPp2IiBjxTfreeyA5tLEhR7cJ9MmGBTSw8yDy+vwgXS9giKpS6aj/aHJqY0om1p1oyMJDlFxFJEk8SWvcbYlvLKQZOy5QSvo1Cl40mGx4FuTis5+i8xiSZRyk94Vt6BXhZNoRV6jaf30mXf1hEQ19hUc821G0Iug/dP1xuep+RFSVeoz8RwupnVVrsnfzoh3XiokhIibvFC3q356s2nSl4T57KPwnb3Kw6ULjt18nCTEkvvk9eQ90oDY2juQ24RPasGAgdR7kRZ8fvE4FDFF91hlaO9GVXEbOIN8P59Nsv68psuGhA2nMGhrc1Zne9v6MNgSsooULA+lqw4NEqtTT3S/6kondQJru8zEt/fRjmjXFkz4/m938Uv36LDqzdiK5uoykGb4f0vzZfvR1ZBExxJDozgla/bYd8fn25LH2BMWXauqHiOgJRW8eQ52srcneZRptD79AK1y70Yi5G+hoeBSdXONOtnxjEs7YQRdS0ula8CIabMMjCxcf2h+dS3mnFlH/9lbUputw8tkTTj95O5BNl/G0/XoxxawZTF2d3ybvzzZQwKqFtDDwKmkasib9VKaepfVjOxBf4EiTt5yn9FoiJu84zXIwJSOAYGREPGMzsrbtRiP8jtB9aQ2lnVtHHu35xHeYTFtOJ3PatVhDvxp5Ek2bx3Qia2t7cpm2ncIvrCDXbiNo7oajFB71H24//iOZzq4fSx34AnKcvIXOp9cSURWlHvOn0cJ2ZNXanty8dtA1+dNYT6VbJu8gTWlvQ6/aDqGAJA1PMtTfpS/6mpDdwOnk8/FS+vTjWTTF83M6m938lIZGX2ZEdOfEanrbjk98ew9aeyKeON1LQ8zLtx2nqa1aNT30J9/9KPmPdqI2piZk3WkILTyUTFVUSaln1tNYez4JukylbWeTKDvhN9o0sRPxBV1oSuB/6d6jeApZ9y7Z8wXUeUoghWZUccdQTRqdW+dB7fl8cpi8hU4nyx+40zhu+Va6tbE/veLgTb+WNomsHVkKfTl5Af2q8vJ8KT0MP0yB04RkbGREJnZ9aZTHWBo7dix5uA+lPh0syGbyoRYPncmKYmjPoon0lrAb9R44isZOmUFzfT+jPTHyHKYzGmUiIiaPTi3qT+2t2lDX4T60J/wn8nawoS7jt9P1QvV6U283CSWeXEPutnwyFs6gHRdSKP1aMC0abEM8Cxfy2R9NeYzmfKwS+9UcckkYyjs4hdrbvEq2QwKURySnKo2uBG+gCQ58MjJuT84eU+j9eQtowcxJNKx3D3KbsIQO3VV68FJWRDF7FtHEt4TUrfdAGjV2Cs2Y60uf7YmRPzRJMsqJOU7/N/tNsnSYQOsPXKZ0pafEmOJQWjpzC8dDf1WUdiWYNkxwIL6RMbV39qAp78+jBQtm0qRhvamH2wRacuguySXTnBe+DIukE6vfJjs+n+w91tKJ+NImn9CkY/k2dbYjqkk7R+s82hOf70CTt5ym5Cdc844u83i9Rtm3Xy/T0X7rabxDK+o95//oWEwOyYiIyQum2bN+pMcMEclyKOb4Dprdy4yMeDbU/4NdFBJ6hn5Y4Eqtzd+kmdtPUaKkuUmm7C79smYM2fFBRq160ftbz1JC4hUK3jiRHARGZGznShPfn0c+C7zJc/wIGjzKk1bsi6Z8jbaUU5V2hYLXjyeHVr1pzv8do5gc+csL8oJn06wfH5Nc1Bg6vmM29TIzIp5Nf/pg1690q4hLRxIiRkw3v/emgQ5tyMbRjSZ8soEWDOxMg7w+pwNhl9TaXyWOarXVanWU8f1Yeq39eNqr8hUeOUzBNb10mi7VXj+p98Onyf01HDp8xrlTA0ZEpP2U2MALQoaEdW4YdHoCYm9vgouaq3H/y7B5ZxAQVIF/e7uALRWjvLIaleJ83PvlMAp8Q7F7jH63vf951CF6zUe47ROExV3UXNKUJWCd2yCcnhCL25tcVNYq/mlUn8B77f1hfvgxjkzhvFbzFBhi6H+Sumis+eg2tv64WHmLgb8DBvsZ+EvRMndqQIclGQb+DPS9M/CPh83DEf8luNflX+jTpSec+w/BiNFjMG7qNHi4vYU31d3r/5+ChSh2H869MgtztAb8X+xdbD1kvO7o9abym0ifL3/xKA38WbAixO47h1dmzVHeYuDvgMF+Bv5S9Jk7W2IomP9SZCgrewKmXASxyjqq/3UEsGlvjt8XD8DoWYuxNmALNq//DB/M/hC/dVkIn676Ofo/DVachAR2PDYsG6nmlUUNyMpQ9oRBuUisumbyRSNLwVcjX0evmbtw7r83UDd9OeY6vQibGWLofwsW4qQEsOM3YNlIjZ5v4KXFYD8Dfy06zZ0aMCzJ+MuQIuPyIfwnKgvlMgFsHEdi+jx3dFH/Bpr/UaTIu3EOZyKSkF/NRxuHfhgz6V/o/cqLKLz+YUgzcPnQfxCVVQ6ZwAaOI6djnnsXza9ieu7IkPP7jzgcUQzr3uPg9W9XtHvuZjPEkAEDBgwY+HMwFMwGDBgwYMCAAQMGDHBgWJJhwIABAwYMGDBgwAAHT1UwsxWZSMqQ/LUP2bAVyEzKgOQvFcLAy86L89Va5CXdV/vp5b8KRvwASY+qlH9+oTybfl+cDquy7+Jerq4vUVbDM+UXFhWZSch4uoP1pjYvCfdfhBL/4Tyzj+jJs8XK8+bFxd7fgz83RvWiNg9J94teEj95fijnqRcXfy/OtvoVzEwuft/hjf6d34TnvjStH8t4MTDI/X0HvPt3xpue+5D21whh4GXnhfkqC8ndo/jU3QlOIzcj+mV40IzJxu875qBf5z5YcCxb9ctpL4Jn0u8L1iGbhX1zBmGw72EU6p0zny2/MLm/Y4d3f3R+0xP79D1YT1jJXRz91B1OTiOx+bkr8WWnDrHrh6H70CU4p7+Rn9FH9OSZYuV584Jjr4Hy/36Ivj3GYkuczh+i5oYpQ/LpnVixcAF8PvgESz5dje0n4vDo3mEcDtfv621/ZozqBSvB3aOfwt3JCSM3R//5D2q/INTmqRcUfy/atvoVzPyOGO3vixGvKHx55U+Hj46j/eE74hUYVl9rgkXJ7Xg8/FMqp5eUF+arPNi4eGHpJOHL4398B4z+ZB6GtXn6j8/qzTPp9wXrkOeIhT9dR+z+uWivX4Z75vzC7zga/r4j8MrTHKwnPBsXeC2dBOGf0NdfCVtyG/HKyazuLs6E1uPfW9ZjvP5GVu8jbAluxz98/ieczxQrz5sXHHsAgEqE//ca7Py2Y9nAxi/dPT1s4WV8/rYb3v9FgAlf/IAfg77DN19/jn+3Oo8FHh/ieHq58iGc/Jkxqhc8G7h4LcUk4cvgJ88PtXlKXfw9B160bfUXlW8DG2v1HxT+8+DDxsZaw2eNDaDqBr5ddwgPnv8J1t+LF+arPFhbWb5c/se3hJWl/uH8TDyTfl+sDi0dXNC349N+JOXZ8gvfxgZPrRY94VlbwfJP6uuvoQo3vl2HQ0rJjHn8CB2WncDmEfq+GKoZZR+puvEt1h168GKuAD9TrDxvXmzsoS4Von7f4oh/b+5PSuuCLBW7ZnriW6kvjh/yx/COjR+rsoTThI34JWgWbJ5wfddZPX9mjOoFzxpW/8CAVpenlOPvefEibavzDCsry8DNyCjcza1R3gQAqM5PQkxEFG5nV2hfe1NXjLTrEYi4kQFxi9N5GUQPbiD8agRuZUpUz/RlZci4GYmou7lQlULLsUrIRA9wI/wqIm5lQqJmZ03jqc5JQloJg9r8e7iZVtbcDyNGZvw1RMWloVjpXgpb8QgpmRVgGTEy4qJwI6NBPrYACZfDEBoahmtpErBgkH/7IkJDQ3Ex7hHkX4xvoDofSTERiLqdjYqWAiEprQRMbT7u3UxDaWEcds2dhR03s5BwKQzhySVN8jPiTMRfi0JcWrH22z2sBA9vROJaQg7KRfkoUFwaq0kWtdSiIDkGkdEJyC5v3JlFQcJlhIWGIuxaGiQswOTfxsXQUIRejMMjhYFrtlM1cpLSUMLUIv/eTaSVNW/k9FWZCA9uhONqxC1kqjO8MhrGyjPSHpFVOUlIF7FAXRFSYmORWqw6FXPZpDo3Ub7mi5EgMz4Wd3MajVCHotRYRN/LR/MKMCM0ikSyEtyPi0NKodL6MCVfaVZZNfKTYhARdRvZ2g3KrV+O2FFGnQ4121s9dcVpuB4RgRsZ4pYxX5uHxNRCsPrE2DPlFxnKMm4iMuouNKhFCU06r0JOUjrkbpOC2NhUqHGbZnhGagofbbIqU4W8xGhEXb+PYmkdijKzUKGP3jSORR2a9mUheXgDkdcSkFMuQn5BFcCWIG7XXMzacRNZCZcQFp6MEhYAZJDIOqP3q9m4o8P4WMlD3Ii8hoSccojyC9CUyhp9BCxK4nZh7qwduJmVgEth4UhMvoPLYaEIDbuGNHmCwu2LoQgNvYi4lgmKM59oixWu+G+CFSElIgyhofL+b2TJ+6/OuoGLoaEIi0iBSJPanzp/sah4lILMChaMOANxUTeQoTw+TWM36Y8FC99AYbriOlw19tUB8emt2BbJwv0DH/RWeV0kD+3GfYp5fZp/4c4f3DHKfawctuw+osJC5bYIi0Z6OQugAhkxFxEaGoaoa9d08xuNeZLXlMdbwFFfqEePONOAxlpHg09x5h11eaop/gCUP0DMxQa9KvyFRac3PEfC0Tbk27lsCzAQZ8bjWlQc0nRToFp0KJirkbRvNjx8DiAhLwNn1/gj6IGCuGwBwjb5YllQJBJv/YJlQ4UYvvaKhgBmURKxBXO8/w9XsouRuHsihG7+OF3AAkwmjs4diKnf3kNpYSwCPYQYuvF6U2KuTtqH2R4+OJCQh4yza+Af9EChWOU+tiUMMo/OxcCp3+JeaSFiAz0gHLoR1xt31jCeksI4BC8eBSfhGGzYuw3vDR2MQf3n4YgIkMR9A2/PVQhJykH6mWUY1tMDAeElYJlcRO32QX+HnvDafQwb3+mHAWPexqAeQowOiEE5ry06vV6EnxZOgu+BVMjAR9uOtkjfNRMTPw1BPgN5cRm2Cb7LghCZeAu/LBsK4fC1uFJSiLjgxRjlJMSYDXux7b2hGDzoLcze9wjmbVqBZaWokkhQXi0DIEHcN97wXBWCpJx0nFk2DD09AhAun31UqUvELm9/HM+VoTY1GDMHvocfs2SaZVFvbKD8OrZPnoD1cfUwLT+Pjwf2wFuj3sG4qVuR+OrrKPppISb5HkCqDOC37Qjb9F2YOfFThOQzHHZiURwXjMWjnCAcswF7t72HoYMHof+8IxBp8VUm8yjmDpyKb++VojA2EB7CodjYZHhl9ByrAmzJTRxeMgpOwrEIPHEACz3GwWv2ODj3noygjEZ5NNuELYvH0WVvQ9htBDaEnMT6mTPgPX8qBvUYiGVh8Tjy0XhMmfcBpg3sgWHrW/o5FZ2H/2AXDHYfit6OPTDp23hUssVqfKU/5h0RgS0IwybfZQiKTMStX5ZhqHA41l4RaSh0ufWrKXZ0UBmHvZX3a4AtQcSWOfD+vyvILk7E7olCuPmfRoFMjLsnPsM7Tl0xfGMUanWKsWfML9VJ2DfbAz4HEpCXcRZr/IOgqBZl1Ou8BEU3D2PJKCcIxwbixIGF8BjnhdnjnNF7chCa3EYb2mRVojrlEPzGzca2iylIi/oaM1w6o+eUfUhjddOb+rGo9x/N+9YhcZc3/I/nQlabiuCZA/Hej1mok+RDZN4GrVgW0ioJJOXVkOk5vrrEXfD2P45cWS1Sg2di4Hs/IqtOyUdYCfJF5mjTigUrrYJEUo7aVp3wetFPWDjJFwfkCQodbdOxa+ZEfBqSD0ZrPtESKxzxrwLPHK2qLuOL6ePhtScLtu3kV+XMXuEjZvManKuyQSuVmfzp8xeTG4XdPv3h0NMLu49txDv9BmDM24PQQzgaATHy5Q8ax84263ZE0zpc9fblOg+UU42oM5dQzBPC7a22yhvlCN7Av/7VXXv+4IxRLccqwLN8BaZpP2DBhEnYcscGHSx5ACzwWqub2LkjHiadu2n1G33zpMb6QnnHBvSNM2U7sMWaah0On9InLhV8ZPjGKNQCqLt/GFuCbiCvTAKJRILS+L3wnTgVq88Vg09a2ua0LQBJHL7x9sSqkCTkpJ/BsmE94REQ3nDyrSekharoFdSnyzw6LW74ofIcLbA3pjdWXCcpMVR0YiaNWhVHUiIiYih75wgyMXahdXfrW7RDRMQUHCdPJw/6PpshIqL65K9oRNsONPdUJcnub6UBFq60MameiOrp5upeZOa8ju7WE1FVNK3o04XmNQtB5xbYk/EbK+i6lLiPVUZ2n7YOsCDXjUlUT0T1N1dTLzPnBnm5x8Nk76SRJubUe/ElKhan0JWweyQSXaAPhD1oSWRNQwdVFL2sB5nYzaCfCxkiaSwt725MdqPXU9jjeqKqVNo/xZ74Jq604V49kSyVNvc3o+7LYxr6lFLM8u5kPuhL+kNGxBSdoJmjVlGcfCMx2TtphIkxuay7S/VMNu0caULmvRfTpWIxpVwJo3uiesr/zp3M7H3oQq38GPGFD0jYYwk1ixhNy3qYkN2Mn6lQbooWSGOXUy/nlRRXQ0TEUOGxzbQ7pZ5bFqU2iOopadNb1MptE6XI5P+/83kfMu26iCKkREQySt3cn8y6L6eYhvakMcupu/kg+vIPmVY7Ze8cSSbmvWnxpWISp1yhsHsiquD0VRnd3zqALFw3ktxNbtLqXmbkrFZ2LXonoicHJ5BZGy/6tVGnSsgefkVDTKzJbfFpypQSkeRXmmlrSkO/ekgyHWzC5H9H7qYWNHB1JBXIiEh6h75wNqbWg1bSpcdyP7/7hTOZdvGn8NrG8ZiQ/cRddFMkI6pMov3THMnY1I0CEuuJ1PlKSQGdmDmKVjUPknaOMCFjF/Wx8zxzASnrkNPeyjBUcNyTnDy+J3kqqafkr0ZQ2w5z6VQlETEF9L27KVlP/4WqiLTG2LPllyqKXtGHusw7Tc1qWUD2xm/QiusNelWEKeLQuYwefjWETKzdaPHpTJK7zUyyNR1KXz2UKbck58lBmmDWhrwaHJFbViUqfqclvVxoRUxVww9Sil3+Bpn2Wk0363XQG+dYmruRb+PYtyqWlvdyppXyhENM4THavDuF6qkhDszsyachmek1PpJS7PJe5LwyjuSprJCObd5NKfVqfITJp+/czcje5wI1pE2SpW6m/mbdaXlzgqLl3c1p0Jd/kExLPuGOFe3xr0oVRS4RkmmPFRTbICBTeJhmz9hLOWr2f9b8JY1dTt2N7Wj0+jCST1v7aYo9n0xcN9C9eu6xN+q2jdevcr1LNduXEyaHvhllQjB9h/YWK29UgjN/aIlRzmPVUJ9Em94yJ/t5p0lCREQM5R/8mFaEVhBp9RttefIJHZxg1qw7sZb6QpmnjDNl1NU6JQWafapWW1wq5Snl+KtPPkfn0hp2roilz11bkc2wL+lurbaY12JbEtOFD4TUY0mkXJ9EVBW9jHqY2NGMnwtJjQY5UTkvbUklwvYcQmbvkRhl0/CTWWc42jV+sqsaEafCkPfgHHYEBiIwcBuO1XhgQ8AcuJorNNOAOPQEwkxd4Nawylvw5nJEiPJwaLIl+EI/HI46Bn/HXEQEb8PBODFYaQ1qWaAybA8OZfbGyGYh0NnRDo1ScB2rAl8Iv8NROObviNyIYGw7GAcxK0VNLat1PDxzc5jwrOHmPgztbHrC3aMPcH4/fs51Ql+XxrU4FhjgORnC0nM4HioBeOYwN+Oj3eBJcLcXABY94L3RF86UhMhI7a+OqY44hbC8Bzi3IxCBgYHYdqwGHhsCMEcuEMxNeLB2c8ewdjbo6e6BPm2VTVqGs/t/Rq5TXzSLOACek4UoPXccoRKl3QEI7IVwyP4aE4fPxdaTKTD2XItPegq4ZVFBhqzMXNQ13YoRoHPnjkB+FrLU3jJRgtNOPJibm4Bn7Qb3Ye1g09MdHn1McInTV/kQ+h1G1DF/OOZGIHjbQcSJWUhratXaQL+xqsJv1QqWfCs4e3igswkASyG6deShXFIG0sEmvFaWsDAyQed+bmjPB2AihJODAOjYD0PsBQAEcHToAKNyMcRNzzfwYfeWO/q15QOWvTB/x6cYapSEqGulYNX5ilkUToXl4cG5HQgMDETgtmOo8diAgDmuUB3l880FKnDaWxkxQk+EwdTFreGBEQHeXB4BUd4hTLYEwLOCVSuVG4Aaeab8UhmGPYcy0XvkKDSrxRFNalGmOoJD53y0amUJvpUzPDw6Q+423dCRVw5JmW4PsXDKqkT5+b04WjEA77haNPzCR+vWrXS57SiHcyx67Cuwh9AhG19PHI65W08ixdgTaz/pCYFyG3qODxDAXuiA7K8nYvjcrTiZYgzPtZ+gp0B/H1GFK59oixXt8a+KBYb4f4KheYfx9ckisGCQHXIexlOmoaMagz1r/uKZm8OM3w6DJ7lDPm15Y6OvMygpEpFFRhxjb9StglB62LcFPAtYmPJgRPWoVW/gZrjyh7YY5TpWHYKeWOD3NqpPBSEkjwWYBzhx4zVMH91KeU816Jcny85qqS+UeU5xpq7WMYvS7FP6xaVq/AneHIdx3QUAK0LYynn4v8ejsP3gcjibaol5bbYtO4v9P+fCqa9L03p6iwGemCwsxbnjoVCjQU7UhJoCTC7S/pAAfIH6HdkKlIhqYNpjMlasXo3VjX+rlmBid2UzMBAVl6JWUqYwwSvAE6AmYRd8/YKR33c+/EbbgUcAwCA37Q9IwIdArRBcx6qDB0FNAnb5+iE4vy/m+42GXePOOoynZYplUJTzGNVsHeoUlosKHB1gz6uDRPxEbTEm6PomulkC9VKplqdhWVSUiFBj2gOTVyjIs3oVlkzsLnd0bTmfKULO42qwdXUK610FcHSwB69OAvETVQl5nRbgyOW98LSKxJbp/dB98GKcyqnXLksLTDBg/Dt4Lf0qLj5iAEhxPy0bbdwnYIQueYXLToDqwLX5KgCeoAYJu3zhF5yPvvP9MNqOp0H/OuhdG0ZKa7aM+OAbAcSSbjZRPh5G4Bm1fAuGEY8Hrkfdee26oLONERhZvfwHJZWxFSUQ1Ziix+QVCmNcjVVLJkI1fLXoV4fY4UabvRVgRCgurYWkTKzBfkYwUrsQUB3Pll+Y3DTI1aLp4JZo07my3EZ8PoxAYNUPVBUOWVvCIP9hFioFJjDWVVVKaBuLzvuadMKCI5ex19MKkVumo1/3wVh8KkfNOkV9xgcAPHRacASX93rCKnILpvfrjsGLTyGHgZ4+oh6N+URbrOgS/2rgd5mDpdPMcP7rvUiqTcHR8NcwY7y6pQrPIX+pIEDXN7vBEvWQSknz2IEWz1MAAHh62LcFrdHPVQgB8wDJydrWnWrOH9pjVPOx6uHBbrofplqFI+hAMqpu/oyHvWbCRWWNtRr0ypP61xfPLc5UpgstPqVXXEJD/LHIC/HHwgNSTP8+CAu6NlS9HG1rsy1TlIPH1SzqWioQDvY81EnE0BBqGlHfSyNGbfFqWwFqk28jQelVh8SyAM8aHewskBZyAFcVHlRlMkNxPlF5ZQwfr3Wyh3lRKH65WNb0KysKRdCxdJRfWIpJa0SY9t0meLnaNgU1wQhtX20LQW0ybqsKARZApcZj1VB5AUsnrYFo2nfY5OUKW8Wd9RoPAPDRoVtXWDMpiL/dvFqHrZOijvc6+rrYNSmYSMEy9dWoZW3Ro1cH8MGHgN9QSClCBAY8WHewg0VaCA60FAih5xNV1h6phd8B3bpag0mJR7OILOqkdeC93hcudqouwOQm43FHb+y6moaUs2vQJ2cP/Lf8DlO9ZOGh3eSd2ONtiqvfbMLOHVtxyvwzhB7xgWNDHPDlA1eyE4EYLXZShzZfRSUuLJ2ENaJp+G6TF1w5G3wOeufiKWzyVFSXoLSmE5z7vaY20HnWHWBnkYaQA1fRPEoGmaHnoeLu2vSrd+wooY+9+a+hk705ikJ/QXMqYSEKDcKxdHXpnyvGni2/GLV9FW0FtUi+nYCWRxNYNclYL50/BVyytsQINm1aA4/jEfdInc6gRW/6jYVzX2kukh93hPeuq0hLOYs1fXKwx38Lrqh5va7u4wMABrnJj9HRexeupqXg7Jo+yNnjjy3qGlYHXwC+mpMVkicozflEW6w8dfy3hseSD9Dn/n58GfA97rw5C6Mabw604HnlL0LLaasWrG0P9OpQo3ns6mB0t29LBHD29sEIqyKcDT6JAjXxhLoHuHA+kTN/aI1RjmM10uod+HkLkXLwawScKMeIGV2a7khx+o1eeVL3+qKR5xVnqnD7lESvuFSPLD0Ivov+C+sPf8Q3U+3AAwtxsYizbW225Xfohq7WDFLibzeveWbrIK3j4fW+LtAYahrg3p3XDhNmj8ermQewdM055NQB0uw7SC5mIM7LRmG5EcbM80LnrCB4jpyJgB9DcPJwIHxWxsKyi/LZEtB67DxM71iIIx/8G0t+CMFvx3bgY+8QCAZ3QeXDTBRV5iD9USVqcyNx9noBmOpyFCTcQtHo2Rj/aiYOLF2Dc3IhcCe5GIw4D9mFYhRqPPYGkitbysCWP0RmUSVy0h+hsjYXkWevo4CpRnlBAm4kk9bxEGSoV/Dr1uMXwa+3GCd3BiO9DgBYFF6OQO6QRfhoWOMrcFiUZGdBLgqL/DNnkNjLDx+NNgP4trBvb4K8uEu4U1SM++f34FCMCLKSXDwqrQB/zDx4dc5CkOdIzAz4ESEnDyPQZyViLbvIHYcAmaJA4MHMzBR4UoD8shLciM7G6EV+6C0+iZ3B6fKHMNhCXI7IxZBFH6FJRAWY3BBsD7qDapjB8d01+GKaIyxMzdBKmyxKiC+sxvrcKfhmyyr4L92I7Rtnw7nxvgn4sLVvD5O8OFy6U4Ti++ex51AMRLIS5D4qRXkRl50qGwfenPy1+aq4EA8zi1CZk45HlbXIjTyL6wUMqssLkHAjuUnmRiy1jJVhGHlBpS6JA2AZBjJiFYoNAoHAsixYtMZ4bTZhWLBKRRcBIIUrykQEsKzCFQJCdbmkIXHUIunAUTz81xdYPKjh0oeyr1iOwTyvzsgK8sTImQH4MeQkDgf6YGWsJVTCV5t+9cwFUNIhd1wqBTFaY+y86ehYeAQf/HsJfgj5Dcd2fAzvEAEGO/EBsGBYajhRgpYYq4LVhKfPL6nmEzB7/KvIPLAUa87loA5SZN9JRjEjRl52IcqVn3rh1DkLhpGBWIXJlqhBRxocjWHANPgVwKKcQ9aWauTB9l//xkjzG/hy5kfYc/Embv9+CAd/L2j2J069VaCWcyyKfWkZt1EuQrYH4U41YOb4LtZ8MQ2OFqYwMwJ4ZmYwxRMU5Jeh5EYUrt/XdXyQF8wh2xEkbxjvrvkC0xwtYGpmpOojPDPI02Y+ykpuIDqxGnxbe7Q3yUPcpTsoKr6P83sOIUYkQ0nuI5SWF2nOJ7eKtMSKsfb414Cgpy+WjK/Hf75JwaBZrmrzLp5D/gIAsCXIzmpQKpuPM2cS0cvvI4w2Kdc89hvJDbqVn2ixkBfM6u3LQnR5Izzf34xwhRpMEb7ThwjaPR2tzi3B9NX/xQMFG7PieBzeehrk0oszf9wqGs0Zo+JCzceq5p5GBHBZsBDDRMdxkiZg/CvNWzj9poKvJU8ykJtGfrKuW32hwFPGmTqUax3NPuWIKm15p0Wegmr8Vcfjy/mrEdN1FQ5ucYf8ZZFihJ6+jAKOtrXmX+PxWOTXG+KTOxEsVyDYwsuIyB2CRR8NgxoNcqO8qFkFRkw3v/emgQ5tyMbRjSZ8soEWDOxMg7w+p4PXC4ioilKP+tNopzZkamJNnYYspEPJjQ+RqFKVeoz8RwupnVVrsnfzoh3XiokhIibvFC3q356s2nSl4T57KPwnb3Kw6ULjt18nCTEkvvk9eQ90oDY2juQ24RPasGAgdR7kRZ8fvE55uVzHKsHk0alF/am9VRvqOtyH9oT/RN4ONtRl/Ha6LiGN42FEd+jE6rfJjs8ne4+1dCK+tGnBeH3WGVo70ZVcRs4g3w/n02y/rymyqGFr/V36oq8J2Q2cTj4fL6VPP55FUzw/p7PZzQ/xPIneTGM6WZO1vQtN2x5OF1a4UrcRc2nD0VtUyhBVpR4l/9FO1MbUhKw7DaGFh5KpihHRnROr6W07PvHtPWjtiXgqbehSlnGQ3he2oVeEk2lHXAUR1VPWmbU00dWFRs7wpQ/nzya/ryOpUURlpDFraHBXZ3rb+zPaELCKFi4MpKsNDxiolUW5ASIiYijv+CxyMDUiAGRkxCNjM2uy7TaC/I7clz/w8CSaNo/pRNbW9uQybTuFX1hBrt1G0NwNR+lWca4GO31JYZEnaPXbdsTn25PH2hMU3zhwTl/No7xTi6h/eytq03U4+ewJp5+8Hcimy3jaLje8CprGWpN2jtZ5tCc+34EmbzlNyU+UDpQk0sk17mTLNybhjB10ISWdrgUvosE2PLJw8aH90XncNqlMpTPrx5I9X0Bdpm6js0nZlPDbJprYiU+CLlMo8L/36FF8CK171574gs40JTCUMqRV9MeZzTRrxFs0fJI3fbzIlz7adJYe1hARh69QVSod9R9NTm1MycS6Ew1ZeIg0hi+nfvXLBSo6lGiLS2WqKPWYP40WtiOr1vbk5rWDrhUzRFRJqWfX09gOfBI4TqYt59OJtMbYs+UXRnyTvvceSA5tbMjRbQJ9smEBDew8iLw+P0jXC9QEmQadSxJP0hp3W+IbC2nGjguUkn6NghcNJhueBbn47KfoPKW2atLo3DoPas/nk8PkLXQ6+YmWPKqMjPIvracJPdpRK2tHGrU0hELXu5F540N/WvWmeSxq0bSvNIbWDO5Kzm9702cbAmjVwoUUeLXhgRxZBh18X0htXhHS5B1xVK7X+KQUs2YwdXV+m7w/20ABqxbSwsCrVMio8xEZZRx8n4RtXiHh5B0UV0FE9ISiN4+hTtbWZO8yjbaHX6AVrt1oxNwNdPRWMXc+0RorHPGvhdrIJeQ6YR8pu4MyT52/iKj+7hfU18SOBk73oY+Xfkofz5pCnp+fJfm0xXCMPa9Zt52n0NYL6Rz2lVHG92PptfbjaW+mhodaiYhIRkUxe2jRxLdI2K03DRw1lqbMmEu+n+2hmOLG3M+dPzhjNE/TXKMp9zQipt8WjKeAe8qPzXH5TSlHnqyhtHPryKM9n/gOk2nL6WQibfWFOp4mzhTgqnU0+RRn3lHJUwVK8ZdEsav7kBnPhly9ltPKlStp5crPaMnc4fTG+yeogqttXfJvfRadWTuRXF1G0gzfD2n+bD/6OrJIZdy6YESKl6wMPH9kCVjnNginJ8Ti9iYXjVcE/nmwyDsTgKCKf8PbhUWpuByV1ZUQ59/DL4cL4Bu6G2P0Pr0zYMDAi4NB6uaBcPtlDCLvbsVb/zvJ6m8Ei5y93tjS7lsETX36j7ZoQ5awDm6DTmNC7G1scjE4ggED0Lokw8BzhOve1z8PNu8I/JfcQ5d/9UGXns7oP2QERo8Zh6nTPOD21puqt2wNGDBgwIB6mEqUiWvBVsZiz2U7zBr34orlFvxvTVsGDHBiKJhfNLIylD1hUC4Sa/6S0z8RgQ3am/+OxQNGY9bitQjYshnrP/sAsz/8DV0W+qDxAVgDBgy8LMhQWloOWaUET5SfPzLwFyJD4paRsLO1Rfs3FqFszlIMef5fFG6BrKwMT5hyiMT/U7OWAQOcGJZkvEikGbh86D+IyiqHTGADx5HTMc+9C3R5+8w/Amkebpw7g4ikfFTz28Ch3xhM+ldvvGIolg0YeMlgkBdzBMcvpkNUb4w2XUbDc/7IpjfaGPhrkWVfxN5jyXj1nTmY7tbuhV7pkmZcxqH/RCGrXAaBjSNGTp8H9y7/M7OWAQMaMRTMBgwYMGDAgAEDBgxw8CJPVA0YMGDAgAEDBgwY+NtjKJgNGDBgwIABAwYMGODAUDBzUJV9F/dyFT6paOAv4W9pB7YCmUkZkLzET5nX5iXhflGzgH9LPetDVTYS00r+EQ/+K9vuL6U2D0n3i55Nr8+jjRcOi4rMJGS8zEHdSFU27t7LVfj0tjJ//lhU80st8pLu42Vx4xdDFbLv3sPfJa2q2siAIoaCWRNsFvbNGYTBvodRqBTQ0mtrMbj7cCwPK37JE/w/gL+dHRjk/r4D3v07403PfUjT4W0DdbHrMaz7UCw5V/injIOV3MXRT93h5DQSm6MbnoLn0PPfHrYYcQf8McKpO97ZHve3fluNWtv9VbAS3D36KdydnDByc/TT6fV5tPEnwOT+jh3e/dH5TU/s0yWo/1JYZO2bg0GDfXFYTTA/z7Gw2fswrXtfzNiXxm27FvmFheTuUXzq7gSnkZuhqxvXZYbj0FZfvDtsCIYOn4gPvzyACykVyru9VLBZ+zBn0GD4Hv5zcvsz8U+eA54Xyl8yMdBMZdYdSsipUfpVSjHL3WjQ2ig1X5Yy8CL4+9lBStGfCsn0jRV0Xaq8TRkpxa18iwasiqAy5U0vECbnWxpl2oa8fm3Wq3o9/0OQZdD2Iab02rwz9HcfoTrb/WUwOfTtKFNq4/Xr0+v1ebTxJyCN/pSEpm/QCu1B/ddTmUV3EnI06vP5jIWhvD3jqKfXMcpS+VAfQ8XxtyhD4feW+YWhnG9HkWkbL9LLjWuv0kcOfDIZvoMePc2n2v50KinrTgK9nGlVm40MKGO4wsyBpYML+nZUeuElk4Ps1z/D8Y3D0LrlFgMviL+fHfiwsbGGkfLP6mAe41GHZTixeQT+pE8RAAB41lawVBJQrZ7/KfCtYKU84L8p6mz3l8Gzfna9Po82/gT4NjawfvnFlGPpAJe+HaEpmp/PWKqRwo7DoSAvOCi/frDqBr5ddwgPFC5gt8wvPFhbWeqWIxXhW6ONNQ9G1m3xyt+ierGEg0tfvJRpVauNDCijg8uxqHiUgswKFow4A3FRN5AhYZR3AiPORPy1KMSlFavcmqnOSUJaCYPa/Hu4mVYG5aPZggRcDgtFaNg1pElYgMnH7YuhCA29iLhH1U37VeUkIV3EAnVFSImNRWqxDreTZCI8uBGOqxG3kNkgN1t2H1FhoQgNDUVoWDTSy1kAFciIuYjQ0DBEp0vkx9bmITFV+VbKKxgwpD1ybqWhWHmgVTlISheBRR2KUmIRm1oMHSRsAVvxCCmZFWAZMTLionAjQ6KiL1TnIykmAlG3s1GhKFx1DpLSSsDU5uPezTSUNR3IQJwZj2tRcUhTEVoBtgAJl8MQGhqGa2kSsGCQf/siQkNDcTHuEZos8TTjfMntoJPeGTEy468hKk5Nn5B/pCbjZiSi7uaiRnmbBtvIJDJ07v0qsu9kQk1YtURDG0A18pNiEBF1G9ktHAKQiR7gRvhVRNxSap9npDpZtdBzOR7EyG3f4i8sGukN6x41tq1DzDdSnZsoX4vLSJAZH4u7OVUNW+pQlBqL6Hv58nWYuvomANQVI+16BCJuZEDc1LERjJoGXIfC5Bj1fsFpYxaShzcQeS0BOeUi5Bc0ytpyn7L7UQhr0FdYdDrkbp2BmIuhCA2LwrVrFxEWGoqwa2mQp7vbuBgaitCLcVBId5rtqs52WnIwK3mIG5HXkJBTDlF+AdRJ3oSaWNUMT0GvCnDqURn1bWj2r2rkJKWhhKlF/r2bSGsOBNQWJCMmMhoJ2eVqb4Fz6Ug9MpRl3ERk1F3kqgQ1NNtIHawED29E4lpCDspF+SioYlGQcFlHX2hsowz3o8Ia4jEM0enycVZkxOBig7/Jw7MWeYmpSrfWuceiWd+KKMr8GG/5fYh+T1rKzJbEYdfcWdhxMwsJl8IQntzw3IBSHuepM7qu6HQox7ynYouWm1sig+jBDYRfjcCtzMZ5QVucN+fJ2rxEpCqtceDyQ13qnOr8JMREROF2dkULP9c1znW1EcBRb+gyzz7LsQ08t/pQr7ymHs6CmcmNwm6f/nDo6YXdxzbinX4DMObtQeghHI2AmPKGvSSI+8YbnqtCkJSTjjPLhqGnRwDCS1iwxXEIXjwKTsIx2LB3G94bOhiD+s/DEVHLfnhtO+H1op+wcJIvDqTKAH5bdLRNx66ZE/FpSD7qS27i8JJRcBKOReCJA1joMQ5es8fBufdkBGVoHjiTeRRzB07Ft/dKURgbCA/hUGy8Xg2e5SswTfsBCyZMwpY7NuhgyQNggdda3cTOHfEQ2Ehx98RneMepK4ZvjGp6cEIS9w28PVchJCkH6WeWYVhPDwSEl4BlS3Dz8BKMchJibOAJHFjogXFeszHOuTcmB2VoLBZawOQiarcP+jv0hNfuY9j4Tj8MGPM2BvUQYnRADOTaZlEQtgm+y4IQmXgLvywbCuHwtbhSUoi44MUY5STEmA17se29oRg8qD/mHREBkjh84+2JVSFJyEk/g2XDesIjIBwl6nI7ry06vV6EnxZOgu+BVMjAR9uOtkjfNRMTPw1Bfv3TjfOltoNOeufos2F7ddI+zPbwwYGEPGScXQP/oAfy/thiDbYpRubRuRg49VvcKy1EbKAHhEM34rraSVJTGyKwBWHY5LsMQZGJuPXLMgwVDsfaKyKwYPRoX6yq57r7OLwlCDfyyiCRSCApjcde34mYuvocivmksW1dY54ti8fRZW9D2G0ENoScxPqZM+A9fyoG9RiIZWHxOPLReEyZ9wGmDeyBYeuvo1qbb8qVjZKILZjj/X+4kl2MxN0TIXTzx+kCBWeve4Sfl07HTL+FmOTSG1P2P2zyC24b1yFxlzf8j+dCVpuK4JkD8d6PWWqSPA+Wr5gi7YcFmDBpC+7YdIDcrV9Dq5s7sSPeBJ27dULRTwsxyfcA5OmuI2zTd2HmxE8RIh8Ih13VoTkHA0Bd4i54+x9HrqwWqcEzMfC9H5GlKjjAEav6wK1HXdDkuyyK44KxeJQThGM2YO+29zB08CD0n3cEIpTj+vbJmLA+DvWm5Tj/8UD0eGsU3hk3FZvDq7XqSC3VSdg32wM+BxKQl3EWa/yD8EAhiehlo7pE7PL2x/FcGWpTgzFz4Hv4MYtF206va/WFFvAs8YppGn5YMAGTttyBTQdLyN2rFW7u3IF4gQ2k907gs3ec0HX4RkQ1Jk3OsWjSd3O3zfC0yFwPSb4I5m1agWWlqJJIUF5ZqppfXjRc855aW2gMCBydOxBTv72H0sJYBHoIMXTjdVRrjXMBbKT3cOKzd+DUdTg2NhlCsx+yutQ5bAHCNvliWVAkEm/9gmVDhRi+9gpErD5xzupoI031RpEO8+yzHNuS51EfPo+8Buiwhlkau5y6G9vR6PVh9LieqCp1P02x55OJ6wa6V08kvvABCXssocjGZS9V0bSshwnZzfiZChkiJnsnjTQxp96LL1GxOIWuhN0jkZq1R7LUzdTfrDstj2lYUyWNoeXdzWnQl3+QjIhkD7+iISbW5Lb4NGVKiUjyK820NaWhXz0kleVTREQko/tbB5CF60ZKqiei+pu0upcZOa+7S/VERPVJtOktc7Kfd7phDSxD+Qc/phWhFfLDmQL63t2UrKf/QlVEROIL9IGwBy1pHihFL+tBJnYz6OdChkj2kL4aYkLWbovptFxA+nWmLZkO/YoeqhdQFWksLe9uTHaj11OYXNm0f4o98U1cacO9emKKTtDMUasorkFFTPZOGmFiTC7r7lI9k007R5qQee/FdKlYTClXwuieSEQXPhBSjyWRTWvZqqKXUQ8TO5rxcyGpMQORLJU29zej7stjSN6NlGKWdyfzQV/SH3JD6DnOv4EdtOhda59V0bSiTxead1rcsL2Szi2wJ+PGNczqbFOcQlsHWJDrxiSSq2U19TJzpnV36xUEU0BdGyUFdGLmKFrV7BC0c4QJGbuso7u197nbf3KQJpgprINV1nN9Mp07lya3EVVQ7Oeu1MpmGH15t5ZIxt22rjHP5H9H7qYWNHB1JBXIiEh6h75wNqbWg1bSpcf1RFRPd79wJtMu/hReq903mYLj5OnkQd9nyzurT/6KRrTtQHNPVRJRMe31MCOrQWspspghogr671w7MhvxNWUxOviVNJaW93KmlXHy7UzhMdq8O6VBP6rUJ22it8ztad7phhX2TD4d/HgFyd1aRqmb+5NZ9+XUnO6WU3fzQfTlHzIipkizXetVbcedg6UUu7wXOa+Mk+cAppCObd5NKWoF1xKranlCByeYNa8/1qZHtSi1welfDGXvHEkm5r1p8aViEqdcobB7IpImbaK3WrnRphR5kNff+Zz6mHalRRFyHXLrqFmSZqooekUf6jLvNDVF9bkFZG/csO5Xm42UkMYup17OK0nuPgwVHttMu1PqtfuCWuopadNbZG4/j5rd6yB9vCKU5FmToYLv3cnUejr9UkXax8Kpb3Vok5mh/O/cyczehy7UNhyinF+I6MnBCWSm7xrm+lu0trcxmU44SE+UtzUh5pz3ajTaQhXZ/a00wMKVNsoDgm6u7kVmzs025o5zIqbge3I3tabpckNo9UPuOoehohMzadSquIb8x1D2zhFkYuxC6+5W6RHnpJONOOsNLfPssxyrjmerD58mr6mH8wozAPDMzWHGb4fBk9xhLwAsenhjo68zKCkSkUWlOLv/Z+Q69YVL47IXiwHwnCxE6bnjCJXIjzfhWcPNfRja2fSEu0cftNXaqyr8Vq1gybeCs4cHOpsAsBSiW0ceyiVlUP+pQj6EfocRdcwfjrkRCN52EHFiFtKaWvkVAEFPLPB7G9WnghCSxwLMA5y48Rqmj24lP5xnBatWzfd9ys7ux8+5TujbPFAM8JwMYek5HA+VAPxWaGXJh5WzBzzkAkLYrSN45RKUqRdQFZ45zM34aDd4Etzlyob3Rl84UxIiI4tQGXEKYXkPcG5HIAIDA7HtWA08NgRgjqu5/FgTHqzd3DGsnQ16unugD85j/8+5cOrr0rSWzWKAJyYLS3HueCgaFjzoh97j/BvYQYveS7X0WRm2B4cye2PkKJuG7Wbo7GiHpmV96mzT7g34HY7CMX9H5EYEY9vBOIhZKWpq1V6fUt+GWRROheXhwbkdCAwMROC2Y6jx2ICAOa4w5wv1bL+lniF4E+PGdYcALERhKzHv/x5j1PaDWO5sCmhpW9eY57WyhIWRCTr3c0N7PgATIZwcBEDHfhhiLwAggKNDBxiViyHWZDsFxKEnEGbqArf28s4Eby5HhCgPhyZbNu1j8cYA9G/HA2CGTp1sAYkYYlYHvxLYQ+iQja8nDsfcrSeRYuyJtZ/0hKCp5ZYIei6A39vVOBUUArlbn8CN16aj0a05qY7QbFflfVGmJQcLYC90QPbXEzF87lacTDGG59pP0FOt4FpiVQe06lEXOP2LB3NzE/Cs3eA+rB1serrDo09bsFmZyK1rXtoh6NwZHZGPrKwaHXSk2HkDlWHYcygTvUeOQlNUd3aEXWNQ62UjQGAvhEP215g4fC62nkyBsedafKLeCDogQM8Ffni7+hSCQvLAgsGDEzfw2vTRkLsXD1ZWrZpXLWgbC6e+nxPK+eVFUnaWc96r1MMWfKEfDkcdg79jLiKCt+FgnBistAaNqtEW5zwrKzQPW7sfctc51Yg4FYa8B+ewIzAQgYHbcKzGAxsC5sDVXJ8414CSjaq56g0t8+yzHPs0cOvt2fNaI2qmMW0I0PXNbrBEPaTVhch5XA22rk7hNosAjg724NVJIH4iF+e5hImR0ro9Iz74RgCxmjXME9QgYZcv/ILz0Xe+H0bb8RSKax7spvthqlU4gg4ko+rmz3jYayZcTBq3G8GoaY0Vg6Kcx6hm61CncD9J4OgAe14dJOInYFuskQQAI/DlAmoo6HVD0PVNdLME6qU1eFIiQo1pD0xesRqrVzf+rcKSid3lE7eSopmiHDyuZlHXUmg42PNQJxGjwTx6ov84/452aNZ7NQo5+xQjO+0PSMCHgCuaVIKAB0FNAnb5+iE4vy/m+42GHU+LhEptsBUlENWYosfkFQr+sBqrlkxEd4G+7SvquRk2LwT+Cw9AOv17BC3o2nASoL1t1ZbUoBzTMALPCC3sZMTjAcQldyMMRMWlqJWU6VRcAwCfxwcYGep18SteJyw4chl7Pa0QuWU6+nUfjMWnctTeQgQA8Oww3W8qrMKDcCC5Cjd/foheM13Q5NYccNtVaWemSEsOBjotOILLez1hFbkF0/t1x+DFp5CjQXDuWNWGDnpU3F0j2vxL1btMBozHO6+l4+rFR2AASO+nIbuNOyaMaKWDjlSlYnLT8IcE4GsIar1sBIDXaQGOXN4LT6tIbJneD90HL8YpTUbQAZ7ddPhNtUJ40AEkV93Ezw97YWZz0oSRQmxpG4t2fT8P1OeXF4G2ea/ydT1swROgJmEXfP2Ckd93PvxG26GFarTFuZHCfKSLHyrnRMU6h61AiagGpj0mY4WCz61etQQTu5voFefqUbQRiwrOeoNrnn2WY58SLr09c15rRlMEKUEghZxSX10L1rYHenXsiG5drcGkxON203IQFnXSOvBe7wsXOx2bBwC+AHwQlOtfIr0srkAlLiydhDWiafhukxdcbRuzmEIHrd6Bn7cQKQe/RsCJcoyY0aX5qmAL+OjQrSusmRTENw8UbJ0UdbzX0dfFTldF6gS1VDZqWVv06PU62nSwg0VaCA5cFTdvZzIRej5RzVpKgN+hG7paM0iJv938UBRbB2kdD6/3dYF68/Ah4Ks5ESHSXBxw8vexg3q9d0RHzj474NVX20JQm4zbCdLm4wGAWM0FQuUFLJ20BqJp32GTlyvUqUUbPOsOsLNIQ8iBq2j2CAaZoeeRKHn29iFLR5DvIvzX+kP8+M1U2PEAVlwM0fNo+6ng8k0+XutkD/OiUPxysaxpEysKRdCxdC2+q4NfMblIftwR3ruuIi3lLNb0ycEe/y24omRyRVq94wdvYQoOfh2AE+UjMKNLs1fz5QNRUhmBGC12VQ50fgctOZiQm/wYHb134WpaCs6u6YOcPf7YolZwHWKVEx302GJ/DTxFbPDaTcbOPd4wvfoNNu3cga2nzPFZ6BH4OPJ10JGqVEZtX0VbQS2SbyegpaYILKunjQAwucl43NEbu66mIeXsGvTJ2QP/LVcg1eILmmmFd/y8IUw5iK8DTqB8xAwouFcLtI3lafT9dDK/YJiHOH7oCmq1zHu2eZptoUzlhaWYtEaEad9tgperbdMdJcVxc8V5C57CD1vAs0YHOwukhRxAyxIgFOcTpXrEuS7wYK1nvdHMsxyrgWeqD581rzWjxUINsCXIzqps+Hc+zpxJRC+/jzDarDXGL/JDb/FJ7AxOlz/tyRbickQuhiz6CMNM5YcQZKjXoiW+rT3am+Qh7tIdFBXfx/k9hxAjkqEk9xFKK2rBMgxkxCpMlgQCgWU1FCVsOR5mFqEyJx2PKmuRG3kW1wsYVJcXIOFGcsNOArgsWIhhouM4SRMw/pUWDYBhCcTKW289fhH8eotxcmcw0uUDReHlCOQOWYSPhpkCLANGRmAVkggRQCwrT0rVt7B77ni8H3ARis8gqcKiJDsLcm2zyD9zBom9/PDRaDNYjpkHr85ZCPIciZkBPyLk5GEE+qxErGUXeSATIFNUdOvxWOTXG+KTOxEsFxps4WVE5A7Boo+GocE8LeHbwr69CfLiLuFOUTHun9+DQzEiyEpy8ai0ArXaxqnMy2YHjWjWO3ef5mg3YTbGv5qJA0vX4FxOHSDNxp3kYjDiPGQXlsuTtpJt2PKHyCyqRE76I1TW5iLy7HUUMNUoL0jAjeSGWFNG2b6WYzDPqzOygjwxcmYAfgw5icOBPlgZawnHKi3tMwyYhviR01LPQDXiv5yP1TFdsergFrg3vPNOHHoalwu0tK1jzINhwTZO2g0QAFK4okxEAMvKC14tvmk6dh6mdyzEkQ/+jSU/hOC3YzvwsXcIBIOdwG+wv0qx3fA7t41NASYXIduDcKcaMHN8F2u+mAZHC1OYcV00E7hgwcJhEB0/CZowHs1uzYetfXuY5MXh0p0iFN8/jz2HYiCSlSD3USkq+Jrt2kUAJdtpy8EMckO2I0guON5d8wWmOVrAVJ3gOsWqMgwYpiG+dIlPtbRsQ3tsECCrbznxii9g9fpcTPlmC1b5L8XG7Rsx27lxAYI2HSk2JIfXbgJmj38VmQeWYs25HNRBiuw7yShmxMjLLkS5kRYbKcHkhmB70B1UwwyO767BF9McYWFqBiNtvsDxhJzAZQEWDhPh+EnChJZJEyzDghpO2LWNRVyoTd/KaJOZBzMzU+BJAfLLSnAjOhHVKvkFYORGb4p/VnQZGz3fx+ZwhSJLGbYOtXUEqqlBdYt8Xo3kvRtw3dwVllrmPYFGWyjDovxhJooqc5D+qBK1uZE4e70ATHU5ChJuoEk1GuMcAMuApcYcp90PuescS4yZ54XOWUHwHDkTAT+G4OThQPisjIVlFyPd4xwAoN1GnPWGlnn2WY5VxzPVh0+V1zSgvKhZmfq7X1BfEzsaON2HPl76KX08awp5fn6WspsWZ9dT1pm1NNHVhUbO8KUP588mv68jqYghYkR36MTqt8mOzyd7j7V0Ir5U/YNmRET0hKI3j6FO1tZk7zKNtodfoBWu3WjE3A10NDyKTq5xJ1u+MQln7KALKel0LXgRDbbhkYWLD+2PzlNujIgYyju1iPq3t6I2XYeTz55w+snbgWy6jKft1xU/dSGm3xaMp4B7isu/Kyn17Hoa24FPAsfJtOV8OhER1WedobUTXcll5Azy/XA+zfb7miKLGCKSUOLJNeRuyydj4QzacSGF0q8F06LBNsSzcCGf/dGUm3uQprS3oVdth1BAkoal5vV36Yu+JmQ3cDr5fLyUPv14Fk3x/JzONiubqlKPkv9oJ2pjakLWnYbQwkPJVMWI6M6J1fS2HZ/49h609kQ8lTYquj6LzqydSK4uI2mG74c0f7YffR1ZxGEHoifRm2lMJ2uytnehadvD6cIKV+o2Yi5tOBpOUf/hHmeeSsMvlx1U5dNN75r7JCJiSHzze/Ie6EBtbBzJbcIntGHBQOo8yIs+PxBGl46psQ2TR6cW9af2Vm2o63Af2hP+E3k72FCX8duphVqIiLjsW5VKR/1Hk1MbUzKx7kRDFh6i5Cot7Rem0bl1HtSezyeHyVvodHKBip5rY1dTHzMe2bh60fKVK2nlypX02ZK5NPyN9+lEhea2Yx7pGPOVqXRm/Viy5wuoy9RtdDYpmxJ+20QTO/FJ0GUKBf73Hj2KD6F179oTX9CZpgSGUoaUyzdvUSlDVJV6jPxHC6mdVWuyd/OiHdeKiSEJ3fvPShplyydjoSd9dS6Z0qIO0OIhNsS3dKUPguOokNFiY2kMrRnclZzf9qbPNgTQqoULKfCqhgdnFRH/RgvGB1ALtyYiehJNm8d0Imtre3KZtp3CL6wg124jaO6Go3RLPhD1dq1Rtt0TzhxMJKWYNYOpq/Pb5P3ZBgpYtZAWBl7V8KCbrrHaSA2lnVtHHu35xHeYTFtOJxNpjRVl1LSh0Xe/pLDIE7T6bTvi8+3JY+0Jim8IBCbvOM1yMCUjgGBkRDxjM7K27UYj/I7QfSlp0ZF6GPFN+t57IDm0sSFHtwn0yYYFNLDzIPL6/CBdL+CwkRqkMWtocFdnetv7M9oQsIoWLgykq41G0OYLHIh/W0DjA+61eHipMvUsrR/bgfgCR5q85Tyl12oZS16uBn2ryUWNaJFZlnGQ3he2oVeEk2lHXKFKfqlJO0frPNoTn+9Ak7ecpuQnRLKM72nsa+1p/N5M5d6IiEj6MJwOB04jobERGZnYUd9RHjR27Fga6+FOQ/t0IAubyXSouGFnjnmP0xZKMHmnaFH/9mTVpisN99lD4T95k4NNFxq//XrLD2api/PKVDq7fix14AvIcfIWOp9ey+2HkkQd6pwqSj3qT6Od2pCpiTV1GrKQDiVX6RnncrTZiDTVGzrOs89yrCrPUh/m6pnXNGNEipdz1CBLWAe3QacxIfY2NrmoOXU2oAd1iF7zEW77BGGxuts2sgSscxuE0xNicXuTi8YHigw8Zwx6N2Dgbw2bdwYBQRX4t7cL2FIxyiurUSnOx71fDqPANxS7x6i5jGzAgAEDeqDbkgwA6tc9GNAdFqLYfTj3yizMUVcst8Cg7L8Gg94NGPjbwebhiP8S3OvyL/Tp0hPO/YdgxOgxGDd1Gjzc3sKb6tZIGDBgwICeaC2YZWVleMKUQyRW/h6NAX1gxUlIYMdjw7KRmj+BLCtD2RMG5SKxytd/DLxADHo3YOBvjAA27c3x++IBGD1rMdYGbMHm9Z/hg9kf4rcuC+HTVdsFCgMGDBjQDueSDGnGZRz6TxSyymUQ2Dhi5PR5cO+iy4uRDOiNNAOXD/0HUVnlkAls4DhyOua5d9HpNVQGngGD3g0Y+AcgRd6NczgTkYT8aj7aOPTDmEn/Qu9XDMWyAQMGng+cBbMBAwYMGDBgwIABA//raF2SYcCAAQMGDBgwYMDA/zL/OwVzbR6S7hf9TR7rqkVe0n0UvQhhq7Jx916uwpeGVGErMpGUIXlBuqpC9t17yFUjAFuehfjo60gurNVJzj8HPWzBliMrPhrXkwu55WbEeJD0CFXKv2uhKvsu7qlTnIEXAIuKzCRkSHQxPFCbl4T7OjnJc+Kp44NFeVY8oq8no1D/g/90Xl6fZyB+kIRH+gaxgSa02patQGZSBnQMQSX0iV8GEnG58o8Gnpanzk3PE33srzsvb8Fc/l982LcHxm6JQ4XyNn1gJbh79FO4Ozlh5Obol/yhLhaSu0fxqbsTnEZuRvRzF5ZF1r45GDTYF4cL1TgSk4vfd3ijf+c34bkv7em+yKMFNmsf5gwaDN/DhQoFOYNHIZ/Bb9tZXD/9OTyEvTB54TTNcv4p6GcL5lEIPvPbhrPXT+NzDyF6zzqCRyofIWKQ/fsOzOnXGX0WHEO2ynYO2CzsmzMIg30P4y9Tyf8ITO7v2OHdH53f9MS+NO4oYCV3cfRTdzg5jcRmbU7y3NASx5pgHiHkMz9sO3sdpz/3gLD3LBxRddKXBw6fl15bi8Hdh2N5WPELOrHXDJP9O3bM6YfOfRbgmF5BbKAJDtsCDHJ/3wHv/p3xpuc+aAlBFfSJX0gzcOrrr3D2Dy37tYBF9r5p6N53Bval/Vkx/1dQh9j1w9B96BKcUzWSBp4yNz1H9LK/vii/mPnFw1Bx/C3KaP4mhFoqTs2lNz2+ocQa5S1PAZND344ypTZev9LzaO7FwlDOt6PItI0X/foihK3MojsJOZr1II2mT4Wm9MaK6yRV3vYUMMXxdKuFsSsp604C5SgIwBT+RFM6vEv7RETElNKVgFnkt+cKt5x/Cjragimkn6Z0oHflA6DSKwE0yy+Y7qv18Vr6/WNHMnXbRClqt2umMusOJSgq7oWhW4z+k5FGf0pC0zdoxXXtUcDkfEujTNuQF6eTPGe0xbEKDBX+NIU6vLuP5GF2hQJm+VGweid9aVDv81KKWe5Gg9ZGtfx4xJ9I7e8fk6OpG23SN4gNNKHeto1IKfpTIZm+sYJ0CEEVdIpf2SM65uNFX97VJIMGmDzaM64neR3Lon+09aVxtPKtAbQqokx5Czd656bnj072fwr+/CvMVTfw7bpDeMBZ+NchVdQP3x7xR28z5W1PAc8aVpaaPhH5ssGDtZWlms90PicsHeDStyM0qpVvAxvr59V7FW58uw6HWhjbEg4ufdFRQYC6uCuIrrKEtRkA3itw/+II9vi5c8v5p6CjLericCW6CpbyAeAV9y9wZM88vKH2AX0+LK0sn+rWjqWDC/oqKu5FoVOM/rPh29hA1zDgWVvhT08v2uJYhTrEXYlGlaU15GHmji+O7ME89U760qDW55kcZL/+GY5vHIbWLbf8afAtrWD5NEFsoAm1tm2CDxsba+25VwPa45dB5n5/fIX34eesSQYNVKeAHXcIQV4OeLmj59lgHj9Ch2UnsHmExhfhqkfv3PT80W7/p0OnkK/OTZSvz2MkyIyPxd2cxoVbdShKjUX0vXyV9Soy0QPcCL+KiFuZkDTctWJL4rBr7izsuJmFhEthCE8uAQugOicJaSUMavPv4WZaGRiYoP+ChXijMF1p7WgditOuIyLiBjLE8kbZggRcDgtFaNg1pElYgMnH7YuhCA29iLhH1Q3H8WCkojwZRA9uIPxqBG5lSqDTjbWqPCRGR+H6/WJI64qQmVWhY/8AUI38pBhERN1GdgX3rQqeqrDyNXOZ8bgWFYe0YuXbQCwkD28g8loCcspFyC/gWlhXi7zEVJXbYLKyDNyMjMLd3JqWGxqozk9CTEQUbmdXtLgFWpWThHQRC9QVISU2FqnFDVUWW4K4XXMxa8dNZCVcQlh4MkoaDqzNS0RqIQtAipybF3Ep7iHKmVKkXgnFxdiMhiU46uRUtX8TMhEe3AjH1YhbyGx0OH2ozkdSTASibmdD0TzqbdGMNOcmLl6Kw8NyBqWpVxB6MRYZDWuI1MUAABg1tkkylNyPQ1yK8prnauQkpaGEqUX+vZtIK2s4uDYPiamKS1nAqRNN/QNVyElKh9xsKYiNTUWz2dTHKDh8QDMsChIuIyw0FGHX0iAPj9u4GBqK0ItxaA4PzfJopDoXifeLwIKBJDMesXdzmtaE1xWlIjb6HvKVkxJnDAGADGUZNxEZdRfqw0BDDPOM1E/sjBiZ8dcQFZcGtd2poKF9tSjHB4cOpTm4efES4h6WgylNxZXQi4htdFIAjDgT8deiEJdWrLJkTTU3P53uNfsiOH1Yvc+/ggFD2iPnlhq9VuUgKV0EFnUoSolFbGqxlqVl3LlTo26MGm1OkJXcR1xcisqacLW6g+Zcow5W8hA3Iq8hIaccovwCVLEFSLgchtDQMFxLk4AFg/zbFxEaGoqLcY+gOOOoolnPGu3DVuBRSiYqWAbijDhE3chQsZ/GYxuoK07D9YgI3MgQt5xn1dlWVoaMm5GIupsL1RDUNmdri18FKq9g+1cJcJ08uuVJlyb/UdT747fg92E/PFGn96eIDXDkVo0+pFduqUZuovw5HEaSifjYu2gu4YqQGhuNeypCySCRdUbvV7Nxp0nXlXgYKx9zaGgYIpJLIM291ZDPbyGnSQ7l3PQ0/es7Ruhgf33yq3o4C2a2LB5Hl70NYbcR2BByEutnzoD3/KkY1GMgloXF48hH4zFl3geYNrAHhq2/3uA0DDKPzsXAqd/iXmkhYgM9IBy6EderWUjyRTBv0wosK0WVRALx4xsIXjwKTsIx2LB3G94bOhiD+ntjb/gJfPaOE7qOaF47ypZEYMscb/zflWwUJ+7GRKEb/E8XAG074fWin7Bwki8OpMoAflt0tE3HrpkT8WlIvpqgAsBk4ujcgZj67T2UFsYi0EOIoRsb5VdHNVIO+WHc7G24mJKGqK9nwKVzT0zZlwZWh/7ZgjBs8l2GoMhE3PplGYYKh2PtFZGORQcASRy+8fbEqpAk5KSfwbJhPeEREN5QgNYhcZc3/I/nQlabiuCZA/Hej1lqJgkW4rsNeh2+EVFN/lmNpH2z4eFzAAl5GTi7xh9BDxS0xhYgbJMvlgVFIvHWL1g2VIjha6+gpOgmDi8ZBSfhWASeOICFHuPgNXscnHtPRlAGA1aSD5F5G7RiWUirJJCUV6NOfBcnPnsHTl2HY2NULQBCXVU5JFX1ANWjqlwCyZNqiG6ryqnJ/iwAJvMo5g6cim/vlaIwNhAewqHYeF2zNVvCoiBsE3yXBSEy8RZ+WTYUwuFrcUWkm3WorgrlkirUg1BfVQ6J5AlqmXoNMaB4YBHO+w+Gy2B3DO3tiB6TvkV8JYviuGAsHuUE4ZgN2LvtPQwdPAj9vfci/MRneMepK4ZvjGoqrjXrRHMMltw8jCWjnCAcG4gTBxbCY5wXZo9zRu/JQchgVGO0vFqm0Qe0q4iHtp1eR9FPCzHJ9wDk4dERtum7MHPipwjJr9cij3J7ANgyxB9dhreF3TBiQwhOrp+JGd7zMXVQDwxcFob4Ix9h/JR5+GDaQPQYtr5Z55wxBKA6Cftme8DnQALyMs5ijX8QWoaBfjEsifsG3p6rEJKUg/QzyzCspwcCwptPPpTRvX3lONZmUwBUh6pyCeRhVoVyiQRPahmwkCDuG294rgpBUk46ziwbhp4eAQgvYcEWx6nm5rdmImCPvrrX5IsNo9Hkw6wYd9X4vEa9siW4eXgJRjkJMTbwBA4s9MA4r9kY59wbk4My1M8DnLlTs26aIRSd98dgl8FwH9objj0m4dv4SvW66z8PR0T65Zq6xF3w9j+OXFktUoNnYuB7PyKLbYtOrxfhp4WT4HsgFTLw0bajLdJ3zcTET0OQr36gmvWs0T4McqN2w6e/A3p67caxje+g34AxeHtQDwhHByCmHFptC7YEEVvmwPv/riC7OBG7Jwrh5n8aBTL1tq1O2ofZHj44kJCHjLNr4B/0QKFA1DJna4lfZSouH8N/C97EW281XAfV5j88LXqvf8q8pCG3lhRq8iGOGFAcoLxxlMUfxbK3heg2YgNCTq7HzBnemD91EHoMXIaw+CP4aPwUzPtgGgb2GIb1jUJp1LU5XrWVIXrrTIyftB5RZAVji2wcW7YF4bVt0Eagmpueqn+uOG8eXEu02F/3/KoF5TUayjD535G7qQUNXB1JBTIikt6hL5yNqfWglXTpcT0R1dPdL5zJtIs/hdcSkew+bR1gQa4bk6ieiOpvrqZeZs607m49ETGU/507mdn70IXahvazd9JIE3PqvfgSFYtT6ErYPRIxDBV87968dpQpoOOeTuTxfTYxRET1yfTViLbUYe4pqiQiWepm6m/WnZbHNKxXkcbQ8u7mNOjLPxrWGD2hgxPMmtYwy+5vpQEWrrQxSS7/zdW9yMx5Hd2tbx63IhW/L6FeLisopqrhB2ksLX/DlHqtvkn12vpniujEzFG0Kq5hG5NNO0eYkLGL5v6eHJxAZk3rZsV04QMh9VgS2bQmqCp6GfUwsaMZPxcSI42l5b2caWWcfCtTeIw2704h9U036NV6Ov3SMJaq6BXUp8s8Oi1u2KXyHC2wN25Yw8xQ0YmZNGpVXMN6Zoayd44gE2MXWne3nmQPv6IhJtbktvg0ZUqJSPIrzbQ1paFfPSRZo++Y2ZNPo7GJiCn4ntxNrWl6owBEVPXTJDKz8aSQpp+U5OS0v4zubx1AFq4bSW7Om7S6lxk5r7urQQctYYpO0MxRq6jZPDtphIkxuTQc39IWGqj6iSaZ2ZBn4wA4Y0Dubyb2E2nXTRHJqJKS9k8jR2NTcgtIpHpiKHvnSDIx702LLxWTOOUKhd0TEcMU0PfupmQ9/ReqIi064exfRg+/GkIm1m60+HQmyc02k2xNh9JXD2VqYpTbB7Qjo9TN/cms+3JqDo/l1N18EH35h0wHedTA5NN37qZkMXA1RcqTEt35wpmMWw+ilZcey8d89wtyNu1C/uG12mOIqih6RR/qMu80NYfBArI3blgDpy2GnxykCWYKa5jFF+gDYQ9aEtnUG0Uv60EmdjPo50Km4TcFtLWvgnIc66LDKvppkhnZeIbI/YeIxBc+IGGPJdQsZjQt62FCdjN+pkJGQ26u11P3XL7I5cMk9/EWPq9Nr7KH9NUQE7J2W0yn5QmJfp1pS6ZDvyK1rsSRO7Xppv7mauplYk8Td90kkYyoMmk/TXM0JlO3AEqsV6+7kgLuXNMSKcUu70XOK+PkPssU0rHNuymlnohkqbS5vxl1Xx7TEJNSilnencwHfUl/qBsnl5657ENSil3enYztRtP6sMdUT1WUun8K2fNNyHXDParnPJahguOe5OTxPWXLO6Xkr0ZQ2w5z6VSlGttWRdOKPl1oXvNEROcW2JNxwxpm7jlbS/yqIKWYZd3J+PWFFNY8NWn3H2161zsvcedWdT4kEmmJARXk+dzUYiCtjiwgeQn3BTkbt6ZBKy+RvIS7S184m1IX/3CSl3BcuiaSPQqmye1NqJvfGYreMZc+Cnks96uG/lrmJv371xrnKmixv975VTOcV5gBgNfKEhZGJujczw3t+QBMhHByEAAd+2GIvQCAAI4OHWBULoaYAPCF8DschWP+jsiNCMa2g3EQs1LU1Kqv5Xnm5jDhWcPNfRja2fSEu0cftOXxYGXVqvnytzgUJ8JM4eLWXv6b4E0sjxAh79BkWLZoTTf4Qj8cjjoGf8dcRARvw8E4MVhpDdSLWI7ze4+iYsA7cLVo+InfGq1baVWdnOoInArLw4NzOxAYGIjAbcdQ47EBAXNcYa68rzrKzmL/z7lw6uvStCbIYoAnJgtLce54KCQCewgdsvH1xOGYu/UkUow9sfaTnhAoNSNHrtfm28eVCNtzCJm9R2KUTcNPZp3haNe4MqsaEafCkPfgHHYEBiIwcBuO1XhgQ8AcuJoD/FatYMm3grOHBzqbALAUoltHHsolZdD0NRyelRVaqb1/rYiSnJz250PodxhRx/zhmBuB4G0HESdmIa2p1enssTriFMLyHuDcjkAEBgZi27EaeGwIwBxXnayjHh1igG/3Ftz7tQUflug1fwc+HWqEpKhrKGV5MDc3Ac/aDe7D2sGmpzs8+rQFj2cFK0XFcemEs38+WrWyBN/KGR4enSE3Wzd05JVDUqbOatw+8OzoKw8AXitYWhjBpHM/uMmTEoRODhCgI/oNsYcAgMDRAR2MyiEWk/YYqgzDnkOZ6D1yFJrDwBHNYaBfDJed3Y+fc53Q16WpNwzwnAxh6TkcD5Uo7a1/+yrx8TQ6RBnO7v8ZuU590SzmAHhOFqL03HGESjTkZoGeuufyRS4fBgAln9eqV34rtLLkw8rZAx7yhARht47glUugVg0ac6d23QAA+HZ4y70f2vIBy17zsePToTBKisK1Ulat7syi9Mk1AtgLHZD99UQMn7sVJ1OM4bn2E/RUn9i54dIzl33Ag7m5GfjtBmOSuz0EsEAP743wdSYkRUaiyIjrWDFCT4TB1MUN7eWd4s3lERDlHcJkS1XbVobtwaHM3hjZPBGhs6Nd0xphzjlbW/yqIENubgHQqjVaK85F+vqPMvrmJS25VZ0P4byWGFCBh1aWFjAy6Yx+bu0hL+GcIC/hhkBewjnCoYMRysViyEs4Dl0D4DvOxa6vJqLqgBd8M97Dpmn2CksVlHOT/v1rjXNltNlf7/yqGe1VX9NaraYfwDNCi4LIiMcDmj4YyIOgJgG7fP0QnN8X8/1Gw47H7W3q6qemdZ4AGFExSmslKBNzt6MzPAFqEnbB1y8Y+X3nw2+0HTSKyOTjYVYlBCbGauXUBltRAlGNKXpMXoHVq1c3/a1aMhHddUh+TFEOHlezqKtTWOMjcISDPQ91EjGeoBMWHLmMvZ5WiNwyHf26D8biUzkabkHK9do0DiYXaX9IAL5AvSOwFSgR1cC0x2SsUJB99aolmNhdoOobRnzwjQBiNSmzwZ90UKSinNrszxPUIGGXL/yC89F3vh9G2/E0FuwtYVFRIkKNaQ9MXqEwvtWrsGRidw0nHbqgZwzw2qFLZxsYMTLUA5oiQo+Y4O5fsR0AMOLzYQSCWrNp84HngF7yAA26UPpFNSmBBwLpEEPi7DTIw0BtFOgZwwyKch6jmq1Dy+4cYM+rg0T8ROVETr/25bSI46fRIVOEnMfVYOvqFNbPC+DoYA9enQTiJ3IpVT1RP91z+SK3D0PJ53XRq7JsRuDLE5L6fMDTkDt11E1LeGjXpTNsjBjI5EGspDt9cw0PnRYcweW9nrCK3ILp/bpj8OJTyNGU2Dng1rNm+6hF0BVvdrME6qWQEsexjAjFpbWQlMmLIFVa2jY37Q9IwIeGEOScs5lc7vhVhVBfXw9CS7dV9W0t/qOC8vFaYkOH3NqyOV1iQBXl3AAjHoxaCoWWJZxmXTfsAPuxM+BhzyAz/BLuKNWw2nITd//6j1Gb/Z8mv2pCfQ/PQuUFLJ20BqJp32GTlytsGwXSzePUwn+tE+zNixD6y0WUNf7IihAadAzpDAC+AHw1kwOR+uxSeWEpJq0RYdp3m+DlatuUrNSKaGSDNq2Bx/Fxat6r2wBH/zzrDrCzSEPIgasQN21hkBl6HomqC41V4Hfohq7WDFLibzev12LrIK3j4fW+LrCjXCQ/7gjvXVeRlnIWa/rkYI//FlyRtmxHLUZt8WpbAWqTbyNBaX9iWYBnjQ52FkgLOYCrzcKDyQzFeV2Ef05w278SF5ZOwhrRNHy3yQuuejkcD9Yd7GCRFoIDLQeI0POJataB64jeMVCNktIadHLuh9d0jEhOnZTr2z8Hz8EH+AK+mkmHoCE8nzvaYqjDq6+iraAWybcT0DIMCPIw0CeG+ejQrSusmRTE325ek8fWSVHHex19XexUkq5+7T8n+B3Qras1mJR4NIvJok5aB97rfeFipyzlU8IRC5w+rOIb+utVK4yG3Cl7Ot1Ul5SippMz+qkNYn1zDYPc5Mfo6L0LV9NScHZNH+Ts8ceWK1IAfMhDSmXCUXuhhFPPuuQKIoUipR7VtSxse/RChxqOY/mvoZO9OYpCf8HF5k4hCg3CMRXjGqHtq20hqE3GbdWJCKyWOduoLXf8qiJA+9dehVFVBar0yon66V0reufWFxADauDSNQCAzcOvmy7irSOH4FmzHx+tCkWZWj0/DfqPUZv9n2d+Ve5bFYYFq+R4BICaTkca/s2y8gfcyh8is6gSOemPUFmbi8iz11HAVKO8IAE3kqthZmYKPClAflkJbkQnohoAQYZ6JcFZhpVPsiyA1mMxb3pHFB75AP9e8gNCfjuGHR97I0QwGE58gG9rj/YmeYi7dAdFxfdxfs8hxIhkKMl9hNKKWgAMGEZeBLJgUf4wE0WVOUh/VIna3EicvV4AprocBQk3kFzZUg7wbPGvf4+E+Y0vMfOjPbh48zZ+P3QQvxc0hwhn/+wwzPPqjKwgT4ycGYAfQ07icKAPVsZaoouGsxtGLqxc563HY5Ffb4hP7kRwuvwJSLbwMiJyh2DRR8NgyuQiZHsQ7lQDZo7vYs0X0+BoYQoz1UtDQINeqSEJgdcOE2aPx6uZB7B0zTnk1AHS7DtILmYgzstGYbkRxszzQuesIHiOnImAH0Nw8nAgfFbGwrKLACzDQEasQgIhEAgsK2+fZ2YGUzxBQX4ZSm5EI7EaAMuApZb+VFdXD6qrg1ThtxZyctnfqBwPM4tQmZOOR5W1yI08i+sFDKrLC5BwIxnVt3Zj7vj3EXCxoLlxBSzHzINX5ywEeY7EzIAfEXLyMAJ9ViLWsgsEyrbQRF0d6qkOdQ0D4I4BuYNRdTkkDdFdm3QARx/+C18sHgQT+VZAVq80ibJgWJKfyIBbJ10qufp/AoaRgViFEzyihjGyAHhKMfoQQzh8ANW3sHvueLwfcBEFanXEh619e5jkxeHSnSIU3z+PPYdiIJKVIPdRKSpqWS3yqIMByzac1DUiT0rNSZ0IBBYsoz2GzNtNwOzxryLzwFKsOZeDOkiRfScZxYwYedmFKDcawx3DDAOmwe8BoPX4RfDrLcbJncGQd8ei8HIEcocswkfDTJtEbsJSS/tqaBEf0EWHdairJ9TVSRuOaY3xi/zQW3wSO4PT5W+AYAtxOSIXQxZ9hEYxVXOzfrrnjIXcYRp92IkPFZ/XqleWASMjsAonZ3I1aIhfjblTN92AqlHeHMQ4cPQh/vXFYgySB7GK7rTlmpYwyA3ZjiC5cHh3zReY5mgBUzMjgG8L+/YmyIu7hDtFxbh/fg8OxYggK8nFo9IKlTdWPX2ukOcqtiQbWQ3zIpt/BmcSe8Hvo9Ew4bJtMh9j501Hx8Ij+ODfS/BDyG84tuNjeIcIMNiJr2RbHtpNmI3xr2biwNI1OCefiHAnuRiMOA/ZhWIUcszZqeZa4re57mrAGH3fcoZZaW7z2xogn5s4/Uer3vWLDcCSc36VH97Sh7TGgBoYuVAKJz0EgJqvKDf8m2UZQGt9VIf7QetxbdB6fDD0PfzfNzNQd/BjLD/T/BXllrlJ3/71HyPvWfO3Pigvam5BZSqdWT+W7PkC6jJ1G51NyqaE3zbRxE58EnSZQoH/vUeP4kNo3bv2xBd0pimBoZRRk0enFvWn9lZtqOtwH9oT/hN5O9hQl/Hb6bqESJZxkN4XtqFXhJPpq4vRdGL122TH55O9x1o6EV9KDBFVpp6l9WM7yNvceoHSa4moKpWO+Y8mYTsram3vRl47rlFx0/rvJxS9eQx1srYme5dptD38Aq1w7UYj5m6go7ceU9q5deTRnk98h8m05XQyMXmnaFH/9mTVpisN99lD4T95k4NNFxq//br6F+HL8unS+gnUo10rsnYcRUtDQmm9m3nTQ3/c/ZcSVaXSUf/R5NTGlEysO9GQhYcoufmZtxbUpJ2jdR7tic93oMlbTlPyEyKqz6IzayeSq8tImuH7Ic2f7UdfRxbJF9pLY2jN4K7k/LY3fbYhgFYtXEiBVwsVFuE306xXR5q85bxcr4yYbn7vTQMd2pCNoxtN+GQDLRjYmQZ5fU4HrxcQURWlHvWn0U5tyNTEmjoNWUiHkquIJIl0co072fKNSThjB11ISadrwYtosA2PLFx8aH90HpEsgw6+L6Q2rwhp8o44qqhMpbPrx1IHvoAcJ2+h8+mVlHn1B1o09BXi8Wxp1Iog+s/1x1SuTk6N9mco79Qi6t/eitp0HU4+e8LpJ28HsukynrZfL6O8g1Oovc2rZDskQFkdTVSlHiX/0U7UxtSErDsNoYWHkqlKky2UqM+8Sj8sGkqv8HhkO2oFBf3nOj2u446Bqj/O0OZZI+it4ZPI++NF5PvRJjr7sIaIGBLdOUGr37YjPt+ePNaeoPhShogqKfXsehrbgU8Cx8m05Xy6vHNNOmE093855iStcbclvrGQZuy4QCnp1yh40WCy4VmQi89+is5jWsTojrgKzT5AREzeQZrS3oZetR1CAUkanqB4Ek2bx3Qia2t7cpm2ncIvrCDXbiNo7oajFB71H63ytKSSUs+sp7H2fBJ0mUrbziZRdsJvtGliJ+ILutCUwP/SvUfxFLLuXbLnC6jzlEAKzZByxxARMeKb9L33QHJoY0OObhPokw0LaGDnQeT1+UG6XsBojuGaNDq3zoPa8/nkMHkLnW5wkvqsM7R2oiu5jJxBvh/Op9l+X1NkkfJYFNDUvhqU4zg+XotNszPo6g+LaOgrPOLZjqIVQf+h649lRFRPWWfW0kRXFxo5w5c+nD+b/L6OpCKGiBHdUZObn0L3Dx5p9MXrEg4f1uDzmvUqocSTa8jdlk/Gwhm040IKpV8LpkWDbYhn4UI++6NJxZU4c6dm3RARUdUfdGbzLBrx1nCa5P0xLfL9iDadfUg1pEl3DYdpyDWqSClmzWDq6vw2eX+2gQJWLaSFgVep8ZmnJ9GbaUwna7K2d6Fp28PpwgpX6jZiLm04eotKlcdJHHrmyBXXJfV094u+ZGI3kKb7fExLP/2YZk3xpM/PZssfpuc8luR545g/jRa2I6vW9uTmtYOuFWvKZwyJb35P3gMdqI2NI7lN+IQ2LBhInQd50ecHr1NeLvecrTV+lWAKDtKkV4W0JKrxoUDd/Eez3qMo9r96xkaGVGNu5fIhzTGgSmXqGVo/1p74gi40ddtZSspOoN82TaROfAF1mRJI/733iOJD1tG79nwSdJ5CgaEZVKOxPvqdru1/n3q060+fhuWQjBjKu7qKBlsbEa/dMFpy9C49Tm6Zm+4m6N+/VM8xki721yO/cmFEipeKDegGk4rNA93wy5hI3N36lpqrAwZeKuqiseaj29j642LlLQaeC3WIXvMRbvsEYXEXjU/aGDBg4G+FDAnr3DDo9ATE3t4El3/URFeNa8sHYanZAcRtdjPM4QZ0QvuSDAMG/s6wIsTuO4dXZs1R3mLgucBCFLsP516ZhTmGYtmAgX8k6la0/L2xwLAvduGdO7vxc+4/b3QGXgyGgvlpkJWitFyGSskTNQ9rGHh5YCFOSgA7fgOWjdTz854GdIIVJyGBHY8Ny0bCoGEDBv5JyFBW9gRMuQhinb609jej9Qhs2vsesr77ATEaPh5jwIAihiUZ+sLkIebIcVxMF6HeuA26jPaE70hH5b0MGDBgwICBvylSZFw+hP9EZaFcJoCN40hMn+eOLg0PNP6jkObgZhLQ362T8hYDBlpgKJgNGDBgwIABAwYMGODAsCTDgAEDBgwYMGDAgAEODAWzAQMGDBgwYMCAAQMcvJwFc1U27t7LVX0B+wuFRblY8nRf7DHwfGErkJmUAclL9xxGLfKS7qPoucjFQCIuV/7x2anKRmJayV/7VDtbDrHEEEkGDBgwYOCfw0tYMLPI2jcHgwb74nDhnzvt1yYdx7otJ/FQl89KG1CgHP/9sC96jN2CuArlbfrAIPf3HfDu3xlveu5D2kvzChIWkrtH8am7E5xGbkb0sz4xLs3Aqa+/wtk/nuMA2WLEHfDHCKfueGd7nPzrZH8ZtUg6vg5bTj5U+lSpAQMGDBgw8PfkJSyYeXBc+BOux+7H3PZ/png8vDb8I6wYfAvLPv4FOS/RBTK25DbiH75EAilTGY7/XrOD3/ZlGGilvFEf+Og42h++I15R+GzmywAPNi5eWDpJ+OxyMVk4/sl6PBi9BLP7v6K89enh2WKg9xKM76q84S+A9xqGf7QCg28tw8e/5Bju2hgwYMCAgb89f2ZFqjuWDnDp2xFmyr//CdiM+gyzpJvwyYFHL8lEX4Ub367DoQfP8Wrkc6YuVYR+3x6Bf+/nYTE+bGysYaT8818OD9ZWls8oF4PM/f74Cu/Dz/l56EoJvhWsLJ9NwueHDUZ9NgvSTZ/gwKOXI5IMGDBgwICBp0WHgplFxaMUZFawYMQZiIu6gQzl9YkyER7cCMfViFvIVNrGSh7iRuQ1JOSUQ5RfgKrmgyB6cAPhVyNwK1N57bAU+YmpUF6RUZ2fhJiIKNzOrmixRrM6JwlpJQxq8+/hZlpZc1uMGJnx1xAVl4Zi5XvUrAQPb0TiWkIOykX5KGgSrC3GTu2H+O1fIbxZ2AZYiFIiELUMBckAABKPSURBVBYaitDQUFy8kYVqAKjOwo2LoQgNi0CKhhegy0QPcCP8KiJuZaJRRWxBAi6HhSI07BrSJCzA5OP2xVCEhl5E3KNqgC1B3K65mLXjJrISLiEsPBkljc1zja0qB0npIrCoQ1FKLGJTi1U/sMJ1fHUuEu8XgQUDSWY8Yu/mNNmtrigVsdH3kK+wwNyk/wIsfKMQ6S0W93LZVw2yMmTcjETU3VzUKG8DgOp8JMVEIOp2NirUqZgtw/2oMISGhiI0NAzR6eVgAVRkxOBiaCjCoq7h2sUwhIaG4VqaBCwY5N++KLdj3CO5HRvR0BfPSH0xyogzEX8tCnFpxdxLISqvYPtXCXCdPBqtlbdp6FMnWzZhhGYR61CYHKN+f07b5yAprQRMbT7u3UxDWYPh1PmvHBaShzcQeS0BOeUi5DcHEtB2LKb2i8f2r8IV4t6AAQMGDBj4+8FZMDO5Udjt0x8OPb2w+9hGvNNvAMa8PQg9hKMRECN/YInJPIq5A6fi23ulKIwNhIdwKDZel5cfdYm74O1/HLmyWqQGz8TA935ElgwAk4mjcwdi6rf3UFoYi0APIYZuvI5qAJJ7v2Dlv7qh6+Av8HtjUcYWIGyTL5YFRSLx1i9YNlSI4WuvoKQwDsGLR8FJOAYb9m7De0MHY1D/eTgiAiRx38DbcxVCknKQfmYZhvX0QEB4w8NQdYnY5e2P47ky1KYGY+bA9/BjVnNZYe7qijfyTuHYVeVpngfzVlW4/MV0jPfagyzbdvKr4GavgB+zGWvOVcGmlbJKGWQenYuBU7/FvdJCxAZ6QDh0I65XA7y2nfB60U9YOMkXB1JlAL8tOtqmY9fMifg0JB/1knyIzNugFctCWiWBpLwaMnCMjS3BzcNLMMpJiLGBJ3BgoQfGec3GOOfemByU0VS0aj6+DPFHl+FtYTeM2BCCk+tnYob3fEwd1AMDl4Uh/shHGD9lHj6YNhA9hq3H9WqAFd/Fic/egVPXEdjcuLiXw77qqE7ah9kePjiQkIeMs2vgH/RAocBmURC2Cb7LghCZeAu/LBsK4fC1uKJ8YsKzxCumafhhwQRM2nIHNh0swQNg8Vor3Ny5A/EmndGtUxF+WjgJvgdSIQMfbTvaIn3XTEz8NAT5jB59NSFB3Dfe8FwVgqScdJxZNgw9PQIQ3nRW05KKy8fw34I38dZbileXNfRZUqSTLdVS9wg/L52OmX4LMcmlN6bsf6iD7YsRF7wYo5yEGLNhL7a9NxSDB/XHvCPFGv0XqEPiLm/4H8+FrDYVwTMH4r0fsxQKdHO4ur6BvFPHoBJKBgwYMGDAwN8J0oI0djl1N7aj0evD6HE9UVXqfppizycT1w10r15G97cOIAvXjZRUT0T1N2l1LzNyXneX6klKsct7kfPKOKohImIK6djm3ZRSTyS7v5UGWLjSRvlBdHN1LzJzXkd36+V9lgb9i0wt/03HqoiIGCo6MZNGrYojKcn/n71zBJkYu9C6u/XEZO+kkSbm1HvxJSoWp9CVsHskEl2gD4Q9aElkTcMoqih6WQ8ysZtBPxcyJI1dTr2cV1KcXDAqPLaZdqc0dE5EVHOKZr9qTG+siG3osyVVkUtIaNqDVsTWyn9gCunw7Bm0N4dR3pVIdp+2DrAg141JJFfRaupl5kzrGgYrS91M/c260/KYhp6kMbS8uzkN+vIPkhERk/8duZvZk8+Fhr7E3GMj2UP6aogJWbstptOZUiKS0K8zbcl06Ff0UKbD8Uw+feduShYDV1NkgYyIpHTnC2cybj2IVl56LB/D3S/I2bQL+YfLZWIKvid30zbk9au8TW32bUFVNK3o04XmnRY3/FBJ5xbYk/EbK+i6lIgpOkEzR62iuAb1MNk7aYSJMbmsu0uqzdVT0qa3yNx+Hp2WyH9h8g/SxytCqYKISJZKm/ubUfflMQ12lVLM8u5kPuhL+kOmva8nByeQWRsvahgmiS98QMIeS6hZldG0rIcJ2c34mQpVXEFKMcu6k/HrCymswZREWvrUZksVimmvhxlZDVpLkcUMEVXQf+fakdmIrymL0cX22bRzpAmZ915Ml4rFlHIljO4Vp2j2X2ksLe/lTCvlgURM4THavDulhV1qTs2mV43foBWx6iLJgAEDBgwY+HugfDlUBZ65Ocz47TB4kjvsBYBFD29s9HUGJUUissgIQr/DiDrmD8fcCARvO4g4MQtpTS1YCGAvdED21xMxfO5WnEwxhufaT9BTAPCFfjgcdQz+jrmICN6Gg3FisNIa1DZcmDNvZQFBkwTViDgVhrwH57AjMBCBgdtwrMYDGwLmwNVcLp8Jzxpu7sPQzqYn3D36AOf34+dcJ/R1abySZ4EBnpMhLD2H46ESCOyFcMj+GhOHz8XWkykw9lyLT3o29wgjG7S2IuRn5ajezgZgMcQfnwzNw+GvT6KIBZjsEJw3noJpHdWoky+E3+EoHPN3RG5EMLYdjIOYlaKmcbB6UnaWe2zgt0IrSz6snD3g0dkEgCWE3TqCVy5BGelwPK8VLC2MYNK5H9za8wGYQOjkAAE6ot8QewgACBwd0MGoHGKx/Ak4npUVFC+sa7OvIpVhe3AoszdGjrJp+MUMnR3twG/4X3XEKYTlPcC5HYEIDAzEtmM18NgQgDmu5gqtNCJAzwV+eLv6FIJC8sCCwYMTN/Da9NFopbyrGvTrqwxn9/+MXKe+aFblAHhOFqL03HGESpR2hwy5uQVAq9ZorbCyg7NPLbbUhMUbA9C/HQ+AGTp1sgUkYohZXWxvDnMTHqzd3DGsnQ16unugT7s3NPuvwB5Ch2x8PXE45m49iRRjT6z9pKdC7AJGNq1hRfnIylEXSQYMGDBgwMDfAzUVnjYE6PpmN1iiHlIpgSeoQcIuX/gF56PvfD+MtuOhoYxCpwVHcHmvJ6wit2B6v+4YvPiU/O0TPAFqEnbB1y8Y+X3nw2+0HXiKBYCRUfPDVWwFSkQ1MO0xGStWr8bqxr9VSzCxu3xqbrmylEFRzmNUs3WoU1hnK3B0gD2vDhLxE6DTAhy5vBeeVpHYMr0fug9ejFOKr8UwMoaJMcCyaio8AOB3wZyl02B2/mvsTapFytFwvDZjPNoq7wcA4EFQk4Bdvn4Izu+L+X6jYddisPqgfWxsi3WsAGAEPt8IIBb0VMcDRjwjNBi18QfwQM0/KdoLOti3CQa5aX9AAj4Eaj2RRUWJCDWmPTB5hYLtV6/CkondWxRmjfDspsNvqhXCgw4gueomfn7YCzNdTJR3U4OefTFFyHlcDbauTuF94QI4OtiDVyeB+Imy7xDq6+tBUFSltj6VbaFoS93g8/gAI0O9TrZXCSZu/+V1woIjl7HX0wqRW6ajX/fBWHyq5VsxjIxNYAwWmkLJgAEDBgwY+DugtkxRhUAKE159dS1Y2x7o1aEGF5ZOwhrRNHy3yQuuto1lBcmLoeTH6Oi9C1fTUnB2TR/k7PHHlitSVF5YiklrRJj23SZ4udo2FSNqiwCeNTrYWfx/e/caFNV5xgH8D4tAURGiIogRBKWdRlEGakSiEIM6KmqsQY2XiBEJMZWqk6jBSyxqaHGiLY1FG/FWGzo4xChepjEUMSBqkCIBhRnltiIXQUQBuew5/35YA8hlwSRabZ/fp509u/vOeZ9zZp/zzHtBTmw0Eqpa3lbyTuNkZkdVKw0GDnOGpZKNtMsto2bVxgY0Gg/CSDc7UJuFmy8GIDIhB9nxoXAtisKKbV+3rBnLOtTWGaHvAJvmSmdbfSavxDuu1/DZ78OwK/0lLHzVou1H9GpOYdXMUFT6f4ot893xSBcBgMYEGhBqm5MnOxql2vW5GQ7oj/1+93Q/vkZ4od8LMKnPwuWMNiv2UoUKY1gOtINFTiyiHw0+Tp/M7LD6D/TCpOAAuGTvx46wGFR7z4NTcxA1MNEAbN/ZUB63Lc1ADHO2hJKdhpauVNHY0AjjQSPhZte2J01gO6AfjGrvo7a5+cds80f5gbE3dP0qWmTdfBEBkQnIyY5HqGsRolZsw9etQsm6WtQZ9cUAm87uJCGEEOLZ1+F/ZDvqbRQW1Dx8fQvHj2diePByTDCtxo28MtQU5SK/ph7apHikliioqy5BxsVMaGMjsCe9DjB3xNTQjfB3tICZOVF9Iw9lNUXIza9BvTYJ8aklUOqqUZJxEVkPm2nRExOXzMeQgj2Y67MAYXtjEXcwHIFrz6Onk/7fm9ChqVV20ccvBMEjqhC3cx9yGwFARemZs9B6hWD5ODMo2lhE7ElHHczhODUUG/0dYWFm3lJcqyvGrSpzuHq4okfLzz7K5JdYttIPTUf+iGzPhXBvV4LUU6tvIK+sBkW5+aip1yIpPhUlSh2qSzJwMasGGht72JoW48JX6Sgrv4aTUQeQUqnDbW0+Ku7Xw9jcHGa4h5Jbd3D7YjIKJxg+N6gKFB2htqpCkgBVfZWvq74BFKiq/vPNqP+R5jyPBKFC/T6nVxWo0LcJqI8RX2P0n74Ifv3yEL0qFCeKGoGGQqRnlUOpKkZhaTWMJi7B/CEF2DPXBwvC9iI27iDCA9fifE+n9lXfh0zcliJoXCU+jyOm+7Va61hjA3tbUxRf+ArpZeW4djIKB1IqobutRX7FfWi6aEtRFH0irwJAH/iFBGNEVRx27svVr46hluLMWS28QpZjnFlLs3o9MPJXo2BeoUVRqwlwPQ212UUs23n4frsHgm7HXh9rXaubyeD1m5mL2Ig90N/iUxG60R+OFmYwbz3kpPgWqsxd4eHaA1ArceZ3c/Hm1kS0ejwQQgghnn1tBzW31fTvjRxpascxcwL53qrVfG/hLM7dEM9CHUkqLD4awtG2vWntPJ6BUYk8FOBAKyc/RqSWMyV0LJ1H+TJgzWaGrQtiUHgCSxVSKT7KkNG27G3tzPGBUUw8FEAHKyf6RaTyLsnaz2ezV6/vJ/2RZC2vHl7BCUOtaWZqycFeQTyQVUulMp0xH/rSTqOh/eT1jEmr4PdzrZoKjnP9DHe6+czjsnff5qLgHUwq0x9tSAnlWOdR9A1Yw81h6xgUFM6EVrO0GpJX06XvTO4vaTdz61H1SVzpPp1/LTbwOaWYR0NG07a3NZ3HBzIq8RADHKzo5BfB1LskeY/JWydysKUl7d38GZF4ih+4D6P34s08/G0FqbvO/W+60LqvC1//5ALvGzy3u8yMC+VrNhr2cJnHT05lM/ebfQwZa0VjCzcGfpbMYsXQ92t49fhHnGKvoYnTbP4h/jsWZnzBLTMGU2PixFnhX/JKfhpjN02lvcaEQ2aF83RmBuM/msKBGhMOmfUxT+XWdxnfNh3Eqku7GDDGgdZWjvSY/htuXjqGQzznc8P+VJYoZO3Vw1wxYSitzUxpOdiLQQey2HxpdKLqi6X0C7vSbmLgveStnDjYkpb2bvSPSOSpD9w5zHsxNx/+lhUG2nqQc4KbJttSo3Hg69uOMeseSTax4Ph6znB3o8+8ZXz37UUM3pHEh5dZO0rJfs7s58KV5x6dANdxm92LZYu7vHJkLV+10bCHy1xuP5HFnHPR/K2XFTU93fnOvgssNRR7pZLpMR/S105Djf1kro9JY4XSxfVbnsLQsc4c5RvANZvDuC4oiOEJpc33INnA5NUu7DtzP0sUkrrr3DVlAG39djOvw0mLQgghxLPJiDS8d5kuYxM8PI9h+vnL2OLWWU3vp1UX8wZsV/wMB2/+DbOewP4OhumQsckTix/sROr2V9DJQAsAgFq0GwHb+uNPe2bDuu1BIdqpwzfve2KVeTQubPXotEL+P0OXgU2ei/FgZyq2v2LoThJCCCGebd0bkgHgkZ1CnjC1SQfjnw/HS52Oh3hy1PJjiEr3ReSGzpJlBTV3qlCv1uB81BnYLZwmybLoJguM2xiJSel/xj+0T/GG+q9QUX4sCum+kdggybIQQojnXJcJs+7OHdxTqlFZ1XZLsJ+WLns7fAYNx4LIE/jyYiPmvL8YQ5/yPCG16hKiI3MxbddWeLfbik1Pl7kNPnY2sLH9BULuvIVVXk+9BC6eZ328sWX3Gyj49C9I6XRDlOediqpL0YjMnYZdW73b72oohBBCPGcMDslouH4GB46cQ0G1DiZWjvCZswSvOXVnia4fQFeEf+09iLPllhgxbT5+7d6/0xUqngwFRWlp4PCX4WAoB9YV4p+7/46sfpPw1hwP9O/ykUOIDjQU4dJ3wGiPwW2PPP+UIqSlEcNfdtDvhCmEEEI85wwmzEIIIYQQQvy/k/qoEEIIIYQQBkjCLIQQQgghhAGSMAshhBBCCGGAJMxCCCGEEEIYIAmzEEIIIYQQBkjCLIQQQgghhAGSMAshhBBCCGGAJMxCCCGEEEIY8B9sVqxe9xetmgAAAABJRU5ErkJggg==;" parent="1" vertex="1">
          <mxGeometry x="710" y="-250" width="716" height="201" as="geometry" />
        </mxCell>
        <mxCell id="tby80TmxBhAo45sjsNx7-2" value="Vuelo" style="whiteSpace=wrap;html=1;align=center;fillColor=#f0a30a;strokeColor=#BD7000;fontColor=#000000;" parent="1" vertex="1">
          <mxGeometry x="810" y="90" width="100" height="40" as="geometry" />
        </mxCell>
        <mxCell id="tby80TmxBhAo45sjsNx7-13" value="Avion" style="whiteSpace=wrap;html=1;align=center;fillColor=#f0a30a;strokeColor=#BD7000;fontColor=#000000;" parent="1" vertex="1">
          <mxGeometry x="1130" y="90" width="100" height="40" as="geometry" />
        </mxCell>
        <mxCell id="tby80TmxBhAo45sjsNx7-14" value="Tienen" style="shape=rhombus;perimeter=rhombusPerimeter;whiteSpace=wrap;html=1;align=center;fillColor=#76608a;fontColor=#ffffff;strokeColor=#432D57;" parent="1" vertex="1">
          <mxGeometry x="980" y="90" width="90" height="40" as="geometry" />
        </mxCell>
        <mxCell id="tby80TmxBhAo45sjsNx7-15" value="" style="endArrow=none;html=1;rounded=0;exitX=0;exitY=0.5;exitDx=0;exitDy=0;" parent="1" source="tby80TmxBhAo45sjsNx7-14" edge="1">
          <mxGeometry relative="1" as="geometry">
            <mxPoint x="957" y="80" as="sourcePoint" />
            <mxPoint x="910" y="110" as="targetPoint" />
          </mxGeometry>
        </mxCell>
        <mxCell id="tby80TmxBhAo45sjsNx7-16" value="(1,1)" style="resizable=0;html=1;whiteSpace=wrap;align=right;verticalAlign=bottom;" parent="tby80TmxBhAo45sjsNx7-15" connectable="0" vertex="1">
          <mxGeometry x="1" relative="1" as="geometry">
            <mxPoint x="34" as="offset" />
          </mxGeometry>
        </mxCell>
        <mxCell id="tby80TmxBhAo45sjsNx7-17" value="" style="endArrow=none;html=1;rounded=0;exitX=1;exitY=0.5;exitDx=0;exitDy=0;" parent="1" source="tby80TmxBhAo45sjsNx7-14" edge="1">
          <mxGeometry relative="1" as="geometry">
            <mxPoint x="957" y="80" as="sourcePoint" />
            <mxPoint x="1130" y="110" as="targetPoint" />
          </mxGeometry>
        </mxCell>
        <mxCell id="tby80TmxBhAo45sjsNx7-18" value="(1,N)" style="resizable=0;html=1;whiteSpace=wrap;align=right;verticalAlign=bottom;" parent="tby80TmxBhAo45sjsNx7-17" connectable="0" vertex="1">
          <mxGeometry x="1" relative="1" as="geometry">
            <mxPoint as="offset" />
          </mxGeometry>
        </mxCell>
        <mxCell id="tby80TmxBhAo45sjsNx7-19" value="Areopuerto" style="whiteSpace=wrap;html=1;align=center;fillColor=#f0a30a;strokeColor=#BD7000;fontColor=#000000;" parent="1" vertex="1">
          <mxGeometry x="470" y="90" width="120" height="40" as="geometry" />
        </mxCell>
        <mxCell id="hbtWNGOcbyErRRx-JAfI-1" value="" style="endArrow=none;html=1;rounded=0;exitX=0.5;exitY=0;exitDx=0;exitDy=0;" edge="1" target="hbtWNGOcbyErRRx-JAfI-2" parent="1" source="tby80TmxBhAo45sjsNx7-2">
          <mxGeometry relative="1" as="geometry">
            <mxPoint x="810" y="15" as="sourcePoint" />
            <mxPoint x="870" y="15" as="targetPoint" />
          </mxGeometry>
        </mxCell>
        <mxCell id="hbtWNGOcbyErRRx-JAfI-2" value="&lt;u&gt;Identificador_Vuelo&lt;/u&gt;" style="ellipse;whiteSpace=wrap;html=1;align=center;" vertex="1" parent="1">
          <mxGeometry x="797.5" y="-30" width="125" height="30" as="geometry" />
        </mxCell>
        <mxCell id="hbtWNGOcbyErRRx-JAfI-5" value="" style="endArrow=none;html=1;rounded=0;exitX=0.75;exitY=0;exitDx=0;exitDy=0;" edge="1" target="hbtWNGOcbyErRRx-JAfI-6" parent="1" source="tby80TmxBhAo45sjsNx7-2">
          <mxGeometry relative="1" as="geometry">
            <mxPoint x="882" y="25" as="sourcePoint" />
            <mxPoint x="942" y="25" as="targetPoint" />
          </mxGeometry>
        </mxCell>
        <mxCell id="hbtWNGOcbyErRRx-JAfI-6" value="DescripciÃ³n" style="ellipse;whiteSpace=wrap;html=1;align=center;" vertex="1" parent="1">
          <mxGeometry x="907" width="73" height="30" as="geometry" />
        </mxCell>
        <mxCell id="hbtWNGOcbyErRRx-JAfI-7" value="" style="endArrow=none;html=1;rounded=0;exitX=0.25;exitY=0;exitDx=0;exitDy=0;" edge="1" target="hbtWNGOcbyErRRx-JAfI-8" parent="1" source="tby80TmxBhAo45sjsNx7-2">
          <mxGeometry relative="1" as="geometry">
            <mxPoint x="725" y="5" as="sourcePoint" />
            <mxPoint x="785" y="5" as="targetPoint" />
          </mxGeometry>
        </mxCell>
        <mxCell id="hbtWNGOcbyErRRx-JAfI-8" value="Fecha" style="ellipse;whiteSpace=wrap;html=1;align=center;" vertex="1" parent="1">
          <mxGeometry x="760" y="-10" width="50" height="30" as="geometry" />
        </mxCell>
        <mxCell id="hbtWNGOcbyErRRx-JAfI-9" value="" style="endArrow=none;html=1;rounded=0;exitX=0;exitY=0;exitDx=0;exitDy=0;" edge="1" target="hbtWNGOcbyErRRx-JAfI-10" parent="1" source="tby80TmxBhAo45sjsNx7-19">
          <mxGeometry relative="1" as="geometry">
            <mxPoint x="520" y="215" as="sourcePoint" />
            <mxPoint x="580" y="215" as="targetPoint" />
          </mxGeometry>
        </mxCell>
        <mxCell id="hbtWNGOcbyErRRx-JAfI-10" value="&lt;u&gt;Siglas&lt;/u&gt;" style="ellipse;whiteSpace=wrap;html=1;align=center;" vertex="1" parent="1">
          <mxGeometry x="430" y="10" width="50" height="30" as="geometry" />
        </mxCell>
        <mxCell id="hbtWNGOcbyErRRx-JAfI-16" value="Asigando" style="shape=rhombus;perimeter=rhombusPerimeter;whiteSpace=wrap;html=1;align=center;fillColor=#76608a;fontColor=#ffffff;strokeColor=#432D57;" vertex="1" parent="1">
          <mxGeometry x="660" y="90" width="90" height="40" as="geometry" />
        </mxCell>
        <mxCell id="hbtWNGOcbyErRRx-JAfI-17" value="" style="endArrow=none;html=1;rounded=0;exitX=0;exitY=0.5;exitDx=0;exitDy=0;" edge="1" source="hbtWNGOcbyErRRx-JAfI-16" parent="1">
          <mxGeometry relative="1" as="geometry">
            <mxPoint x="637" y="80" as="sourcePoint" />
            <mxPoint x="590" y="110" as="targetPoint" />
          </mxGeometry>
        </mxCell>
        <mxCell id="hbtWNGOcbyErRRx-JAfI-18" value="(1,N)" style="resizable=0;html=1;whiteSpace=wrap;align=right;verticalAlign=bottom;" connectable="0" vertex="1" parent="hbtWNGOcbyErRRx-JAfI-17">
          <mxGeometry x="1" relative="1" as="geometry">
            <mxPoint x="34" as="offset" />
          </mxGeometry>
        </mxCell>
        <mxCell id="hbtWNGOcbyErRRx-JAfI-19" value="" style="endArrow=none;html=1;rounded=0;exitX=1;exitY=0.5;exitDx=0;exitDy=0;" edge="1" source="hbtWNGOcbyErRRx-JAfI-16" parent="1">
          <mxGeometry relative="1" as="geometry">
            <mxPoint x="637" y="80" as="sourcePoint" />
            <mxPoint x="810" y="110" as="targetPoint" />
          </mxGeometry>
        </mxCell>
        <mxCell id="hbtWNGOcbyErRRx-JAfI-20" value="(1,N)" style="resizable=0;html=1;whiteSpace=wrap;align=right;verticalAlign=bottom;" connectable="0" vertex="1" parent="hbtWNGOcbyErRRx-JAfI-19">
          <mxGeometry x="1" relative="1" as="geometry">
            <mxPoint as="offset" />
          </mxGeometry>
        </mxCell>
        <mxCell id="hbtWNGOcbyErRRx-JAfI-21" value="" style="endArrow=none;html=1;rounded=0;exitX=0.45;exitY=-0.075;exitDx=0;exitDy=0;exitPerimeter=0;" edge="1" target="hbtWNGOcbyErRRx-JAfI-22" parent="1" source="tby80TmxBhAo45sjsNx7-19">
          <mxGeometry relative="1" as="geometry">
            <mxPoint x="505" y="-5" as="sourcePoint" />
            <mxPoint x="565" y="-5" as="targetPoint" />
          </mxGeometry>
        </mxCell>
        <mxCell id="hbtWNGOcbyErRRx-JAfI-22" value="Tipo" style="ellipse;whiteSpace=wrap;html=1;align=center;" vertex="1" parent="1">
          <mxGeometry x="480" width="50" height="30" as="geometry" />
        </mxCell>
        <mxCell id="hbtWNGOcbyErRRx-JAfI-23" value="" style="endArrow=none;html=1;rounded=0;exitX=0.5;exitY=0;exitDx=0;exitDy=0;" edge="1" target="hbtWNGOcbyErRRx-JAfI-24" parent="1" source="tby80TmxBhAo45sjsNx7-19">
          <mxGeometry relative="1" as="geometry">
            <mxPoint x="550" y="15" as="sourcePoint" />
            <mxPoint x="610" y="15" as="targetPoint" />
          </mxGeometry>
        </mxCell>
        <mxCell id="hbtWNGOcbyErRRx-JAfI-24" value="Nombre_Ciudad" style="ellipse;whiteSpace=wrap;html=1;align=center;" vertex="1" parent="1">
          <mxGeometry x="510" y="-40" width="95" height="30" as="geometry" />
        </mxCell>
        <mxCell id="hbtWNGOcbyErRRx-JAfI-25" value="" style="endArrow=none;html=1;rounded=0;exitX=0.75;exitY=0;exitDx=0;exitDy=0;" edge="1" target="hbtWNGOcbyErRRx-JAfI-26" parent="1" source="tby80TmxBhAo45sjsNx7-19">
          <mxGeometry relative="1" as="geometry">
            <mxPoint x="605" y="-5" as="sourcePoint" />
            <mxPoint x="665" y="-5" as="targetPoint" />
          </mxGeometry>
        </mxCell>
        <mxCell id="hbtWNGOcbyErRRx-JAfI-26" value="PaÃ­s" style="ellipse;whiteSpace=wrap;html=1;align=center;" vertex="1" parent="1">
          <mxGeometry x="570" width="50" height="30" as="geometry" />
        </mxCell>
        <mxCell id="hbtWNGOcbyErRRx-JAfI-27" value="" style="endArrow=none;html=1;rounded=0;exitX=0;exitY=0;exitDx=0;exitDy=0;" edge="1" target="hbtWNGOcbyErRRx-JAfI-28" parent="1" source="tby80TmxBhAo45sjsNx7-13">
          <mxGeometry relative="1" as="geometry">
            <mxPoint x="1030" y="35" as="sourcePoint" />
            <mxPoint x="1090" y="35" as="targetPoint" />
          </mxGeometry>
        </mxCell>
        <mxCell id="hbtWNGOcbyErRRx-JAfI-28" value="&lt;u&gt;MatrÃ­cula&lt;/u&gt;" style="ellipse;whiteSpace=wrap;html=1;align=center;" vertex="1" parent="1">
          <mxGeometry x="1070" y="-20" width="50" height="30" as="geometry" />
        </mxCell>
        <mxCell id="hbtWNGOcbyErRRx-JAfI-30" value="" style="endArrow=none;html=1;rounded=0;exitX=0.25;exitY=0;exitDx=0;exitDy=0;" edge="1" target="hbtWNGOcbyErRRx-JAfI-31" parent="1" source="tby80TmxBhAo45sjsNx7-13">
          <mxGeometry relative="1" as="geometry">
            <mxPoint x="1120" y="-5" as="sourcePoint" />
            <mxPoint x="1180" y="-5" as="targetPoint" />
          </mxGeometry>
        </mxCell>
        <mxCell id="hbtWNGOcbyErRRx-JAfI-31" value="Fabricante" style="ellipse;whiteSpace=wrap;html=1;align=center;" vertex="1" parent="1">
          <mxGeometry x="1120" y="-40" width="65" height="30" as="geometry" />
        </mxCell>
        <mxCell id="hbtWNGOcbyErRRx-JAfI-32" value="" style="endArrow=none;html=1;rounded=0;exitX=0.5;exitY=0;exitDx=0;exitDy=0;" edge="1" target="hbtWNGOcbyErRRx-JAfI-33" parent="1" source="tby80TmxBhAo45sjsNx7-13">
          <mxGeometry relative="1" as="geometry">
            <mxPoint x="1160" y="25" as="sourcePoint" />
            <mxPoint x="1220" y="25" as="targetPoint" />
          </mxGeometry>
        </mxCell>
        <mxCell id="hbtWNGOcbyErRRx-JAfI-33" value="Modelo" style="ellipse;whiteSpace=wrap;html=1;align=center;" vertex="1" parent="1">
          <mxGeometry x="1155" y="-10" width="50" height="30" as="geometry" />
        </mxCell>
        <mxCell id="hbtWNGOcbyErRRx-JAfI-34" value="" style="endArrow=none;html=1;rounded=0;exitX=0.75;exitY=0;exitDx=0;exitDy=0;" edge="1" target="hbtWNGOcbyErRRx-JAfI-35" parent="1" source="tby80TmxBhAo45sjsNx7-13">
          <mxGeometry relative="1" as="geometry">
            <mxPoint x="1220" y="35" as="sourcePoint" />
            <mxPoint x="1280" y="35" as="targetPoint" />
          </mxGeometry>
        </mxCell>
        <mxCell id="hbtWNGOcbyErRRx-JAfI-35" value="Capacidad" style="ellipse;whiteSpace=wrap;html=1;align=center;" vertex="1" parent="1">
          <mxGeometry x="1205" y="-10" width="75" height="30" as="geometry" />
        </mxCell>
        <mxCell id="hbtWNGOcbyErRRx-JAfI-37" value="" style="endArrow=none;html=1;rounded=0;exitX=1;exitY=0;exitDx=0;exitDy=0;" edge="1" target="hbtWNGOcbyErRRx-JAfI-38" parent="1" source="tby80TmxBhAo45sjsNx7-13">
          <mxGeometry relative="1" as="geometry">
            <mxPoint x="1241" y="65" as="sourcePoint" />
            <mxPoint x="1301" y="65" as="targetPoint" />
          </mxGeometry>
        </mxCell>
        <mxCell id="hbtWNGOcbyErRRx-JAfI-38" value="AutonomÃ­a" style="ellipse;whiteSpace=wrap;html=1;align=center;" vertex="1" parent="1">
          <mxGeometry x="1276" y="50" width="84" height="30" as="geometry" />
        </mxCell>
      </root>
    </mxGraphModel>
  </diagram>
</mxfile>
